<svg width="64" height="64" viewBox="0 0 64 64" fill="none" xmlns="http://www.w3.org/2000/svg">
<g clip-path="url(#clip0_856_186)">
<path d="M14 0C14.5304 0 15.0391 0.210714 15.4142 0.585786C15.7893 0.960859 16 1.46957 16 2V4H48V2C48 1.46957 48.2107 0.960859 48.5858 0.585786C48.9609 0.210714 49.4696 0 50 0C50.5304 0 51.0391 0.210714 51.4142 0.585786C51.7893 0.960859 52 1.46957 52 2V4H56C58.1217 4 60.1566 4.84285 61.6569 6.34315C63.1571 7.84344 64 9.87827 64 12V56C64 58.1217 63.1571 60.1566 61.6569 61.6569C60.1566 63.1571 58.1217 64 56 64H8C5.87827 64 3.84344 63.1571 2.34315 61.6569C0.842855 60.1566 0 58.1217 0 56V12C0 9.87827 0.842855 7.84344 2.34315 6.34315C3.84344 4.84285 5.87827 4 8 4H12V2C12 1.46957 12.2107 0.960859 12.5858 0.585786C12.9609 0.210714 13.4696 0 14 0ZM8 8C6.93913 8 5.92172 8.42143 5.17157 9.17157C4.42143 9.92172 4 10.9391 4 12V16H60V12C60 10.9391 59.5786 9.92172 58.8284 9.17157C58.0783 8.42143 57.0609 8 56 8H8ZM60 20H4V56C4 57.0609 4.42143 58.0783 5.17157 58.8284C5.92172 59.5786 6.93913 60 8 60H56C57.0609 60 58.0783 59.5786 58.8284 58.8284C59.5786 58.0783 60 57.0609 60 56V20Z" fill="#ACACAC"/>
<path d="M22.8654 30.6345L22.8655 30.6346L30.2323 38L22.8655 45.3654L22.8654 45.3654C22.7493 45.4816 22.6571 45.6195 22.5942 45.7713C22.5314 45.923 22.499 46.0857 22.499 46.25C22.499 46.4142 22.5314 46.5769 22.5942 46.7287C22.6571 46.8805 22.7493 47.0184 22.8654 47.1345C22.9816 47.2507 23.1195 47.3428 23.2713 47.4057C23.423 47.4686 23.5857 47.5009 23.75 47.5009C23.9142 47.5009 24.0769 47.4686 24.2287 47.4057C24.3805 47.3428 24.5184 47.2507 24.6345 47.1345L24.6346 47.1345L32 39.7676L39.3654 47.1345L39.3654 47.1345C39.4816 47.2507 39.6195 47.3428 39.7713 47.4057C39.923 47.4686 40.0857 47.5009 40.25 47.5009C40.4142 47.5009 40.5769 47.4686 40.7287 47.4057C40.8805 47.3428 41.0184 47.2507 41.1345 47.1345C41.2507 47.0184 41.3428 46.8805 41.4057 46.7287C41.4686 46.5769 41.5009 46.4142 41.5009 46.25C41.5009 46.0857 41.4686 45.923 41.4057 45.7713C41.3428 45.6195 41.2507 45.4816 41.1345 45.3654L41.1345 45.3654L33.7676 38L41.1345 30.6346L41.1345 30.6345C41.2507 30.5184 41.3428 30.3805 41.4057 30.2287C41.4686 30.0769 41.5009 29.9142 41.5009 29.75C41.5009 29.5857 41.4686 29.423 41.4057 29.2713C41.3428 29.1195 41.2507 28.9816 41.1345 28.8654C41.0184 28.7493 40.8805 28.6571 40.7287 28.5942C40.5769 28.5314 40.4142 28.499 40.25 28.499C40.0857 28.499 39.923 28.5314 39.7713 28.5942C39.6195 28.6571 39.4816 28.7493 39.3654 28.8654L39.3654 28.8655L32 36.2323L24.6346 28.8655L24.6345 28.8654C24.5184 28.7493 24.3805 28.6571 24.2287 28.5942C24.0769 28.5314 23.9142 28.499 23.75 28.499C23.5857 28.499 23.423 28.5314 23.2713 28.5942C23.1195 28.6571 22.9816 28.7493 22.8654 28.8654C22.7493 28.9816 22.6571 29.1195 22.5942 29.2713C22.5314 29.423 22.499 29.5857 22.499 29.75C22.499 29.9142 22.5314 30.0769 22.5942 30.2287C22.6571 30.3805 22.7493 30.5184 22.8654 30.6345Z" fill="#ACACAC" stroke="#ACACAC"/>
</g>
<defs>
<clipPath id="clip0_856_186">
<rect width="64" height="64" fill="white"/>
</clipPath>
</defs>
</svg>
