<svg width="64" height="64" viewBox="0 0 64 64" fill="none" xmlns="http://www.w3.org/2000/svg">
<path d="M22.8654 16.6346L22.8655 16.6346L30.2323 24L22.8655 31.3654L22.8654 31.3654C22.7493 31.4816 22.6571 31.6195 22.5942 31.7713C22.5314 31.9231 22.499 32.0857 22.499 32.25C22.499 32.4143 22.5314 32.5769 22.5942 32.7287C22.6571 32.8805 22.7493 33.0184 22.8654 33.1346C22.9816 33.2507 23.1195 33.3429 23.2713 33.4057C23.423 33.4686 23.5857 33.5009 23.75 33.5009C23.9142 33.5009 24.0769 33.4686 24.2287 33.4057C24.3805 33.3429 24.5184 33.2507 24.6345 33.1346L24.6346 33.1345L32 25.7677L39.3654 33.1345L39.3654 33.1346C39.4816 33.2507 39.6195 33.3429 39.7713 33.4057C39.923 33.4686 40.0857 33.5009 40.25 33.5009C40.4142 33.5009 40.5769 33.4686 40.7287 33.4057C40.8805 33.3429 41.0184 33.2507 41.1345 33.1346C41.2507 33.0184 41.3428 32.8805 41.4057 32.7287C41.4686 32.5769 41.5009 32.4143 41.5009 32.25C41.5009 32.0857 41.4686 31.9231 41.4057 31.7713C41.3428 31.6195 41.2507 31.4816 41.1345 31.3654L41.1345 31.3654L33.7676 24L41.1345 16.6346L41.1345 16.6346C41.2507 16.5184 41.3428 16.3805 41.4057 16.2287C41.4686 16.0769 41.5009 15.9143 41.5009 15.75C41.5009 15.5857 41.4686 15.4231 41.4057 15.2713C41.3428 15.1195 41.2507 14.9816 41.1345 14.8654C41.0184 14.7493 40.8805 14.6571 40.7287 14.5943C40.5769 14.5314 40.4142 14.4991 40.25 14.4991C40.0857 14.4991 39.923 14.5314 39.7713 14.5943C39.6195 14.6571 39.4816 14.7493 39.3654 14.8654L39.3654 14.8655L32 22.2323L24.6346 14.8655L24.6345 14.8654C24.5184 14.7493 24.3805 14.6571 24.2287 14.5943C24.0769 14.5314 23.9142 14.4991 23.75 14.4991C23.5857 14.4991 23.423 14.5314 23.2713 14.5943C23.1195 14.6571 22.9816 14.7493 22.8654 14.8654C22.7493 14.9816 22.6571 15.1195 22.5942 15.2713C22.5314 15.4231 22.499 15.5857 22.499 15.75C22.499 15.9143 22.5314 16.0769 22.5942 16.2287C22.6571 16.3805 22.7493 16.5184 22.8654 16.6346Z" fill="#ACACAC" stroke="#ACACAC"/>
<path d="M56 4C57.0609 4 58.0783 4.42143 58.8284 5.17157C59.5786 5.92172 60 6.93913 60 8V40C60 41.0609 59.5786 42.0783 58.8284 42.8284C58.0783 43.5786 57.0609 44 56 44H17.656C15.5344 44.0005 13.4999 44.8436 12 46.344L4 54.344V8C4 6.93913 4.42143 5.92172 5.17157 5.17157C5.92172 4.42143 6.93913 4 8 4H56ZM8 0C5.87827 0 3.84344 0.842855 2.34315 2.34315C0.842855 3.84344 0 5.87827 0 8L0 59.172C8.40595e-05 59.5677 0.11757 59.9546 0.337589 60.2835C0.557608 60.6124 0.870268 60.8687 1.236 61.0199C1.60173 61.1711 2.00408 61.2103 2.39214 61.1328C2.7802 61.0552 3.13652 60.8642 3.416 60.584L14.828 49.172C15.578 48.4218 16.5952 48.0002 17.656 48H56C58.1217 48 60.1566 47.1571 61.6569 45.6569C63.1571 44.1566 64 42.1217 64 40V8C64 5.87827 63.1571 3.84344 61.6569 2.34315C60.1566 0.842855 58.1217 0 56 0L8 0Z" fill="#ACACAC"/>
</svg>
