<?xml version="1.0" encoding="utf-8"?>
<!-- Generator: Adobe Illustrator 23.0.1, SVG Export Plug-In . SVG Version: 6.00 Build 0)  -->
<svg version="1.1" id="Layer_1" xmlns="http://www.w3.org/2000/svg" xmlns:xlink="http://www.w3.org/1999/xlink" x="0px" y="0px"
	 viewBox="0 0 56.7 56.6" style="enable-background:new 0 0 56.7 56.6;" xml:space="preserve">
<style type="text/css">
	.st0{display:none;}
	.st1{display:inline;}
	.st2{fill:#FDD7AD;stroke:#ED6D63;stroke-linecap:round;stroke-miterlimit:10;}
	.st3{fill:#FDB8AD;}
	.st4{fill:none;stroke:#ED6D63;stroke-miterlimit:10;}
	.st5{fill:none;stroke:#ED6D63;stroke-linecap:round;stroke-miterlimit:10;}
	.st6{fill:none;stroke:#1341A3;stroke-miterlimit:10;}
	.st7{fill:#EF5361;}
	.st8{fill:#1341A3;}
	.st9{fill:#E4E8F1;}
	.st10{fill:#FDD7AD;stroke:#ED6D63;stroke-miterlimit:10;}
	.st11{fill:none;stroke:#1341A3;stroke-width:1.5;stroke-miterlimit:10;}
	.st12{fill:#65B54E;}
	.st13{fill:#477F37;}
	.st14{display:inline;fill:#ED6D63;}
	.st15{display:inline;fill:#FFD3DD;}
	
		.st16{clip-path:url(#SVGID_4_);fill:none;stroke:#E4E8F1;stroke-width:2;stroke-linecap:round;stroke-linejoin:round;stroke-miterlimit:10;}
	.st17{display:inline;fill:#EF5361;}
	.st18{display:inline;fill:#1341A3;}
	.st19{display:inline;fill:none;stroke:#1341A3;stroke-width:2;stroke-linecap:round;stroke-miterlimit:10;}
	.st20{display:inline;fill:none;stroke:#1341A3;stroke-width:1.5;stroke-miterlimit:10;}
	.st21{clip-path:url(#SVGID_7_);fill:#EF5361;}
	.st22{display:inline;fill:none;stroke:#E4E8F1;stroke-linecap:round;stroke-miterlimit:10;}
	
		.st23{clip-path:url(#SVGID_9_);fill:none;stroke:#E4E8F1;stroke-width:2;stroke-linecap:round;stroke-linejoin:round;stroke-miterlimit:10;}
	.st24{display:inline;fill:#E4E8F1;}
	.st25{clip-path:url(#SVGID_13_);fill:#0F367C;}
	.st26{clip-path:url(#SVGID_15_);fill:#5CA547;}
	.st27{display:inline;fill:#FDD7AD;stroke:#ED6D63;stroke-linecap:round;stroke-linejoin:round;stroke-miterlimit:10;}
	.st28{display:inline;fill:none;stroke:#ED6D63;stroke-linecap:round;stroke-miterlimit:10;}
	.st29{display:inline;fill:#FDD7AD;stroke:#FF736C;stroke-linecap:round;stroke-linejoin:round;stroke-miterlimit:10;}
	.st30{display:inline;fill:none;stroke:#FF736C;stroke-linecap:round;stroke-linejoin:round;stroke-miterlimit:10;}
	.st31{display:inline;fill:none;stroke:#FF736C;stroke-linecap:round;stroke-miterlimit:10;}
	.st32{display:inline;fill:none;stroke:#E4E8F1;stroke-width:1.5;stroke-linecap:round;stroke-miterlimit:10;}
	.st33{display:inline;fill:none;stroke:#1341A3;stroke-width:1.7;stroke-miterlimit:10;}
	.st34{display:inline;fill:#89D7F4;}
	.st35{fill:#ED6D63;}
	.st36{clip-path:url(#SVGID_18_);fill:#FDD7AD;}
	.st37{display:inline;fill:#3A3A3A;}
	.st38{display:inline;fill:none;stroke:#1341A3;stroke-miterlimit:10;}
	.st39{display:inline;fill:#C1434E;}
	.st40{display:inline;fill:#65B54E;}
	.st41{display:inline;fill:none;stroke:#559842;stroke-width:0.5;stroke-linecap:round;stroke-miterlimit:10;}
	.st42{fill:none;stroke:#E4E8F1;stroke-linecap:round;stroke-miterlimit:10;stroke-dasharray:2.0138,2.0138;}
	.st43{fill:#FDD7AD;stroke:#ED6D63;stroke-linecap:round;stroke-linejoin:round;stroke-miterlimit:10;}
	.st44{display:inline;fill:none;stroke:#EF5361;stroke-width:3;stroke-miterlimit:10;}
	.st45{display:inline;fill:none;stroke:#1341A3;stroke-width:3;stroke-miterlimit:10;}
	.st46{display:inline;fill:none;stroke:#E4E8F1;stroke-width:1.2;stroke-miterlimit:10;}
	.st47{display:inline;fill:none;stroke:#E4E8F1;stroke-width:1.2;stroke-linecap:round;stroke-miterlimit:10;}
	.st48{display:inline;fill:#1341A3;stroke:#E4E8F1;stroke-width:2;stroke-miterlimit:10;}
	.st49{display:inline;fill:none;stroke:#E4E8F1;stroke-width:2;stroke-linecap:round;stroke-miterlimit:10;}
	.st50{display:inline;fill:none;stroke:#1341A3;stroke-width:1.5;stroke-linecap:round;stroke-miterlimit:10;}
	.st51{fill:#FF9289;stroke:#ED6D63;stroke-width:0.7;stroke-miterlimit:10;}
	.st52{fill:none;stroke:#ED6D63;stroke-width:0.7;stroke-linecap:round;stroke-miterlimit:10;}
	.st53{fill:#FF9289;stroke:#ED6D63;stroke-miterlimit:10;}
	.st54{display:inline;fill:#FF9289;stroke:#ED6D63;stroke-miterlimit:10;}
	.st55{display:inline;fill:none;stroke:#E4E8F1;stroke-width:1.5;stroke-miterlimit:10;}
	.st56{display:inline;fill:none;stroke:#E4E8F1;stroke-width:1.5;stroke-linejoin:round;stroke-miterlimit:10;}
	.st57{display:inline;fill:none;stroke:#1341A3;stroke-width:2;stroke-miterlimit:10;}
	.st58{font-family:'Montserrat-Bold';}
	.st59{font-size:8.4097px;}
	.st60{font-size:6.761px;}
	.st61{font-size:5.5917px;}
	.st62{font-size:4.6914px;}
	.st63{clip-path:url(#SVGID_22_);fill:#EF5361;}
	.st64{display:inline;fill:none;stroke:#E4E8F1;stroke-width:2;stroke-linecap:round;stroke-linejoin:round;stroke-miterlimit:10;}
	.st65{display:inline;fill:none;stroke:#E4E8F1;stroke-width:2;stroke-miterlimit:10;}
	.st66{clip-path:url(#SVGID_24_);fill:none;stroke:#E4E8F1;stroke-width:1.5;stroke-linecap:round;stroke-miterlimit:10;}
	
		.st67{display:inline;fill:none;stroke:#1341A3;stroke-width:1.5;stroke-linecap:round;stroke-linejoin:round;stroke-miterlimit:10;}
	.st68{display:inline;fill:none;stroke:#1341A3;stroke-width:4;stroke-miterlimit:10;}
	.st69{display:inline;fill:#1341A3;stroke:#89D7F4;stroke-width:2;stroke-miterlimit:10;}
	.st70{fill:#89D7F4;}
	.st71{clip-path:url(#SVGID_27_);fill:#1341A3;}
	.st72{clip-path:url(#SVGID_29_);fill:none;stroke:#E4E8F1;stroke-linecap:round;stroke-miterlimit:10;}
	
		.st73{display:inline;fill:none;stroke:#1341A3;stroke-width:2.5;stroke-linecap:round;stroke-linejoin:round;stroke-miterlimit:10;}
	.st74{display:inline;fill:none;stroke:#1341A3;stroke-width:2.5;stroke-linecap:round;stroke-miterlimit:10;}
	.st75{clip-path:url(#SVGID_31_);fill:none;stroke:#E4E8F1;stroke-width:3;stroke-miterlimit:10;}
	.st76{display:inline;fill:#1341A3;stroke:#E4E8F1;stroke-width:2.5;stroke-miterlimit:10;}
	.st77{display:inline;fill:#E6EAF2;}
	.st78{display:inline;fill:none;stroke:#E6EAF2;stroke-width:1.5;stroke-linecap:round;stroke-miterlimit:10;}
	.st79{display:inline;fill:none;stroke:#E4E8F1;stroke-width:0.5;stroke-linecap:round;stroke-miterlimit:10;}
	.st80{display:inline;fill:none;stroke:#E4E8F1;stroke-width:0.8;stroke-linecap:round;stroke-miterlimit:10;}
	.st81{display:inline;fill:#D84B58;}
	.st82{display:inline;fill:#579B43;}
</style>
<g id="icon_1" class="st0">
	<g class="st1">
		<path class="st2" d="M20.2,21.5c0.4,0.1,0.8-0.2,0.8-0.6v-7.1c0,0,0-2.7,3.4-2.1c0.3,0.1,0.6-0.1,0.7-0.4c0.2-0.6,0.9-1.5,2.9-1.5
			c1.2,0,1.7,0.7,1.9,1.3c0.1,0.3,0.5,0.5,0.8,0.4c0.7-0.2,1.7-0.4,2.3,0.3c0.8,0.8,0.9,1.5,1,2.3c0,0.4,0.3,0.6,0.7,0.6
			c1.2-0.1,3.3-0.1,3.3,2.1v14c0,0,0,3.6-1.7,4.8c-0.2,0.1-0.3,0.3-0.3,0.6v10c0,0.4-0.3,0.7-0.7,0.7H24.6c-0.4,0-0.6-0.3-0.6-0.7
			v-9.8c0-0.3-0.2-0.5-0.5-0.6c-0.8-0.3-2.9-1.7-6.5-9l0,0c-0.1-0.1-2-4,0-5C18.2,21.2,19.4,21.3,20.2,21.5z"/>
		<path class="st3" d="M37.5,30.3c0,0-1,0-1-1s0-3-3-3s-3,2-3,2s0,1-1,2s-2,3-1,4s4,1,5,2s2,1,2,1v-1l0,0c1.3-1.3,2-3,2-4.8v-0.2
			V30.3z"/>
		<path class="st4" d="M30,11.8"/>
		<line class="st5" x1="30" y1="23.8" x2="30" y2="11.8"/>
		<line class="st5" x1="34" y1="24.8" x2="34" y2="14.8"/>
		<line class="st5" x1="25" y1="23.8" x2="25" y2="11.8"/>
		<line class="st5" x1="21" y1="26.8" x2="21" y2="14.8"/>
		<circle class="st3" cx="23.5" cy="29.3" r="0.5"/>
		<circle class="st3" cx="24" cy="27.8" r="0.5"/>
		<circle class="st3" cx="29" cy="26.8" r="0.5"/>
		<circle class="st3" cx="28.5" cy="29.3" r="1"/>
		<circle class="st3" cx="24" cy="32.8" r="1.5"/>
		<circle class="st3" cx="27" cy="32.8" r="0.5"/>
		<circle class="st3" cx="27" cy="35.8" r="0.5"/>
		<circle class="st3" cx="27" cy="38.8" r="0.5"/>
		<circle class="st3" cx="30" cy="39.8" r="0.5"/>
		<circle class="st3" cx="33.5" cy="38.3" r="1"/>
		<circle class="st3" cx="26.5" cy="42.3" r="2"/>
		<circle class="st3" cx="33" cy="43.8" r="0.5"/>
	</g>
</g>
<g id="icon_2" class="st0">
	<g class="st1">
		<path class="st6" d="M36,20.3c0,0-4.3,0.5-4.6,3.5S31.1,31,31.1,31l-2.2,0.2l0.3-6.7l0,0c0-0.2-0.2-3.7,2.8-5.6
			c1.7-1.1,4.4-1.1,4.4-1.1"/>
		<path class="st6" d="M20.6,17.8c0,0,3.6,0.9,5.3,2.9c1.3,1.5,1.2,3.5,1.2,5.8c0,1.6,0,3,0,4.7h-1.9v-6.3c0,0,0.2-2.3-2.2-3.7
			c-0.8-0.5-2.3-1-4.2-0.9"/>
		<path class="st7" d="M37.1,13.3c0,0,2.5-1,4.2,0.6c1.3,1.2,2.5,2.9,2.5,7.1s-3,5.4-3.6,5.7c-0.2,0.1-3.8,1.1-4.9-2.3
			c-0.5-1.5,0.2-4.6,0.2-4.6s0.1-0.9-0.3-2.1C34.6,16.4,34.9,14.2,37.1,13.3z"/>
		<path class="st7" d="M24.7,30h7c0,0,2.7,0.3,2.6,3.4s-1.8,4.1-1.8,4.1s-1.8,1.4-2,3.3c-0.2,1.8-0.2,2.9-0.2,2.9h-4
			c0,0,0-2.3-0.1-2.9s-1-2.6-1.8-3.5c-0.4-0.4-2.1-2-1.9-4.5C22.6,31.1,24.7,30,24.7,30z"/>
		<path class="st7" d="M19.6,13.3c0,0-2.5-1-4.2,0.6c-1.4,1.2-2.5,2.9-2.5,7.1s3,5.4,3.6,5.7c0.1,0.1,3.8,1.1,4.9-2.3
			c0.5-1.5-0.1-4.6-0.1-4.6s-0.1-0.9,0.4-2.1C22.1,16.4,21.7,14.2,19.6,13.3z"/>
	</g>
</g>
<g id="icon_3" class="st0">
	<g class="st1">
		
			<rect x="18.1" y="22.7" transform="matrix(0.6787 -0.7344 0.7344 0.6787 -10.0651 30.537)" class="st8" width="23.5" height="8.1"/>
		
			<rect x="19.7" y="34.4" transform="matrix(0.6787 -0.7344 0.7344 0.6787 -19.9155 27.1076)" class="st8" width="2.6" height="3.8"/>
		<path class="st8" d="M20.6,36.8L20.6,36.8c0.2,0.2,0.2,0.4,0,0.6l-6.3,6.8c-0.1,0.2-0.4,0.2-0.6,0l0,0c-0.2-0.2-0.2-0.4,0-0.6
			l6.3-6.8C20.1,36.6,20.4,36.6,20.6,36.8z"/>
		<path class="st8" d="M42.1,21.9l-8.4-7.8c-0.3-0.2-0.3-0.6,0-0.9l0,0c0.2-0.3,0.7-0.3,0.9,0l8.4,7.7c0.3,0.2,0.3,0.6,0,0.9l0,0
			C42.7,22.1,42.3,22.1,42.1,21.9z"/>
		<path class="st8" d="M43.5,17.7l-5.8-5.4c-0.3-0.3-0.3-0.7,0-1l0,0c0.3-0.3,0.7-0.3,1,0l5.9,5.4c0.3,0.3,0.3,0.7,0,1l0,0
			C44.3,18,43.8,18,43.5,17.7z"/>
		<rect x="39" y="13.8" transform="matrix(0.6787 -0.7344 0.7344 0.6787 1.5109 34.4912)" class="st8" width="2.3" height="3.4"/>
		<path class="st9" d="M33.9,20l-1.8-1.7l0.7-0.7l1.8,1.7c0.2,0.2,0.2,0.5,0,0.7l0,0C34.4,20.2,34.1,20.2,33.9,20z"/>
		<path class="st9" d="M31.7,22.4l-1.9-1.7l0.6-0.7l1.8,1.7c0.2,0.2,0.2,0.5,0,0.7l0,0C32.2,22.6,31.9,22.6,31.7,22.4z"/>
		<path class="st9" d="M29.5,24.8l-1.9-1.7l0.6-0.7l1.9,1.7c0.2,0.2,0.2,0.5,0,0.7l0,0C30,25,29.7,25,29.5,24.8z"/>
		<path class="st9" d="M27.3,27.2l-1.9-1.7l0.6-0.7l1.9,1.7c0.2,0.2,0.2,0.5,0,0.7l0,0C27.8,27.4,27.5,27.4,27.3,27.2z"/>
		<path class="st9" d="M25,29.7L23.1,28l0.6-0.7l1.9,1.7c0.2,0.2,0.2,0.5,0,0.7l0,0C25.5,29.8,25.2,29.8,25,29.7z"/>
		<path class="st9" d="M22.8,32.1l-1.9-1.7l0.6-0.7l1.9,1.7c0.2,0.2,0.2,0.5,0,0.7l0,0C23.3,32.2,23,32.3,22.8,32.1z"/>
	</g>
</g>
<g id="icon_4" class="st0">
	<g class="st1">
		<path class="st10" d="M23.6,12.7c0,0,1.3,0.1,2,0.1c1.1,0.1,7.9,0.8,8.3,8.5c0.4,7.2-3.3,9.4-4.4,10.9c-0.8,1-1.5,2-1,5
			c0.6,3.6-1.8,6.5-4.5,7s-8,0.3-8.8-5.5c-0.8-5.7-1.3-11.6-1.6-13.9c-0.4-3.2-0.1-8,3.6-10.4C20.2,12.4,23.1,12.7,23.6,12.7z"/>
		<path class="st4" d="M26.7,27.3c0,0,4.9-7.4-0.9-9.5c-4.4-1.6-6.6,0.6-7.6,3.1c-0.2,0.5-0.6,2-0.7,3.9c-0.2,2.5-0.1,5.9,1.3,8.6
			c2.5,4.9,5.1,2.1,5.1,2.1s2.4-2.9,0.6-7s-6.7-3.7-6.7-3.7"/>
		<line class="st11" x1="38.8" y1="20.6" x2="44.9" y2="17.3"/>
		<line class="st11" x1="40.8" y1="28.4" x2="48.8" y2="28.4"/>
		<line class="st11" x1="38.8" y1="35.5" x2="45.5" y2="39.2"/>
	</g>
</g>
<g id="icon_5" class="st0">
	<g class="st1">
		<path class="st8" d="M9.7,32.5l4.7,8.7l-1.9,1.2c0,0-0.9,0.7-1.4-0.3c-0.5-0.9-3.9-7-3.9-7s-0.5-0.6,0.3-1.2
			C8.3,33.4,9.7,32.5,9.7,32.5z"/>
		<path class="st8" d="M15.9,40.3l2.7-1.5L30,41.1c0,0,3.6,0.8,5.8,0s13-5.5,13-5.5s1.8-0.5,1.1-2.3c-0.7-1.7-2.5-1.1-2.5-1.1
			L39,35.8c-0.1,0-0.2,0-0.2,0.1c-0.9,0.4-2.9,0.2-4.8,0c-2.1-0.1-7.2-0.4-7.2-0.4s-0.5,0-0.5-0.6c0.1-0.6,1.7-0.4,1.7-0.4l8.4,0.4
			c0,0,0.2,0,0.5-0.1c0.5-0.2,1.3-0.8,1.1-1.9c-0.2-1.6-1.2-2.1-2.7-2.1s-7.9-1.3-9.3-1.9c-1.3-0.5-3.6-1.7-5.9-1.4
			c-2.2,0.3-3.8,0.9-5.6,2c-1.9,1.1-3.4,2.1-3.4,2.1L15.9,40.3z"/>
		<path class="st8" d="M39.5,32.4v1.7l7.2-2.7c0,0-0.6-1-2.4-0.5C42.4,31.3,39.5,32.4,39.5,32.4z"/>
		<path class="st8" d="M39,31.2l4.5-1.3c0,0-0.7-0.6-2.9-0.2s-2.5,0.5-2.5,0.5L39,31.2z"/>
		<path class="st12" d="M28.1,28.3c0,0,6.6,0.3,9.5-3.3s3.4-6.8,2.8-10.8c0,0-3.7-1.3-8.5,1c-2.4,1.2-6.1,3.9-5.8,11.4l3.8-2
			L28.1,28.3z"/>
		<path class="st12" d="M30,15c0,0-4.3,2.1-4.8,7.1c0,0-3-1.8-1.9-8.1C23.3,14,27.6,13.3,30,15z"/>
		<polygon class="st13" points="29,26.3 31.6,23.6 34.7,22.9 32.3,22.9 35.6,19.2 36.7,18.8 35.9,18.8 38.2,16.3 36.8,17.5 
			36.7,17.1 36.5,17.7 33.5,20.5 33.3,19.2 32.9,20.9 28.1,25.5 29.9,24.5 		"/>
	</g>
</g>
<g id="icon_6" class="st0">
	<path class="st14" d="M20.5,16.3c0,0,0.5,4.1,5.7,3.9c0,0,0.5-4.3,3.8-5.2c3.3-0.9,9,0.6,11.4,4.1c2.4,3.4,4.7,8.3-0.7,17.6
		c-4.1,7.2-15.8,8.8-18.1,5.3c-0.5-0.8-0.4-1.8-0.4-1.8s-1.7,0.5-1.9,2.1c-0.2,1.5-0.6,1.6-0.9,1.6c-0.4,0-3.8,0-3.8,0
		s-0.8-0.4-0.6-1.5c0.2-1.2,1.4-6.9,6.8-7.3c3.1-0.3,3.9,0,4-3c0.1-2.6,0-6.4,0-6.4s-5.3,0.5-7.9-2.7S15,15.9,15,15.9s0-1,0.9-1
		s3.7,0,3.7,0s0.6,0.1,0.7,1L20.5,16.3z"/>
	<path class="st15" d="M30.7,30.3c0,0,3.5,0.6,5.7-0.3c2.1-1,2.9-1.7,3.8-1.4c0.9,0.4,1.3,1.4,0.9,3.6c-0.4,2.2-3.9,7-8.8,8.9
		s-7.5,0.9-8.5-1.4c-0.4-0.9,0.1-2.1,2.3-3.2c2.2-1.1,1.9-2.8,1.8-3.8s-0.2-2.3,0.6-2.5C29.2,30,30.7,30.3,30.7,30.3z"/>
	<circle class="st14" cx="30.8" cy="33.6" r="0.9"/>
	<circle class="st14" cx="35.4" cy="34.5" r="0.4"/>
	<circle class="st14" cx="30.9" cy="36.7" r="0.4"/>
	<circle class="st14" cx="31.4" cy="39.4" r="0.3"/>
	<circle class="st14" cx="27.6" cy="39.1" r="0.5"/>
</g>
<g id="icon_7" class="st0">
	<g class="st1">
		<g>
			<g>
				<path id="SVGID_1_" class="st7" d="M29.1,17.1c0,0,4.1-3,8.2-2.8s7.4,2.1,8.7,5.5c1.4,3.4,0.7,8.1-4,14.2S29.1,47.1,29.1,47.1
					S19.9,39.9,15,32.6s-4.2-11.8-2.2-14.3s5.2-4.3,8.3-4C24.2,14.6,26.1,15.2,29.1,17.1z"/>
			</g>
			<g>
				<g>
					<g>
						<g>
							<g>
								<g>
									<g>
										<g>
											<g>
												<g>
													<defs>
														<path id="SVGID_2_" d="M29.1,17.1c0,0,4.1-3,8.2-2.8s7.4,2.1,8.7,5.5c1.4,3.4,0.7,8.1-4,14.2S29.1,47.1,29.1,47.1
															S19.9,39.9,15,32.6s-4.2-11.8-2.2-14.3s5.2-4.3,8.3-4C24.2,14.6,26.1,15.2,29.1,17.1z"/>
													</defs>
													<clipPath id="SVGID_4_">
														<use xlink:href="#SVGID_2_"  style="overflow:visible;"/>
													</clipPath>
													<polyline class="st16" points="13.5,31.6 19.9,31.6 22.5,29.2 26.2,34.5 31.4,25.3 35.9,31.7 44.6,31.6 													
														"/>
												</g>
											</g>
										</g>
									</g>
								</g>
							</g>
						</g>
					</g>
				</g>
			</g>
		</g>
	</g>
</g>
<g id="icon_8" class="st0">
	<path class="st17" d="M16.5,40.2v2.7c0,0-0.2,2.3,2.2,0.8c1.2-0.8,1.2-1.8,2.6-1.8s1-0.9,1.9-1.1c0.9-0.2,1-1.3,1-1.3
		s0.1-0.9,1.5-0.4c0.7,0.3,2-0.8,2.4-0.8c0.3-0.1,1.3-0.5,1.9,0c0.6,0.5,0,0.9,0.8,1.2c0.4,0.1,1.2-0.7,1.7-0.4s0.8,1.6,1.6,2.1
		s1.9,0.2,2.2,0.4s1.3,2.9,3.2,2.6c1.9-0.2,2-1.6,1.5-3.7c-0.5-2.1-8.6-8.5-8.6-8.5s-4-1.5-6.4,0.4C23.5,34,16.5,40.2,16.5,40.2z"/>
	<path class="st18" d="M35.3,15.9c0,0,5.5,3.8,6.8,11.5c0.9,5.4,0.9,8.9,0,11.9c-0.9,2.9-4,1.6-4.7,0.8s-5.2-3.9-5.2-3.9
		s-3.1-2.4-2.6-6.4S31.4,18,31.4,18S31.9,13.9,35.3,15.9z"/>
	<path class="st18" d="M25.4,20.2l1.2-1.5c0,0,0.5-0.5,0.4-1.4s0-7,0-7s-0.1-0.5,0.8-0.5s1.6,0,1.6,0s0.3,0.2,0.3,0.6c0,0.5,0,7,0,7
		s0.2,1.9,1.8,2.3c1.6,0.5,2.1,2.7,2.1,2.7l-1,0.7l-1.5-0.3l-1.3-1.5c0,0-0.6-0.6-0.9-0.7s-0.8,0-1.3,0.4s-1.7,1.5-1.7,1.5l-0.7-1.6
		L25.4,20.2z"/>
	<path class="st18" d="M21.7,15.9c0,0-5.5,3.8-6.8,11.5c-0.9,5.4-0.9,8.9,0,11.9s4,1.6,4.7,0.8s5.2-3.9,5.2-3.9s3.1-2.4,2.6-6.4
		S25.6,18,25.6,18S25.1,13.9,21.7,15.9z"/>
</g>
<g id="icon_9" class="st0">
	<path class="st14" d="M23,28.6c0,0,2.2-1.1,2.3-3.2c0.1-2.3-0.8-3.5-1.8-4.8s-2.4-5.9,0.6-7.9s6.1-1,7.2,0c0.6,0.6,2.5,3.3,1.3,6.5
		c-0.8,2.1-2.4,3.4-2.6,5s0.1,3.1,2.3,4.4l0.9,0.7H22.6L23,28.6z"/>
	<path class="st18" d="M37.9,32.3h-20c-1,0-1.9-0.8-1.9-1.9l0,0c0-1,0.8-1.9,1.9-1.9h20c1,0,1.9,0.8,1.9,1.9l0,0
		C39.7,31.5,38.9,32.3,37.9,32.3z"/>
	<path class="st18" d="M27.8,34.5L27.8,34.5c-0.8,0-1.5-0.7-1.5-1.5v-2.1c0-0.8,0.7-1.5,1.5-1.5l0,0c0.8,0,1.5,0.7,1.5,1.5V33
		C29.4,33.8,28.7,34.5,27.8,34.5z"/>
	<path class="st18" d="M24.1,31.9c0,0-2.6,3.6-1.2,7.3c1.4,3.8,4.2,4.2,4.9,4.2s5.5-0.6,5.5-6.8c0-2.3-1.6-4.9-1.6-4.9h2.6
		c0,0,1.4,1.2,2,3.4c0.5,1.8,1.1,5.1-1.9,8.9s-9.5,2.6-11.4,1.4c-2-1.4-4.4-3.9-4-8.6c0.3-3.4,2.6-5.5,2.6-5.5L24.1,31.9z"/>
</g>
<g id="icon_10" class="st0">
	<path class="st18" d="M24.1,47.6c0.1,0.9,0.9,0.7,1.3,0.7h9.4c0,0,0.7,0.3,0.7-1v-4.9c0-0.1,0-0.2,0-0.3c0.2-0.7,0.9-3.4,1.7-4.3
		c1.3-1.5,1.3-5.2,1.3-5.2l0.2-17.3c0,0-0.1-1.7-1.7-1.8c-1.6-0.1-1.7,1.5-1.7,1.5l-0.2,7.9c0,0-0.1,0.8-0.6,0.8
		c-0.6,0-0.7-0.6-0.6-1S34,11.4,34,11.4s-0.1-1.2-1.8-1.3s-1.6,1.7-1.6,1.7v10c0,0,0,0.8-0.6,0.7c-0.7,0-0.5-1.2-0.5-1.2V10.2
		c0,0-0.1-1.4-2-1.4s-1.8,2-1.8,2l-0.2,11.3c0,0,0,0.5-0.5,0.5s-0.4-1-0.4-1v-9c0,0,0-1.6-1.7-1.5c-1.1,0-1.3,0.8-1.3,1.6v8
		c0,0.2,0,0.3,0.1,0.5L22,22c0,0.1,0.1,0.2,0.1,0.3l2.5,3.5c0,0,0.5,0.6,0.9,0.5s3.8,0.6,5,1.1c1,0.5,2,0.7,2,0.7s0.9,0.4,0.5,1.5
		c-0.2,0.6-1.7,0.3-1.7,0.3l-1.1-0.3v0.3l3.8,4.6c0,0,0.4,0.7-0.2,1.1c-0.6,0.4-1.1-0.2-1.1-0.2l-2.4-3.1c0,0-0.5-0.1-0.4,0.3
		c0.1,0.5,3.3,4.1,3.3,4.1s0.3,0.6-0.2,1c-0.2,0.2-0.8,0.3-1.2-0.1c-0.3-0.3-3.1-4-3.1-4s-0.5-0.2-0.4,0.3l2.8,3.6
		c0,0,0.4,0.7,0,1.1c-0.4,0.4-0.9,0.2-1.3-0.3c-0.4-0.4-3.1-3.9-3.1-3.9s-0.5-0.2-0.5,0.3l2.2,2.8c0,0,0.4,0.6-0.1,1s-1,0.3-1.5-0.3
		c-0.5-0.5-4.2-5.5-4.8-6.3c-0.1-0.1-0.1-0.2-0.1-0.2c-0.2-0.4-0.6-1.5-0.6-2.4c0-0.3-0.1-0.5-0.2-0.8l-3.3-4.4c0,0-1.1-1.2-2.6-0.3
		c-1.5,0.9-0.5,3-0.4,3.3s5.1,8,5.1,8s2,2.9,2.7,3.9c0.7,1.1,1.7,2.1,1.6,4.4c-0.1,1.7-0.1,2.9-0.1,3.5C24.1,47,24.1,47.6,24.1,47.6
		z"/>
</g>
<g id="icon_11" class="st0">
	<circle class="st18" cx="11.4" cy="31.6" r="3.3"/>
	<circle class="st18" cx="27.9" cy="14.6" r="3.4"/>
	<path class="st18" d="M24.6,16.9c0,0,1.3,2.3,3.6,2c2.2-0.3,3-1.8,3-1.8s1.2,0,1.6,0.5c0.4,0.4,0.7,0.5,1.1,1.8
		c0.4,1.3,1.5,4.8,1.5,4.8l4.3,1.7c0,0,0,0,0.1,0c0.3,0.1,2.1,1.1,2.2,1.2l-5.9,0.8L33.6,27c0,0-0.6-0.2-1.1-1.6
		c-0.5-1.5-1.1-2.6-1.1-2.6l0.1,3.9L25,26.8l-2.5-2.5l-0.1-2.9l-1.3,2.9l3.1,2.9c0,0,1.2,0.9,0.5,2.2C24,30.7,22,29.6,22,29.6
		l-4-3.7c0,0-0.7-0.8,0-2.4s1.9-4.4,1.9-4.4s1-2.1,2.8-2.2C24.4,16.8,24.6,16.9,24.6,16.9z"/>
	<path class="st18" d="M17.7,31.8l-0.2,4.1l-1.7,4.6c0,0-0.9,2.2,0.9,2.4s2.1-0.9,2.3-1.5c0.2-0.6,1.5-4.6,1.5-4.6l0.2-2.6l0.6-2.5
		v3.6l6.6,0.1v6c0,0,0.1,1.6,1.8,1.6c2,0,10.8,0,10.8,0s1.3-0.3,1.1-1.8s-0.6-1.9-1.5-1.9s-8.3,0.1-8.3,0.1l0.1-6.4l17.6-2
		c0,0,1.9-0.4,1.5-2c-0.4-1.6-1.4-1.6-2.3-1.6c-0.9,0-17,2-17,2s0.1-1.5-1.2-1.6s-4.7,0-4.7,0s0.3,2.5-1.3,3.1
		c-1.6,0.6-2.6-0.1-3.6-1s-1.9-2-1.9-2h-2c0,0-1.5,0.4-1.6,1.6c-0.1,1.3,0,4.2,0,4.2s0.2,1.2,1.2,1.4L17.7,31.8z"/>
	<path class="st18" d="M21.5,36.4h2l1.2,3.4c0,0,0.7,2.5-0.7,3.1c-1.4,0.6-2.4-0.3-2.8-1.6s-0.4-1.9-0.4-1.9L21.5,36.4z"/>
	<polygon class="st18" points="32.7,34 35.7,34 33.9,38.2 32.7,38.2 	"/>
</g>
<g id="icon_12" class="st0">
	<path class="st19" d="M29.3,11.8c0,0-4,7.5-0.8,15.8s1.7,13.9-1.2,17.4"/>
	<path class="st19" d="M42.6,18.8c0,0-1.6,7.2-13.9,9.5C19.8,29.9,18,32.7,14.8,37"/>
	<line class="st20" x1="29.4" y1="13.2" x2="41.8" y2="20.7"/>
	<line class="st20" x1="27.6" y1="17" x2="38.7" y2="23.6"/>
	<line class="st20" x1="27.3" y1="21.9" x2="34.3" y2="26.5"/>
	<line class="st20" x1="23.1" y1="30.4" x2="30.2" y2="34.5"/>
	<line class="st20" x1="18.7" y1="32.9" x2="29.9" y2="39"/>
	<line class="st20" x1="16" y1="35.9" x2="28.5" y2="43.2"/>
</g>
<g id="icon_13" class="st0">
	<g class="st1">
		<g>
			<path id="SVGID_3_" class="st8" d="M37.8,40.8l-0.6,0.4c-3,2.1-7.1,1.4-9.3-1.5L17.6,25.1c-2.1-3-1.4-7.1,1.5-9.3l0.6-0.4
				c3-2.1,7.1-1.4,9.3,1.5l10.4,14.5C41.5,34.5,40.8,38.6,37.8,40.8z"/>
		</g>
		<g>
			<g>
				<g>
					<g>
						<g>
							<g>
								<g>
									<g>
										<g>
											<g>
												<defs>
													<path id="SVGID_6_" d="M37.5,41.3l-0.6,0.4c-3,1.9-7.2,0.8-9.1-2.3l-9.1-15.5c-1.9-3-0.8-7.2,2.3-9.1l0.7-0.4
														c3-1.9,7.2-0.8,9.1,2.3l9,15.3C41.8,35.2,40.6,39.3,37.5,41.3z"/>
												</defs>
												<clipPath id="SVGID_7_">
													<use xlink:href="#SVGID_6_"  style="overflow:visible;"/>
												</clipPath>
												
													<rect x="19" y="27.7" transform="matrix(0.814 -0.5809 0.5809 0.814 -15.7395 25.6092)" class="st21" width="26.2" height="19.3"/>
											</g>
										</g>
									</g>
								</g>
							</g>
						</g>
					</g>
				</g>
			</g>
		</g>
	</g>
	<path class="st22" d="M20.3,19.2c0,0-2.2,1.2-0.4,3.9"/>
</g>
<g id="icon_14" class="st0">
	<path class="st17" d="M12.5,27.8h0.1h27.1L32,23.5c0,0-1.9-0.9-3.4-0.3s-2.1,1.2-3,0.8c-1.2-0.6-2.1-0.8-2.1-0.8s-1.7-0.4-2.9,0.2
		C19.3,24,12.5,27.8,12.5,27.8z"/>
	<path class="st18" d="M39.7,27.8l-6.5,5.4c0,0-2.1,1.5-4,1.3c-1.9-0.2-1.7-0.7-2.6-1c-0.8-0.3-1.4-0.3-2.5,0.4
		c-0.6,0.4-1.2,0.8-2.5,0.6S19,33.3,18,32.4c-1-0.9-5.4-4.6-5.4-4.6H39.7z"/>
	<path class="st18" d="M40.3,18.3c0,0,0.1,2-1.7,2.3c0,0,1.6,0.1,1.7,2.1c0,0,0.1-2.1,1.8-2.1C42.1,20.6,40.3,20.3,40.3,18.3z"/>
	<path class="st18" d="M37.3,12.2c0,0,0.1,1.5-1.3,1.7c0,0,1.2,0.1,1.3,1.6c0,0,0.1-1.5,1.4-1.5C38.7,13.9,37.4,13.7,37.3,12.2z"/>
	<path class="st18" d="M42,7.2c0,0,0.1,2.1-1.8,2.3c0,0,1.7,0.1,1.8,2.2c0,0,0.1-2.1,1.9-2.1C43.9,9.6,42.1,9.3,42,7.2z"/>
	<g id="icon_3_1_" class="st1">
		<g>
			
				<rect x="37.1" y="34.9" transform="matrix(0.7214 -0.6925 0.6925 0.7214 -16.9765 38.145)" class="st8" width="3.6" height="10.5"/>
			
				<rect x="34" y="35.3" transform="matrix(0.7214 -0.6925 0.6925 0.7214 -15.1619 34.1583)" class="st8" width="1.7" height="1.2"/>
			<path class="st8" d="M34.7,35.7L34.7,35.7c-0.1,0.1-0.2,0.1-0.3,0l-2.8-3c-0.1-0.1-0.1-0.2,0-0.3l0,0c0.1-0.1,0.2-0.1,0.3,0
				l2.8,3C34.7,35.5,34.7,35.6,34.7,35.7z"/>
			<path class="st8" d="M40.7,45.7l3.7-3.5c0.1-0.1,0.3-0.1,0.4,0l0,0c0.1,0.1,0.1,0.3,0,0.4l-3.7,3.5c-0.1,0.1-0.3,0.1-0.4,0l0,0
				C40.6,46,40.6,45.8,40.7,45.7z"/>
			<path class="st8" d="M42.5,46.4l2.6-2.5c0.1-0.1,0.3-0.1,0.4,0l0,0c0.1,0.1,0.1,0.3,0,0.4l-2.6,2.5c-0.1,0.1-0.3,0.1-0.4,0l0,0
				C42.4,46.8,42.4,46.6,42.5,46.4z"/>
			<rect x="42.8" y="44.5" transform="matrix(0.7214 -0.6925 0.6925 0.7214 -19.0385 42.717)" class="st8" width="1.5" height="1"/>
			<path class="st9" d="M41.7,42.1l0.8-0.8l0.3,0.3L42,42.4c-0.1,0.1-0.2,0.1-0.3,0l0,0C41.6,42.3,41.6,42.2,41.7,42.1z"/>
			<path class="st9" d="M40.7,41l0.8-0.7l0.3,0.3L41,41.4c-0.1,0.1-0.2,0.1-0.3,0l0,0C40.6,41.3,40.6,41.1,40.7,41z"/>
			<path class="st9" d="M39.7,40l0.8-0.8l0.3,0.3L40,40.3c-0.1,0.1-0.2,0.1-0.3,0l0,0C39.6,40.2,39.6,40.1,39.7,40z"/>
			<path class="st9" d="M38.7,39l0.8-0.8l0.3,0.3L39,39.3c-0.1,0.1-0.2,0.1-0.3,0l0,0C38.6,39.2,38.6,39,38.7,39z"/>
			<path class="st9" d="M37.7,37.9l0.8-0.8l0.3,0.3L38,38.2c-0.1,0.1-0.2,0.1-0.3,0l0,0C37.6,38.1,37.6,38,37.7,37.9z"/>
			<path class="st9" d="M36.7,36.8l0.8-0.8l0.3,0.3L37,37.1c-0.1,0.1-0.2,0.1-0.3,0l0,0C36.6,37.1,36.6,36.9,36.7,36.8z"/>
		</g>
	</g>
</g>
<g id="icon_15_1_" class="st0">
	<g class="st1">
		<g>
			<g>
				<path id="SVGID_5_" class="st7" d="M25.1,21.4c0,0,3.1-2.3,6.2-2.1c3.1,0.2,5.6,1.6,6.6,4.1s0.5,6.2-3,10.8
					c-3.6,4.6-9.8,9.9-9.8,9.9s-7-5.4-10.7-11s-3.2-9-1.7-10.9s3.9-3.3,6.3-3C21.4,19.5,22.8,20,25.1,21.4z"/>
			</g>
			<g>
				<g>
					<g>
						<g>
							<g>
								<g>
									<g>
										<g>
											<g>
												<g>
													<defs>
														<path id="SVGID_8_" d="M25.1,21.4c0,0,3.1-2.3,6.2-2.1c3.1,0.2,5.6,1.6,6.6,4.1s0.5,6.2-3,10.8
															c-3.6,4.6-9.8,9.9-9.8,9.9s-7-5.4-10.7-11s-3.2-9-1.7-10.9s3.9-3.3,6.3-3C21.4,19.5,22.8,20,25.1,21.4z"/>
													</defs>
													<clipPath id="SVGID_9_">
														<use xlink:href="#SVGID_8_"  style="overflow:visible;"/>
													</clipPath>
													<polyline class="st23" points="13.3,32.4 18.1,32.4 20.1,30.5 22.9,34.6 26.8,27.6 30.2,32.4 36.8,32.4 													
														"/>
												</g>
											</g>
										</g>
									</g>
								</g>
							</g>
						</g>
					</g>
				</g>
			</g>
		</g>
	</g>
	<path class="st18" d="M36.4,10.2l-8.1,14c-0.4,0.7,0.1,1.6,0.9,1.6h16.3c0.8,0,1.4-0.9,0.9-1.6l-8.1-14
		C37.9,9.5,36.9,9.5,36.4,10.2z"/>
	<path class="st24" d="M37.4,21L37.4,21c-0.3,0-0.6-0.3-0.6-0.6v-5.7c0-0.3,0.3-0.6,0.6-0.6l0,0c0.3,0,0.6,0.3,0.6,0.6v5.7
		C38,20.7,37.8,21,37.4,21z"/>
	<path class="st24" d="M37.4,23.9L37.4,23.9c-0.3,0-0.6-0.3-0.6-0.6V23c0-0.3,0.3-0.6,0.6-0.6l0,0c0.3,0,0.6,0.3,0.6,0.6v0.3
		C38,23.6,37.8,23.9,37.4,23.9z"/>
</g>
<g id="icon_16" class="st0">
	<path class="st24" d="M33.6,15.2c0,0,4.1-0.9,6,0c2.3,1.1,4.1,3.9,2.8,8.7s-2.3,8.8-2.6,12.9c-0.4,4.1-3.3,6.8-5.2,7.1
		c-1.9,0.4-3.3-1.6-2.9-3.1c0.4-1.5,0.9-5.9,0.8-7c-0.2-2.1-1.2-3.8-2.9-3.8c-1.7,0-2.5,0.9-2.9,1.9c-0.4,1.1-1.1,5.2-0.6,7.1
		c0.4,1.9,0.2,4.7-1.6,4.8S19.3,42,18,34s-2-9.8-2.3-10.9c-1-3.7,0-8.4,4.1-8.7c4.1-0.3,7.4,1.5,8.8,1.6
		C29.9,16.3,32.1,15.5,33.6,15.2z"/>
	<path class="st17" d="M26.2,19.2c0,0,2.4,1.3,3.4,0.9c1-0.5,3.2-1.7,5.8-0.4C38,21,38,22.5,38,22.5s0.8,2.8-0.6,5.1s-1,6.9-1,6.9
		s0.1,1.6-0.7,1.6c-0.7,0-1.2-1.5-1.2-1.8s-0.8-6-4.6-6.7s-4.5,2.9-5,4.2c-0.3,0.9-0.6,3.6-0.6,3.6s-0.2,1.3-0.9,1.2
		c-0.7-0.1-0.9-1.5-0.9-4.7s-1-3.6-1.5-5.5s-0.4-5.2,1.5-6.6C24.3,18.4,26.2,19.2,26.2,19.2z"/>
	<path class="st18" d="M14.7,9.5c0,0,0.1,2.1-1.8,2.3c0,0,1.7,0.1,1.8,2.2c0,0,0.1-2.1,1.9-2.1C16.6,11.8,14.8,11.6,14.7,9.5z"/>
	<path class="st18" d="M45,36.4c0,0,0.1,2.1-1.8,2.4c0,0,1.7,0.1,1.8,2.2c0,0,0.1-2.2,1.9-2.2C46.9,38.8,45.1,38.5,45,36.4z"/>
	<path class="st18" d="M46.9,9.2c0,0,0,1.1-0.9,1.3c0,0,0.9,0,0.9,1.2c0,0,0.1-1.2,1-1.2C47.9,10.5,46.9,10.3,46.9,9.2z"/>
</g>
<g id="icon_17" class="st0">
	<path class="st18" d="M28,13c0,0,5.2-0.8,8.3,1.3c3.1,2,5.1,4.2,5.6,7.4s-0.2,7.1-1.7,9.5s-2.4,3.9-2.6,4.3
		c-0.1,0.4-0.8,2.3-0.3,4.9s0.8,3,0.8,3l-14.3,0.3v-3c0,0-4.5,0.1-5.6-0.8c-1.1-0.9-1.1-1.9-0.8-2.5c0.2-0.6,0-0.7,0-0.8
		c0,0-0.6-0.3-0.6-0.9c0-0.4,0.4-0.5,0.4-0.5S17.1,35,17,35c-0.1-0.1-0.6-0.2-0.6-0.7s0.3-2.6,0.3-2.6s-1.6-0.2-1.8-1.2
		c-0.1-1,0.7-2.2,1.1-2.7s2.1-2.5,2.1-2.5s-0.6-5,1.1-7.3S22.6,13.6,28,13z"/>
	<circle class="st24" cx="24.7" cy="27.6" r="1.1"/>
	<circle class="st24" cx="28" cy="29" r="0.6"/>
	<circle class="st24" cx="26.7" cy="31.5" r="0.7"/>
	<circle class="st24" cx="25.3" cy="34" r="1"/>
	<circle class="st24" cx="22.5" cy="31.5" r="0.6"/>
	<circle class="st24" cx="22.3" cy="28.9" r="0.6"/>
</g>
<g id="icon_18" class="st0">
	<path class="st18" d="M35.3,35.5H20.2c-1.1,0-2-0.9-2-2V13.9c0-1.1,0.9-2,2-2h15.1c1.1,0,2,0.9,2,2v19.6
		C37.3,34.6,36.4,35.5,35.3,35.5z"/>
	<path class="st24" d="M32.6,25.4H23c-1.1,0-2-0.9-2-2v-6.9c0-1.1,0.9-2,2-2h9.6c1.1,0,2,0.9,2,2v6.9C34.6,24.6,33.7,25.4,32.6,25.4
		z"/>
	<path class="st24" d="M28.7,32h-2c-1,0-1.8-0.8-1.8-1.8l0,0c0-1,0.8-1.8,1.8-1.8h2c1,0,1.8,0.8,1.8,1.8l0,0
		C30.4,31.1,29.6,32,28.7,32z"/>
	<path class="st18" d="M28.1,40.1h-0.8c-1.1,0-2-0.9-2-2v-3.3c0-1.1,0.9-2,2-2h0.8c1.1,0,2,0.9,2,2v3.3
		C30.1,39.1,29.2,40.1,28.1,40.1z"/>
	<path class="st18" d="M27.7,44.7L27.7,44.7c-0.3,0-0.5-0.2-0.5-0.5v-4.7c0-0.3,0.2-0.5,0.5-0.5l0,0c0.3,0,0.5,0.2,0.5,0.5v4.7
		C28.2,44.6,28,44.7,27.7,44.7z"/>
	<path class="st17" d="M35.3,18.2c0,0,1.9,1.4,2.9,3.1c0.8,1.5,1.1,4.5-1.9,5.2c-2.7,0.7-4.3-1.8-4.3-3
		C32.1,22.8,32.3,20.3,35.3,18.2z"/>
	<path class="st22" d="M36.8,21.6c0,0,1.6,2.3,0.3,3.6"/>
</g>
<g id="icon_19" class="st0">
	<g class="st1">
		<g>
			<path id="SVGID_10_" class="st8" d="M33.3,42.2H16.1c-1.1,0-2-0.9-2-2V19.1c0-1.1,0.9-2,2-2h17.2c1.1,0,2,0.9,2,2v21.1
				C35.3,41.3,34.4,42.2,33.3,42.2z"/>
		</g>
		<g>
			<g>
				<g>
					<g>
						<g>
							<g>
								<g>
									<g>
										<defs>
											<path id="SVGID_11_" d="M33.3,42.2H16.1c-1.1,0-2-0.9-2-2V19.1c0-1.1,0.9-2,2-2h17.2c1.1,0,2,0.9,2,2v21.1
												C35.3,41.3,34.4,42.2,33.3,42.2z"/>
										</defs>
										<clipPath id="SVGID_13_">
											<use xlink:href="#SVGID_11_"  style="overflow:visible;"/>
										</clipPath>
										<path class="st25" d="M29.2,20.7h-8.9c-1,0-1.8-0.8-1.8-1.8v-1.3c0-1,0.8-1.8,1.8-1.8h8.9c1,0,1.8,0.8,1.8,1.8v1.3
											C30.9,19.9,30.2,20.7,29.2,20.7z"/>
									</g>
								</g>
							</g>
						</g>
					</g>
				</g>
			</g>
		</g>
	</g>
	<path class="st18" d="M25.1,19l-0.6,0.2c-1.1,0-1.7,0.9-1.7-0.2v-3.3c0-1.1,0.9-2,2-2l0,0c1.1,0,2,0.9,2,2V19
		C26.7,20.1,26.1,19,25.1,19z"/>
	<path class="st24" d="M30.9,39.8H18.6c-1.1,0-2-0.9-2-2V22.1c0-1.1,0.9-2,2-2H31c1.1,0,2,0.9,2,2v15.7C32.9,38.9,32,39.8,30.9,39.8
		z"/>
	<path class="st18" d="M28.8,19.7h-8.2c-1,0-1.8-0.8-1.8-1.8v-0.5c0-1,0.8-1.8,1.8-1.8h8.2c1,0,1.8,0.8,1.8,1.8v0.5
		C30.6,18.9,29.8,19.7,28.8,19.7z"/>
	<path class="st24" d="M27.8,19h-6c-0.3,0-0.6-0.3-0.6-0.6l0,0c0-0.3,0.3-0.6,0.6-0.6h6c0.3,0,0.6,0.3,0.6,0.6l0,0
		C28.4,18.7,28.1,19,27.8,19z"/>
	<path class="st24" d="M24.9,16h-0.4c-0.2,0-0.4-0.2-0.4-0.4l0,0c0-0.2,0.2-0.4,0.4-0.4h0.4c0.2,0,0.4,0.2,0.4,0.4l0,0
		C25.4,15.8,25.2,16,24.9,16z"/>
	<path class="st18" d="M29.3,25.4h-8.5c-0.3,0-0.6-0.3-0.6-0.6l0,0c0-0.3,0.3-0.6,0.6-0.6h8.5c0.3,0,0.6,0.3,0.6,0.6l0,0
		C29.9,25.2,29.6,25.4,29.3,25.4z"/>
	<path class="st18" d="M29.3,28.8h-8.5c-0.3,0-0.6-0.3-0.6-0.6l0,0c0-0.3,0.3-0.6,0.6-0.6h8.5c0.3,0,0.6,0.3,0.6,0.6l0,0
		C29.9,28.5,29.6,28.8,29.3,28.8z"/>
	<path class="st18" d="M29.3,32.2h-8.5c-0.3,0-0.6-0.3-0.6-0.6l0,0c0-0.3,0.3-0.6,0.6-0.6h8.5c0.3,0,0.6,0.3,0.6,0.6l0,0
		C29.9,31.9,29.6,32.2,29.3,32.2z"/>
	<path class="st17" d="M36.4,32.2c0,0,1.7-0.8,3.3-0.5s3.5,1.7,3.2,5.9s-3,5.1-3.7,5.3c-0.7,0.1-1.9,0-2.7-0.3c-0.1,0-0.7,0.1-1,0.2
		c-0.2,0.1-2.1,0.6-3.7-1.4c-1.6-2-2.3-4.1-1.8-6.4s2.5-3.6,4.3-3.3C35.1,31.7,36.2,32.2,36.4,32.2z"/>
	<g class="st1">
		<g>
			<path id="SVGID_12_" class="st12" d="M41.7,26.6c0,0,0.1,2.3-0.9,3.3c-1.5,1.4-3.7,1-3.8,1c0,0-0.4-2.4,1.2-3.5
				C39.6,26.5,41.7,26.6,41.7,26.6z"/>
		</g>
		<g>
			<g>
				<g>
					<g>
						<g>
							<g>
								<g>
									<g>
										<defs>
											<path id="SVGID_14_" d="M41.7,26.6c0,0,0.1,2.3-0.9,3.3c-1.5,1.4-3.7,1-3.8,1c0,0-0.4-2.4,1.2-3.5
												C39.6,26.5,41.7,26.6,41.7,26.6z"/>
										</defs>
										<clipPath id="SVGID_15_">
											<use xlink:href="#SVGID_14_"  style="overflow:visible;"/>
										</clipPath>
										<polygon class="st26" points="42.5,26 36.6,31.1 38.6,31.9 43.4,28.7 										"/>
									</g>
								</g>
							</g>
						</g>
					</g>
				</g>
			</g>
		</g>
	</g>
</g>
<g id="icon_20" class="st0">
	<path class="st18" d="M28.3,12.5c0,0,6.5-0.4,8.1,5.3c0.2,0.7,0.1,3.8-0.4,5.2c0,0,0,0.3,0.5,0.2c0.5-0.1,1.4,0.1,0.8,1.9
		c-0.6,1.8-1.5,2.8-1.5,2.8s-0.7,0.1-0.7-0.2s-0.2,0.2-0.6,1.1c-0.4,0.9-0.8,2.5-2.2,3.9v1.9c0,0,0.1,1.7,2.1,2.6
		c2,0.9,3.4,1.4,4.4,1.4c1.1,0,6.4,2,7.3,4.1c0.4,0.8,0.6,1.4-0.7,1.5c-1.2,0-34.2,0-34.2,0s-1.1-0.1-0.1-1.4s2-3.4,7.3-4.2
		c0.6-0.1,5.9-1.3,6.2-3.1c0.3-1.7,0.1-2.6,0.1-2.6s-1.6-1.7-2.6-5.1c0,0-0.2-0.1-0.3,0.1c-0.1,0.2-0.9,0.2-1.5-1.1
		c-0.6-1.2-1.1-2.6-0.6-3.3c0.6-0.6,1.1-0.2,1.1-0.2s0.1,0,0.1-0.2s-0.9-4.4-0.3-5.9C21.1,15.5,22.7,12.9,28.3,12.5z"/>
	<path class="st17" d="M28,35.4c0,0,0.5-0.6,1.1-0.1c0,0,0.6-2.2,1.4-2.6c0.4-0.2,0.4,0.2,0.4,0.7s0.7,1.6,0.7,2.4
		c0,0.8-0.1,1.9-1.4,1.9c-0.6,0-1-0.3-1.1-0.5s-0.6-0.2-0.9,0c-0.4,0.2-1,1.1-2,0.2c-1-0.9-0.2-3.4-0.1-3.5c0-0.1,0.2-0.4,0.2-1.2
		c0-0.3,0.4-0.2,1,0.5C27.8,33.8,28,34.7,28,35.4z"/>
</g>
<g id="icon_21" class="st0">
	<path class="st24" d="M33,18.1c0,0,4.1-0.9,6,0c2.3,1.1,4.1,3.9,2.8,8.7s-2.3,8.8-2.6,12.9c-0.4,4.1-3.3,6.8-5.2,7.1
		c-1.9,0.4-3.3-1.6-2.9-3.1c0.4-1.5,0.9-5.9,0.8-7c-0.2-2.1-1.2-3.8-2.9-3.8c-1.7,0-2.5,0.9-2.9,1.9c-0.4,1.1-1.1,5.2-0.6,7.1
		c0.4,1.9,0.2,4.7-1.6,4.8s-5.2-1.8-6.5-9.8s-2-9.8-2.3-10.9c-1-3.7,0-8.4,4.1-8.7s7.4,1.5,8.8,1.6C29.3,19.2,31.5,18.4,33,18.1z"/>
	<path class="st17" d="M25.6,22.1c0,0,2.4,1.3,3.4,0.9c1-0.5,3.2-1.7,5.8-0.4c2.6,1.3,2.6,2.8,2.6,2.8s0.8,2.8-0.6,5.1s-1,6.9-1,6.9
		s0.1,1.6-0.7,1.6c-0.7,0-1.2-1.5-1.2-1.8s-0.8-6-4.6-6.7s-4.5,2.9-5,4.2c-0.3,0.9-0.6,3.6-0.6,3.6s-0.2,1.3-0.9,1.2
		c-0.7-0.1-0.9-1.5-0.9-4.7s-1-3.6-1.5-5.5s-0.4-5.2,1.5-6.6C23.7,21.3,25.6,22.1,25.6,22.1z"/>
	<path class="st18" d="M34.2,32.3L34.2,32.3c-0.3,0.1-0.7,0-0.8-0.3l-10-21.5c-0.1-0.3,0-0.7,0.3-0.8l0,0c0.3-0.1,0.7,0,0.8,0.3
		l10,21.5C34.6,31.8,34.5,32.2,34.2,32.3z"/>
	<path class="st24" d="M32.5,23.9l-3.7,1.7c-0.2,0.1-0.5,0-0.5-0.2l0,0c-0.1-0.2,0-0.5,0.2-0.5l3.7-1.7c0.2-0.1,0.5,0,0.5,0.2l0,0
		C32.8,23.6,32.7,23.8,32.5,23.9z"/>
	<path class="st24" d="M33.6,26.2l-3.7,1.7c-0.2,0.1-0.5,0-0.5-0.2l0,0c-0.1-0.2,0-0.5,0.2-0.5l3.7-1.7c0.2-0.1,0.5,0,0.5,0.2l0,0
		C33.9,25.9,33.8,26.1,33.6,26.2z"/>
	<path class="st24" d="M34.6,28.5l-3.7,1.7c-0.2,0.1-0.5,0-0.5-0.2l0,0c-0.1-0.2,0-0.5,0.2-0.5l3.7-1.7c0.2-0.1,0.5,0,0.5,0.2l0,0
		C34.9,28.2,34.8,28.4,34.6,28.5z"/>
</g>
<g id="icon_22_1_" class="st0">
	<circle class="st18" cx="28.3" cy="20.6" r="6.3"/>
	<path class="st18" d="M15.9,42.3H41c0,0,1.5-11.3-4.9-13.4s-13.2-0.8-15-0.2s-4.1,1-4.9,7.5C15.9,40.3,15.9,42.3,15.9,42.3z"/>
	<path class="st24" d="M24,35.6v-0.7c0-0.8,0.7-1.5,1.5-1.5h6.2c0.8,0,1.5,0.7,1.5,1.5v0.7c0,0.8-0.7,1.5-1.5,1.5h-6.2
		C24.7,37.1,24,36.4,24,35.6z"/>
	<path class="st24" d="M28.3,30.6H29c0.8,0,1.5,0.7,1.5,1.5v6.2c0,0.8-0.7,1.5-1.5,1.5h-0.7c-0.8,0-1.5-0.7-1.5-1.5v-6.2
		C26.8,31.3,27.5,30.6,28.3,30.6z"/>
</g>
<g id="icon_23" class="st0">
	<path class="st27" d="M34.5,12.9c-7.6,1.4-5.4,7-5.4,8.7s-0.5,1.7-0.6,2.6s1,1.2,1,1.2s-0.4,2.2-3.6,0.2s-8.2,0.5-8.9,0.5
		s0.6-2.6,0.6-2.6c-0.6-0.8-1.8-0.2-2.9,1.4c-1.3,1.9-1.1,4.2-0.9,4.3c0.2,0.1,3.8-0.1,5.5-0.5s2.5-0.5,2.2-0.1s-1.1,1.9-1.5,2.1
		c-0.5,0.2-8.5,9.1-1,12s12.8-0.7,14.8-2.3c2.2-1.8,5.9-4.4,7.2-6.5s0.4-5.3,0.2-6.4s1.6-3.9,2-6.4C43.6,18.6,42.1,11.5,34.5,12.9z"
		/>
	<path class="st28" d="M25.5,31.4c0,0,0.6,3.4-1.5,5"/>
	<path class="st28" d="M20.8,30c0,0,1.6-2.2,1.8-3.1"/>
	<path class="st28" d="M25.5,25.7c0,0-2.2,5.3,1.1,6.5s8.6,0.6,8.6,0.6"/>
	<path class="st28" d="M29.3,26.2c0,0,0.9,0.4,1.3,1.7"/>
	<path class="st28" d="M28.4,28.8c0,0,6.1-2.3,11-0.6"/>
	<path class="st28" d="M36.7,19.3c0,0,2.3-0.1,2,1.9s-1.3,3.5-3.4,1.9"/>
</g>
<g id="icon_24" class="st0">
	<path class="st29" d="M24.6,28.7c0,0-0.1-6.4-0.6-7.4c0,0,0.8-0.1,1-0.8c0,0,1.4,1.5,1.8,1.4s4.2-3.3,4.1-4.1s-1.6-3.4-2.5-3.6
		c-0.8-0.2-0.8-0.8-2.6,0c-1.8,0.8-5.3,2.1-5.3,2.1s-1.8,0.7-2.3,2.6s-3.9,14.7-3.9,14.7s-0.5,3.2,1.9,3.4c0,0,5.2,7.5,17.9,4.3
		c0,0,6.9,2.2,7.9,1.1c1.1-1.1,0.6-2.7,0.6-2.7l0.1-10.2c0,0-0.1-2.1-2-2.5c-1.9-0.5-5.8-0.9-7.8,1.5C32.8,28.5,27.6,26.3,24.6,28.7
		z"/>
	<path class="st30" d="M22.5,21.3c0,0,2.1,0.2,2.7-1.6"/>
	<path class="st30" d="M34.7,31.7c0,0-1.2-3.2-3.4-3.7"/>
	<path class="st31" d="M24.6,28.2c0,0,0,3.2-1.7,3.7"/>
	<path class="st31" d="M20.2,35.2c0,0,3.9,4.8,10.1,3.3"/>
</g>
<g id="icon_25" class="st0">
	<path class="st18" d="M29.5,46.1h-1.7c-4.3,0-7.9-3.5-7.9-7.9v-21h17.4v21C37.3,42.5,33.8,46.1,29.5,46.1z"/>
	<path class="st18" d="M37.7,15.4H19.3c-0.7,0-1.3-0.6-1.3-1.3v-2.2c0-0.7,0.6-1.3,1.3-1.3h18.4c0.7,0,1.3,0.6,1.3,1.3v2.2
		C39,14.8,38.4,15.4,37.7,15.4z"/>
	<path class="st32" d="M25,37.2c0,0,0-7.1,3.7-7.1s3.7,4.9,3.7,7.1"/>
	<line class="st32" x1="25.2" y1="34.5" x2="32.1" y2="34.5"/>
	<path class="st32" d="M32.3,22.1c0,0,0,7.1-3.7,7.1s-3.7-4.9-3.7-7.1"/>
	<line class="st32" x1="32.1" y1="24.9" x2="25.2" y2="24.9"/>
</g>
<g id="icon_26" class="st0">
	<path class="st18" d="M32.6,21.8h-8.1c-1.3,0-2.4-1.1-2.4-2.4v-3.6c0-1.3,1.1-2.4,2.4-2.4h8.1c1.3,0,2.4,1.1,2.4,2.4v3.6
		C35,20.7,33.9,21.8,32.6,21.8z"/>
	<path class="st18" d="M42,43.1H15.1c-2.1,0-3.8-1.7-3.8-3.8V22.2c0-2.1,1.7-3.8,3.8-3.8H42c2.1,0,3.8,1.7,3.8,3.8v17.1
		C45.8,41.5,44.1,43.1,42,43.1z"/>
	<path class="st24" d="M21.6,31.5v-1.9c0-1.1,0.9-2.1,2.1-2.1h9.8c1.1,0,2.1,0.9,2.1,2.1v1.9c0,1.1-0.9,2.1-2.1,2.1h-9.8
		C22.5,33.6,21.6,32.6,21.6,31.5z"/>
	<path class="st24" d="M29.5,37.5h-1.9c-1.1,0-2.1-0.9-2.1-2.1v-9.8c0-1.1,0.9-2.1,2.1-2.1h1.9c1.1,0,2.1,0.9,2.1,2.1v9.8
		C31.6,36.6,30.7,37.5,29.5,37.5z"/>
	<rect x="22" y="17.7" class="st24" width="13" height="0.6"/>
	<path class="st24" d="M29.5,37.5h-1.9c-1.1,0-2.1-0.9-2.1-2.1v-9.8c0-1.1,0.9-2.1,2.1-2.1h1.9c1.1,0,2.1,0.9,2.1,2.1v9.8
		C31.6,36.6,30.7,37.5,29.5,37.5z"/>
</g>
<g id="icon_27" class="st0">
	<circle class="st18" cx="28.3" cy="20.6" r="6.3"/>
	<path class="st18" d="M15.9,42.3H41c0,0,1.5-11.3-4.9-13.4s-13.2-0.8-15-0.2c-1.8,0.6-4.1,1-4.9,7.5C15.9,40.3,15.9,42.3,15.9,42.3
		z"/>
	<path class="st24" d="M24.1,35.5v-0.7c0-0.8,0.7-1.5,1.5-1.5h6.2c0.8,0,1.5,0.7,1.5,1.5v0.7c0,0.8-0.7,1.5-1.5,1.5h-6.2
		C24.8,37,24.1,36.3,24.1,35.5z"/>
	<path class="st24" d="M28.3,30.6H29c0.8,0,1.5,0.7,1.5,1.5v6.2c0,0.8-0.7,1.5-1.5,1.5h-0.7c-0.8,0-1.5-0.7-1.5-1.5v-6.2
		C26.8,31.2,27.5,30.6,28.3,30.6z"/>
</g>
<g id="icon_28" class="st0">
	<path class="st18" d="M38.4,26.8"/>
	<path class="st18" d="M35.6,13.7V43h5.2V19.5C40.8,19.5,40.4,15,35.6,13.7z"/>
	<polygon class="st24" points="38.4,26.8 40.8,27.9 40.8,25.5 	"/>
	<polygon class="st24" points="35.6,28.4 40.8,30.9 40.8,33.1 35.6,30.3 	"/>
	<polygon class="st24" points="35.6,32.1 40.8,34.8 40.8,36.8 35.6,34.1 	"/>
	<circle class="st33" cx="19.4" cy="18.1" r="3.2"/>
	<circle class="st33" cx="29.3" cy="17.9" r="3.2"/>
	<path class="st18" d="M21.7,21.3v12.8c0,0,0.7,7,2.6,8.9c0,0,2.9-4.2,2.7-9V21.4l-1.4-3.2l-0.4,0.4v5.6l-1.9,0.1v-6.2l-0.8-0.2
		L21.7,21.3z"/>
	<circle class="st24" cx="24.3" cy="27" r="0.9"/>
</g>
<g id="icon_29" class="st0">
	<path class="st18" d="M37,12.5c0,2.5-2,4.4-4.4,4.4c-2.5,0-4.4-2-4.4-4.4s2-4.4,4.4-4.4S37,10,37,12.5z"/>
	<path class="st18" d="M16.3,20.8l9-4.8c0,0,0.8-0.4,1.7,0c0.9,0.4,4.9,1.8,4.9,1.8s0.9,0,1.4,2c0.5,2.1,1.7,5.7,1.7,5.7l4.7,1.9
		c0,0,1.8,0.9,1.2,3s-3.4,1-3.4,1l-6-2.7c0,0-0.4-0.1-0.6-1.1c-0.2-1-1.2-4.1-1.2-4.1L27.2,31l3.5,7l-0.5,9c0,0-0.3,1.6-2.1,1.6
		c-1.8,0-2.4-1.5-2.4-2.5c0.1-1,0.8-6.6,0.8-6.6l-3.4-6.3l0.3,6.8l-1.6,6.8c0,0-0.6,1.9-2.8,1.4s-1.3-3.5-1.3-3.5l1.2-5.1l-0.6-7.5
		l0.3-0.9L15,23C15.1,23.2,14.7,21.6,16.3,20.8z"/>
	<polygon class="st34" points="20.3,23.9 21.4,25.9 23.1,22.4 	"/>
	<path class="st18" d="M36.3,30.5L40,47.2c0,0,0.2,1,1.3,0.7c1.1-0.2,0.6-1.5,0.6-1.5l-3.4-15.8L36.3,30.5z"/>
</g>
<g id="icon_30" class="st0">
	<g class="st1">
		<g>
			<path id="SVGID_16_" class="st35" d="M45,45.6H12c-1.4,0-2.6-1.2-2.6-2.6v-7.5c0-1.4,1.2-2.6,2.6-2.6h33c1.4,0,2.6,1.2,2.6,2.6
				V43C47.6,44.4,46.4,45.6,45,45.6z"/>
		</g>
		<g>
			<g>
				<g>
					<g>
						<g>
							<g>
								<g>
									<defs>
										<path id="SVGID_17_" d="M45,45.6H12c-1.4,0-2.6-1.2-2.6-2.6v-7.5c0-1.4,1.2-2.6,2.6-2.6h33c1.4,0,2.6,1.2,2.6,2.6V43
											C47.6,44.4,46.4,45.6,45,45.6z"/>
									</defs>
									<clipPath id="SVGID_18_">
										<use xlink:href="#SVGID_17_"  style="overflow:visible;"/>
									</clipPath>
									<rect x="7" y="30.8" class="st36" width="41.5" height="5.3"/>
								</g>
							</g>
						</g>
					</g>
				</g>
			</g>
		</g>
	</g>
	<circle class="st34" cx="28.8" cy="36.3" r="3.9"/>
	<path class="st37" d="M26.6,27.6c0,0,1.8-14.4,7.6-16.5c0,0-3.9,9.4-3.4,16.1c0,0,1.2,0.7,1.2,2c0,1.5-0.6,3.1-3.2,3.1
		c-2.5,0-3.1-1.1-3.2-2.1C25.4,28.9,25.8,27.9,26.6,27.6z"/>
	<rect x="39.7" y="21.6" class="st18" width="1" height="6.1"/>
	<polyline class="st38" points="38.1,25.8 40.2,27.8 42.2,25.9 	"/>
	<rect x="16.3" y="21.6" class="st18" width="1" height="6.1"/>
	<polyline class="st38" points="14.6,25.8 16.7,27.8 18.8,25.9 	"/>
</g>
<g id="icon_31" class="st0">
	<ellipse transform="matrix(0.9934 -0.115 0.115 0.9934 -2.222 2.3552)" class="st17" cx="19.3" cy="20.4" rx="10.7" ry="9.5"/>
	<ellipse class="st17" cx="40" cy="22.5" rx="8.4" ry="8.9"/>
	<ellipse transform="matrix(0.9708 -0.2398 0.2398 0.9708 -8.4679 7.4786)" class="st17" cx="26.5" cy="38.5" rx="10.2" ry="6.9"/>
	<ellipse transform="matrix(0.9554 -0.2952 0.2952 0.9554 -5.7028 6.8985)" class="st24" cx="20" cy="22.3" rx="6.4" ry="5.5"/>
	<ellipse transform="matrix(0.9666 -0.2564 0.2564 0.9666 -4.7769 10.6352)" class="st24" cx="38.4" cy="23.6" rx="5.2" ry="6.5"/>
	<ellipse transform="matrix(0.9359 -0.3522 0.3522 0.9359 -11.4368 11.6122)" class="st24" cx="26.2" cy="37.2" rx="6.4" ry="3.7"/>
</g>
<g id="icon_32" class="st0">
	<path class="st39" d="M23.7,12.8c0,0,4.4-3.1,9.6,0l-0.9,4.7L32.1,18l-0.5-0.8c0,0-3.3-1-6.1,0L24,14.9l-0.2-1.6L23.7,12.8z"/>
	<path class="st17" d="M24.1,12.5c0,0-0.6,0.2-1,0.9s-2.2,6.5-2.2,6.5s-0.3,2.1,0.2,2.7s3.4,4.5,3.4,4.5l-8.9,11.6
		c0,0-1.1,1-0.4,2.2s3.2,4.1,3.2,4.1s0.6,0.7,1.6-0.3c1.1-1.1,8.4-11.3,8.4-11.3l8.1,10.9c0,0,0.8,0.8,1.6,0s3.8-3.9,3.8-3.9
		s0.4-0.8-0.4-1.5s-9.1-12.1-9.1-12.1s2.8-3.4,2.9-3.6c0.1-0.2,1-2.2,0.5-3.7s-2-6.1-2-6.1s-0.4-0.7-1.1-0.8c0,0-0.5,3.7-4.2,8.7
		C28.5,21.2,25.5,18.4,24.1,12.5z"/>
</g>
<g id="icon_33" class="st0">
	<path class="st24" d="M32,21.9l10.2-8.2c0,0,0.8-0.5,1.8-3.5s4.2-7.9,8.9-5.9s3.5,6.7,2.8,7.9s-4.2,3.3-6.5,4.3s-5.5,5.9-5.5,5.9
		L32,21.9z"/>
	<path class="st40" d="M29.5,22.3c0,0,3-2.5,2.5-8.7c-0.2-1.8,1.2-3.8,1.2-3.8S20.2,7,17.3,16c0,0-1.2-4.8-13.2-4c0,0,1.7,3,1.3,4.8
		c-0.5,1.8-0.3,5,1.3,6.4L29.5,22.3z"/>
	<path class="st41" d="M18.1,22.3c0,0,4-8.5,11.7-10.4"/>
	<path class="st41" d="M7.3,14.1c0,0,6.4,3.2,9,8.2"/>
	<path class="st18" d="M1.6,21.9h53.7c0,0,1.8-0.5,1.7,0.8c-0.2,1.3-1.5,18.6-19.4,24.7l-18.4,0.2c0,0-14.7-5-19.1-23.7
		C-0.1,24.1-0.6,22.1,1.6,21.9z"/>
	<ellipse class="st18" cx="28.5" cy="49.5" rx="12" ry="3.2"/>
	<path class="st41" d="M26.1,11.4c0,0-0.2,2.2-1,2.7"/>
	<path class="st41" d="M24,15.1c0,0,2.3-0.8,4.7-0.5"/>
	<path class="st41" d="M18.6,21.4c0,0,3.3-2.2,7.7-2"/>
	<path class="st41" d="M21.3,13.7c0,0,0.7,2.7,0,3.7"/>
	<path class="st41" d="M14.1,16.1c0,0-0.5,1.8,0.7,4.2"/>
	<path class="st41" d="M7.8,16.4c0,0,1.3-0.3,3.2,0"/>
	<path class="st41" d="M9.4,20.4c0,0,4.5-0.3,6.2,1"/>
</g>
<g id="icon_34" class="st0">
	<path class="st18" d="M23.4,19.7h9.7c0,0,2,0,2.9,2.6s2,3.2,2,3.2l2.1,2.1c0,0,0.6,1.4-0.3,2.2c-0.9,0.8-2.1,0.6-2.5,0.3
		s-3.1-2.8-3.1-2.8l-1.2-2v5.5l2.7,9.6c0,0,0.8,2.3-1.4,2.9s-3.3-0.6-3.6-1.7c-0.2-1.1-2.7-8.3-2.7-8.3l-2.3,8.1
		c0,0-0.6,2.1-3.4,1.6c-2-0.4-1.4-3.3-1.4-3.3l2.4-8.7l0.1-5.6l-1.2,1.9L19,30.6c0,0-1.3,1.1-2.5-0.2c-1.1-1.1,0.2-3,0.2-3l2.4-2.7
		L21,21C21.1,21.1,21.6,19.7,23.4,19.7z"/>
	<circle class="st18" cx="28.2" cy="16.9" r="4.4"/>
	<g class="st1">
		<circle class="st42" cx="28.3" cy="28.3" r="19.2"/>
	</g>
</g>
<g id="icon_35" class="st0">
	<path class="st18" d="M20.3,19.1c0,0,3.8-2.3,8.3-2.1l2.4-3c0,0,1.7-1.9,2.5,0.2l0.6,3.4c0,0,4.8,1.3,5.5,3.7l2.4-0.4
		c0,0,1.2-0.2,1.5,0.5s-0.2,1.4-0.2,1.4l-1.4,2.1c0,0,1.3,7.2-2.2,10.6l1.1,4.3c0,0,0.4,1.5-0.2,2c-0.6,0.5-1.6,0.3-2.3-0.2
		c-0.7-0.6-3-2.3-3-2.3s-2.8,2.1-8.8,1.5l-2,2.1c0,0-0.6,0.6-1.5,0.4c-0.9-0.2-1-2.3-1-2.3l-0.1-1.7c0,0-2-0.5-3.8-2.7l-3.5,0.6
		c0,0-2,0-0.8-2.4l1.6-2.7c0,0-1.6-5,0.4-8.3l-2.2-4.9c0,0-0.3-1.5,0.3-1.8s2,0.2,2,0.2L20.3,19.1z"/>
	<line class="st32" x1="21.8" y1="23.5" x2="25.4" y2="26.1"/>
	<line class="st32" x1="30.4" y1="25.9" x2="35.3" y2="23.5"/>
	<path class="st32" d="M24.5,34c0,0,1.4-2.3,4-2.1s3.6,2.7,3.6,2.7"/>
</g>
<g id="icon_36" class="st0">
	<g id="icon_23_1_" class="st1">
		<path class="st43" d="M32.3,15.7c-5.9,1.1-4.2,5.5-4.2,6.8s-0.4,1.3-0.5,2s0.8,0.9,0.8,0.9s-0.3,1.7-2.8,0.2
			c-2.5-1.6-6.4,0.4-7,0.4c-0.5,0,0.5-2,0.5-2c-0.5-0.6-1.4-0.2-2.3,1.1c-1,1.5-0.9,3.3-0.7,3.4c0.2,0.1,3-0.1,4.3-0.4
			s2-0.4,1.7-0.1c-0.2,0.3-0.9,1.5-1.2,1.6c-0.4,0.2-6.6,7.1-0.8,9.4c5.9,2.3,10-0.5,11.6-1.8c1.7-1.4,4.6-3.4,5.6-5.1
			c1-1.6,0.3-4.1,0.2-5c-0.2-0.9,1.2-3,1.6-5C39.4,20.1,38.3,14.6,32.3,15.7z"/>
		<path class="st5" d="M25.3,30.1c0,0,0.5,2.7-1.2,3.9"/>
		<path class="st5" d="M21.6,29c0,0,1.2-1.7,1.4-2.4"/>
		<path class="st5" d="M25.3,25.7c0,0-1.7,4.1,0.9,5.1c2.6,0.9,6.7,0.5,6.7,0.5"/>
		<path class="st5" d="M28.3,26.1c0,0,0.7,0.3,1,1.3"/>
		<path class="st5" d="M27.6,28.1c0,0,4.8-1.8,8.6-0.5"/>
		<path class="st5" d="M34,20.7c0,0,1.8-0.1,1.6,1.5s-1,2.7-2.7,1.5"/>
	</g>
	<circle class="st44" cx="28.5" cy="28.3" r="20.3"/>
	<line class="st44" x1="39.7" y1="12.8" x2="16.9" y2="44.1"/>
</g>
<g id="icon_37" class="st0">
	<circle class="st45" cx="32.1" cy="24.8" r="12.3"/>
	<circle class="st45" cx="24.9" cy="31.8" r="12.3"/>
	<path class="st45" d="M21.3,20.3"/>
	<path class="st18" d="M28.4,20.3l5.2,3l3.2,2.8l0.9,4.4c0,0-0.5,3.4-0.9,3.6c-0.4,0.2-1.1,1.7-1.1,1.7s-3.1,1.5-3.2,1.4
		c-0.1-0.2-5.3-2.9-5.3-2.9l-3.4-0.6l-2.5-5.4l-1.6-5.4l1.2-2l2-0.9L28.4,20.3z"/>
</g>
<g id="icon_38" class="st0">
	<circle class="st18" cx="26.2" cy="12.3" r="3.9"/>
	<path class="st18" d="M22.3,16.4l7.4-0.1c0,0,2.5,0.3,3.5,4.1l-4,4.8l0.4,5l1.7,3.5l0.1,11.6c0,0,0.6,2.7-1.9,2.7
		c-2,0-2.2-1.5-2.2-2.5c0-1.1-0.1-13-0.1-13s-0.3-0.8-1.1-0.8c-0.8,0.1-0.9,1-0.9,1v13.8c0,0-0.1,1.5-2,1.6S21,46.2,21,46.2
		l-0.1-20.3l-1.7,4c0,0-0.5,1.8-2.7,1.1c-1.8-0.6-0.6-3.4-0.6-3.4l4.3-9.5C20.1,18.1,20.9,16.4,22.3,16.4z"/>
	<circle class="st24" cx="33.9" cy="27.5" r="7.6"/>
	<circle class="st14" cx="31.4" cy="29" r="3"/>
	<rect x="30.9" y="26" transform="matrix(0.2802 -0.9599 0.9599 0.2802 -5.3835 50.9214)" class="st24" width="0.7" height="6.2"/>
	<path class="st17" d="M36,32L36,32c-1,0-1.9-0.8-1.9-1.9v-5.6c0-1,0.8-1.9,1.9-1.9l0,0c1,0,1.9,0.8,1.9,1.9v5.6
		C37.9,31.2,37.1,32,36,32z"/>
	<rect x="34.2" y="27" class="st24" width="3.7" height="0.8"/>
</g>
<g id="icon_39" class="st0">
	<path class="st18" d="M21.9,13.1L34.6,13c0,0,1.9,9.2-6.1,9.2C21.5,22.2,21.9,17.8,21.9,13.1z"/>
	<polygon class="st18" points="23.6,35.2 33,35.2 34.5,42.6 36.4,42.6 36.4,44.2 20,44.2 20,42.3 22.1,42.3 	"/>
	<rect x="23.8" y="29.7" class="st18" width="9.1" height="3.5"/>
	<path class="st18" d="M25.1,23.5c0,0-1.6,0.5-1.4,4.1l-1.8,0.2l0.1,4c0,0-0.9-0.6-1.5-2.4L18.7,30c0,0,1.4,3.1,2.1,3.7l1-0.8
		l-0.7,5.4c0,0-6.5-3.4-6.6-12.5C14.4,20.4,20,16,20,16s0.2,3.1,1.6,4.4c0,0-1.5-0.3-2.8,3.3l1.7,0.8c0,0,0.5-2.3,1.8-3.1
		C22.1,21.4,23.6,23.1,25.1,23.5z"/>
	<path class="st18" d="M31.4,23.5c0,0,1.6,0.5,1.4,4.1l1.8,0.2l-0.1,4c0,0,0.9-0.6,1.5-2.4l1.8,0.6c0,0-1.4,3.1-2.1,3.7l-1-0.8
		l0.8,5.4c0,0,6.5-3.4,6.6-12.5c0.1-5.4-5.5-9.8-5.5-9.8s-0.2,3.1-1.6,4.4c0,0,1.5-0.3,2.8,3.3l-1.7,0.8c0,0-0.5-2.3-1.8-3.1
		C34.3,21.4,32.9,23.1,31.4,23.5z"/>
</g>
<g id="icon_40" class="st0">
	<circle class="st18" cx="28.4" cy="15.4" r="6.6"/>
	<path class="st18" d="M34.3,38.6c0,0,0-0.3-0.6-0.2c-0.6,0-4.7,0.4-6.6-3.9s-3.9-2.8-4-2.3c-0.1,0.4-0.1,1.4,0.3,2.9
		s1.1,3.4-0.1,3.5s-3.2,0.4-3.7,0.5c-0.5,0.2-1,0.5,0.1,1.1s2.7,1.1,4.2,1.2c1.6,0.1,6.6,0.1,7,2.6c0.3,2-1.3,3.5-3.8,3.8
		c-3.1,0.3-8.3-0.2-11.9-3.9c-3.6-3.6-2.2-8-1.7-9.4s3-8.5,6.5-11.2c0.9-0.6,1.8-1,3.9-1.1s10.8-0.1,10.8-0.1s3.8,0.4,6,4.6
		c2.3,4.2,3.2,6.8,3.2,6.8s0.6,2.2-0.1,3.6c-0.7,1.4-2.9,4.4-3.4,4.8c-0.4,0.4-3,3.4-6.8,2.1c-2-0.7-1.6-2.8-1.5-3.1
		c0.1-0.4,0.7-1.4,1.7-2C34.5,38.7,34.3,38.6,34.3,38.6z"/>
	<circle class="st34" cx="33" cy="32.9" r="4.6"/>
</g>
<g id="icon_41" class="st0">
	<path class="st18" d="M34.7,12c0,0-2.7,7.5-6.9,7.7s-8.3,2.5-8.3,2.5s-0.3-2.9-2.3-4l0.1-3.8C17.3,14.3,24.9,8.7,34.7,12z"/>
	<path class="st18" d="M36,12.2c0,0-1.8,5.9-4.8,7.4c0,0,5.5,1,6.2,2.6c0,0,1-3.1,2.2-4.1l0.2-3.6C39.8,14.5,37.8,13,36,12.2z"/>
	<path class="st18" d="M16,10.9l0.2,7.8c0,0,2.1,2,2.2,4.8c0.1,2.7,0.1,7.1,0.1,7.1s-0.1,0.8-1.2,0.9C16.2,31.6,16,30,16,30v-4.5
		c0,0-0.1-0.3-0.6-0.3s-0.6,0.3-0.6,0.5s0,6,0,6l3.2,6.1c0,0,0.4,1.2-0.5,1.8c-1,0.5-1.7-0.3-1.7-0.3l-4.6-8.5c0,0-0.2-0.6-0.2-2
		s0-18,0-18L16,10.9z"/>
	<path class="st18" d="M19.9,23.6l-0.1,7.2c0,0-0.3,2.3-2.9,2l2.2,4.5c0,0,0.7,2.1-0.3,2.6c0,0,4.1,6,8.9,6
		c4.9-0.1,8.8-3.1,10.5-5.8c0,0-1.1-1.5-0.1-3.2s2.3-4.2,2.3-4.2s-2.2,0.7-3.1-1.8v-7.4C37.2,23.5,28.6,17.3,19.9,23.6z"/>
	<path class="st22" d="M21.6,31.5c0,0,0.1,1.4,1.2,1.4c0.8,0,1.3-0.2,1.4-1.4"/>
	<path class="st22" d="M32.9,31.5c0,0,0.1,1.4,1.2,1.4c0.8,0,1.3-0.2,1.4-1.4"/>
	<polyline class="st22" points="27.3,32.5 27.3,35 29.7,35 	"/>
	<path class="st32" d="M23.8,37.6c0,0,2.1,2.9,4.6,2.8c2.4-0.1,4.5-2.7,4.5-2.8"/>
	<path class="st18" d="M41.2,10.8L41,18.6c0,0-2.1,2-2.2,4.8s-0.1,7.1-0.1,7.1s0.1,0.8,1.2,0.9c1.1,0.1,1.3-1.5,1.3-1.5v-4.5
		c0,0,0.1-0.3,0.6-0.3s0.6,0.3,0.6,0.5s0,6,0,6l-3.2,6.1c0,0-0.4,1.2,0.5,1.8c0.9,0.5,1.6-0.2,1.6-0.3s4.6-8.5,4.6-8.5
		s0.2-0.6,0.2-2s0-18,0-18L41.2,10.8z"/>
</g>
<g id="icon_42" class="st0">
	<path class="st14" d="M21.8,21.3l-0.2,13c0,0,0.6,4.3-3.7,4.3s-13.6,1.6-16,11.1c-0.7,2.8-0.7,4.1-0.6,4.5c0.2,0.4,0,1.5,1.5,1.5
		s6.9,0,6.9,0s1.1-0.2,1.5-2c0.4-1.9,1.9-4.6,3.7-4.8c0,0-0.2,6.7,7.8,6.9s27.9-6.1,31.4-22.5c2.6-11.7,2-19.5-4.6-25.5
		c-6.7-6.1-15.1-7.2-19.7-6.3c-4.8,0.9-7.6,6.3-7.6,9.7c0,0-7.1,0.7-10.2-5.2c-0.7-1.7-0.7-3.5-0.7-3.5S11.3,1,9.8,1S3.1,1,3.1,1
		s-2,0.2-1.7,2.6c0.3,2.2,2.7,14.9,12.4,16.6C17.7,21.1,21.1,21.3,21.8,21.3z"/>
</g>
<g id="icon_43" class="st0">
	<circle class="st18" cx="28.4" cy="12.4" r="5.1"/>
	<path class="st18" d="M20.4,21.5h16.2c0,0-0.9-2.8-3.8-2.9s-8.6,0-8.6,0S20.6,18.7,20.4,21.5z"/>
	<path class="st18" d="M39.5,41.1h-22c-1.6,0-2.8-1.3-2.8-2.8V25.4c0-1.6,1.3-2.8,2.8-2.8h22c1.6,0,2.8,1.3,2.8,2.8v12.8
		C42.3,39.7,41,41.1,39.5,41.1z"/>
	<path class="st18" d="M22.6,42.1h5.1v5.4c0,0-0.1,1.7-1.5,1.7s-2.1,0-2.1,0s-1.6-0.1-1.6-2.1C22.5,45.6,22.6,42.1,22.6,42.1z"/>
	<path class="st18" d="M29.1,42.1h5.1v5.4c0,0-0.1,1.7-1.5,1.7s-2.1,0-2.1,0S29,48.9,29,47.1C29.1,45.6,29.1,42.1,29.1,42.1z"/>
	<path class="st24" d="M24.4,39.8l7.9-0.1c0,0-0.6-1.3-1.4-1.4c-0.9-0.1-1.6,0.1-2,0.6s-0.8,0.4-1.1,0.1c-0.3-0.4-1.3-0.8-1.9-0.7
		C25.4,38.6,24.4,39.2,24.4,39.8z"/>
	<path class="st46" d="M26.9,36.4l0.1-8.9c0,0-0.1-1.9,1.2-2c1.4-0.1,1.4,1.9,1.4,1.9v8.9"/>
	<path class="st47" d="M34.5,39.7c0,0-1-3.8-4.9-3.3"/>
	<path class="st47" d="M29.9,34.7h4.4c0,0,2.8-0.3,3.4-2.7"/>
	<path class="st47" d="M29.9,31.3H33c0,0,2.7-0.2,3.2-2.6"/>
	<path class="st22" d="M29.8,28.1l2.3-0.1h0.1c0.3-0.1,2-0.2,2.5-2.2"/>
	<path class="st47" d="M22.1,39.6c0,0,1-3.8,4.9-3.3"/>
	<path class="st47" d="M26.8,34.6h-4.4c0,0-2.8-0.3-3.4-2.7"/>
	<path class="st47" d="M26.9,31.2h-3.1c0,0-2.7-0.2-3.2-2.6"/>
	<path class="st22" d="M26.9,28l-2.3-0.1h-0.1c-0.3-0.1-2-0.2-2.5-2.2"/>
</g>
<g id="icon_44" class="st0">
	<path class="st48" d="M13,6.4c0,0,4.6-6,13.5-4.6c0,0,12.4-4,17.9,4.7c0,0,10,2.9,9.7,13c0,0,5.7,7.8,0.2,17.3
		c0,0-1.1,11.3-11.3,13.7c0,0-3.1,7.5-15.3,4.4c0,0-8.4,3.1-14.4-4.4c0,0-8-2.7-9.9-11.7c0,0-6.9-13,0.4-19.3
		C3.7,19.3,3.8,10,13,6.4z"/>
	<path class="st49" d="M53.5,19.5c0,0-5.1-12.4-22.1,0.2"/>
	<path class="st49" d="M53.6,19.9c0,0,0.4,10.8-8.9,13.7"/>
	<path class="st49" d="M47.3,41.8c0,0,5.3-2.6,7.3-6"/>
	<path class="st49" d="M21.5,6.6c0,0,4.2-4.4,6.9-5.1"/>
	<path class="st49" d="M34.7,49.4c0,0,5.3,1.8,9.3,0.7"/>
	<path class="st49" d="M30.7,55.5c0,0-13.7-2.4-12-13.1c0.7-4,3.5-8.9,3.5-8.9s-6.7,2-9.7,0.2"/>
	<path class="st49" d="M1.8,35.2c0,0,4,5.7,7.7,6.7"/>
	<path class="st49" d="M2.2,21.2c0,0,5.7-8,23.7-1.1"/>
</g>
<g id="icon_45" class="st0">
	<g class="st1">
		<path class="st8" d="M29.1,19.7c-1.2,0-2.3,0.2-3.4,0.7c0.1,0.3,0.2,0.7,0.2,1c0,2.1-1.7,3.8-3.8,3.8c-0.4,0-0.8-0.1-1.1-0.2
			c-0.5,1.1-0.8,2.3-0.8,3.6c0,0.6,0.1,1.1,0.2,1.7c0.5-0.3,1.1-0.5,1.8-0.5c2,0,3.6,1.6,3.6,3.6c0,1.1-0.5,2.1-1.3,2.8
			c1.4,0.9,3,1.4,4.7,1.4c0.8,0,1.6-0.1,2.4-0.3c-0.6-0.8-1-1.8-1-2.9c0-2.5,2.1-4.6,4.6-4.6c1,0,2,0.3,2.7,0.9
			c0.2-0.7,0.2-1.3,0.2-2C38,23.7,34,19.7,29.1,19.7z"/>
	</g>
	<circle class="st18" cx="35" cy="34.4" r="2.9"/>
	<circle class="st18" cx="22.1" cy="33.4" r="1.9"/>
	<circle class="st18" cx="22.1" cy="21.5" r="2.1"/>
	<path class="st18" d="M36.2,21c0-0.1,0-0.3,0-0.4c0-2.8-2.3-5-5-5c-2,0-3.6,1.1-4.5,2.8c0.8-0.2,1.6-0.3,2.5-0.3
		C32,18,34.5,19.2,36.2,21z"/>
	<path class="st18" d="M42.2,20l-2.7,2.6c-0.5,0.5-1.3,0.2-1.5-0.4l-0.9-3.6L36.2,15c-0.2-0.7,0.5-1.3,1.1-1.1l3.6,1l3.6,1
		c0.7,0.2,0.9,1,0.4,1.5L42.2,20z"/>
	<path class="st50" d="M42.2,20c0,0,5.7,6.5,1.2,15.6S29,44.2,29,44.2"/>
	<path class="st18" d="M14.9,36.7l2.7-2.6c0.5-0.5,1.3-0.2,1.5,0.4l0.9,3.6l0.9,3.6c0.2,0.7-0.5,1.3-1.1,1.1l-3.6-1l-3.6-1
		c-0.7-0.2-0.9-1-0.4-1.5L14.9,36.7z"/>
	<path class="st50" d="M14.9,36.7c0,0-5.4-7.8-1.3-15.6C18.9,10.8,28,12.4,28,12.4"/>
</g>
<g id="icon_46" class="st0">
	<path class="st18" d="M25.1,40.4h-8.4c-0.6,0-1.2-0.5-1.2-1.2l0,0c0-0.6,0.5-1.2,1.2-1.2h8.4c0.6,0,1.2,0.5,1.2,1.2l0,0
		C26.2,39.8,25.7,40.4,25.1,40.4z"/>
	<path class="st18" d="M42.7,43.9H14.4c-0.6,0-1.1-0.5-1.1-1.1l0,0c0-0.6,0.5-1.1,1.1-1.1h28.3c0.6,0,1.1,0.5,1.1,1.1l0,0
		C43.8,43.4,43.4,43.9,42.7,43.9z"/>
	<path class="st18" d="M23.5,34.2l-3.9-2.4c-1-0.6-1.4-2-0.7-3l7.5-12.3c0.6-1,2-1.4,3-0.7l3.9,2.4c1,0.6,1.4,2,0.7,3l-7.5,12.3
		C25.9,34.6,24.5,34.9,23.5,34.2z"/>
	<path class="st18" d="M20.1,35.6L20.1,35.6c-0.7-0.4-0.8-1.2-0.5-1.7l1.5-2.5c0.3-0.6,1.1-0.8,1.7-0.4l0.1,0.1
		c0.6,0.3,0.8,1.1,0.4,1.7l-1.5,2.4C21.4,35.6,20.7,35.8,20.1,35.6z"/>
	<path class="st18" d="M34,17.2l-3.8-2.3c-0.4-0.2-0.5-0.7-0.3-1.1l0.4-0.7c0.2-0.4,0.7-0.5,1.1-0.3l3.8,2.3
		c0.4,0.2,0.5,0.7,0.3,1.1l-0.4,0.7C34.9,17.3,34.4,17.4,34,17.2z"/>
	<path class="st50" d="M34.1,26.9c0,0,8,2.8,6.8,8.1c-0.9,4.1-3.1,7.1-3.1,7.1"/>
</g>
<g id="icon_47" class="st0">
	<path class="st18" d="M12.3,42.1L9,36c-0.3-0.6-0.1-1.3,0.5-1.6l1.5-0.8l4.4,8l-1.7,0.9C13.2,42.7,12.6,42.5,12.3,42.1z"/>
	<path class="st18" d="M12.4,32.5l4.1,8.1l2.6-1.4l11.7,2.4c0,0,1.9,0.5,4.9-0.6s11.7-4.9,11.7-4.9s1.1-0.6,0.7-1.9
		s-1.4-1.3-2.5-0.9c-1.1,0.3-7.4,3.1-7.4,3.1s-0.9,0.4-2.5,0.4c-1.5,0-9.1-0.5-9.1-0.5s-0.4,0-0.4-0.6c0.1-0.6,1.3-0.4,1.3-0.4
		l8.1,0.3c0,0,1.5-0.2,1.5-1.7s-1-1.8-1.6-1.9c-0.6-0.1-5.8-0.2-12.8-3.1c-1.2-0.5-5,0.4-6.2,1.1C15.3,30.7,12.4,32.5,12.4,32.5z"/>
	<path class="st18" d="M38.5,33.4c0,0,0.1,1.1,0,1.4l6.5-2.4c0,0-0.4-1-2.1-0.5S38.5,33.4,38.5,33.4z"/>
	<path class="st18" d="M37.2,31.3l0.8,0.9l4.2-1.2c0,0-0.7-0.6-2.6-0.2C37.6,31.1,37.2,31.3,37.2,31.3z"/>
	<path class="st40" d="M40.3,14.1c0,0,1,12.1-11.6,11.5c0,0,2.1-4,7-6.2c0,0-6.6,0.5-10,9.5c0,0-0.2,0.5-0.7,0.4
		c-0.5-0.2-0.5-0.7-0.4-1.3c0.1-0.6,0.7-2.2,1.7-2.9c0,0-1.2-7.2,7.7-7.7C36.1,17.4,39.1,15.5,40.3,14.1z"/>
</g>
<g id="icon_48" class="st0">
	<path class="st17" d="M28.1,12H31v10c0,0,0,2.4,4.1,2.1l1.3,1.6l-1.5,0.2c0,0-2.5,0.4-3.3-0.5S31,26.1,31,26.1v18.4h-3l-1-18.9
		c0,0-0.5,2.1-5.2,1.6l-0.6-1.3l0.2-0.4c0,0,2.3,0.6,5.3-0.8c1.1-0.5,1.1-4.1,1.1-4.1L28.1,12z"/>
	<path class="st18" d="M35,28.1c0,0-5.8,1.5-6.7-3.9V12h-2.7v15.3c0,0,0.5,1.9-3.6,2.2l-1.2,1.2l0.7,0.6l0.8,0.2l1.8-0.5
		c0,0,1.5-0.5,1.6,0.6c0,1,0,13.1,0,13.1l2.7-0.1V28.1c0,0,1.8,2.6,6.4,2.1l0.7-1.6L35,28.1z"/>
	<path class="st17" d="M36.3,17.1c0,0,3.6-1.6,5.9,1.1s3.6,10.7,0.9,15.9s-5.8,3.8-7.2,3.2c-1.5-0.6-2.5-3-1.9-4.8
		c0.5-1.8,1.1-3.4,1-4c-0.2-0.6-0.6-2.2-0.3-2.8c0.3-0.6,0.4-1.7,0.1-2c-0.3-0.3-1-1.1-1-1.9C33.8,21.1,33.6,18.7,36.3,17.1z"/>
	<path class="st17" d="M20.6,18.3c0,0-3.6-1.6-5.9,1.1s-3.6,10.4-0.9,15.5s5.9,3.6,7.2,3.1s2.5-2.9,1.9-4.6s-1.1-3.3-1-3.9
		c0.2-0.6,0.6-2.1,0.3-2.7c-0.3-0.6-0.4-1.7-0.1-2s1-1.1,1-1.8S23.3,19.8,20.6,18.3z"/>
</g>
<g id="icon_49" class="st0">
	<g id="brain" class="st1">
		<path class="st51" d="M22.2,24.4c0,0-1.4-1.8,0.3-3.1c0,0,0.4-1.9,2.3-1.6c0,0,0.9-2.1,3-1.5c0,0,1.8-1.3,2.9,0
			c0,0,2.3-0.8,3.1,0.9c0,0,2.1,0.1,2.3,1.8c0,0,2.7,2.7-0.1,4.5L22.2,24.4z"/>
		<path class="st52" d="M22.9,20.4c0,0-0.8,1.4,0.5,2"/>
		<path class="st52" d="M25.1,19.1c0,0-1.3,2.7,1.7,3.2"/>
		<path class="st52" d="M27.8,23.4c0,0,2-2.8-1-3.6"/>
		<path class="st52" d="M30.1,20.6c0,0,0,1.4-1.6,1.5"/>
		<path class="st52" d="M30,17.8c0,0.1,1.1,0.2,1.3,2.3"/>
		<path class="st52" d="M30.6,24.1c0,0,0.2-2,2.4-1.9"/>
		<path class="st52" d="M35,23.8c0,0-1.9-0.1-1.9-2.2"/>
		<path class="st52" d="M24.8,23.5c0,0,0.1,1,0.9,1.2"/>
		<path class="st53" d="M22.2,24.5c0,0-1.7,1.5-0.2,3.1c0,0,0.1,1.9,2,1.9c0,0,0.6,2.2,2.8,1.9c0,0,1.6,1.5,2.9,0.4
			c0,0,2.2,1.1,3.2-0.4c0,0,2.1,0.1,2.5-1.5c0,0,3.1-2.3,0.5-4.5L22.2,24.5z"/>
		<path class="st5" d="M22.4,28.5c0,0-0.6-1.5,0.8-1.9"/>
		<path class="st5" d="M24.4,30.2c0,0-0.9-2.8,2.2-3"/>
		<path class="st5" d="M27.6,26.3c0,0,1.6,3-1.5,3.4"/>
		<path class="st5" d="M29.4,29.4c0,0,0.2-1.3-1.4-1.7"/>
		<path class="st5" d="M29,32.2c0-0.1,1.1,0,1.6-2.1"/>
		<path class="st5" d="M30.5,26c0,0-0.1,2,2.1,2.2"/>
		<path class="st5" d="M34.7,26.8c0,0-1.9-0.1-2.1,1.9"/>
		<path class="st5" d="M26,25.8c0,0,0.2-1,1.1-1"/>
		<path class="st5" d="M32.6,26.7c0,0,0.4-1.2,1.4-1.5"/>
	</g>
	<path class="st18" d="M25.1,14.9c-4.9,0.7-6.5,2.7-8.2,4.9c-1.7,2.3-1.1,7.3-1.1,7.3s-1.7,2-2.1,2.5s-1.2,1.7-1.1,2.7
		c0.2,1,1.8,1.2,1.8,1.2s-0.2,2.1-0.2,2.6s0.5,0.6,0.6,0.7c0.1,0,0.2,0.2,0.2,0.2s-0.4,0.1-0.4,0.5c0,0.6,0.6,0.9,0.6,0.9
		c0,0.1,0.2,0.2,0,0.8c-0.3,0.6-0.3,1.6,0.8,2.5c1.1,0.9,5.6,0.8,5.6,0.8v3l14.3-0.3c0,0-0.3-0.4-0.8-3s0.2-4.5,0.3-4.9
		c0.2-0.4,1.1-1.9,2.6-4.3c1-1.6,1.6-3.9,1.8-6.2c-0.1,0-0.2,0-0.2,0C31.7,26.3,25.5,21.1,25.1,14.9z"/>
	<path class="st18" d="M25.4,14.7c0,0,5.1,8.7,19,5.1C44.4,19.8,38.7,4.2,25.4,14.7z"/>
</g>
<g id="icon_50" class="st0">
	<path class="st54" d="M28.5,13.8c0,0,3.4-3.1,6.2,0.1c0,0,3.9,0.5,3.5,4.4c0,0,4.4,1.5,3.5,5.9c0,0,2.8,3.5,0.5,5.9
		c0,0,1.9,4.6-1.3,6.4c0,0,0,4.3-3.3,4.9c0,0-5.1,5.9-9.1,0.4L28.5,13.8z"/>
	<path class="st28" d="M36.8,14.8c0,0-3-1.4-4,1.4"/>
	<path class="st28" d="M39.8,19.1c0,0-5.6-2.2-6.3,3.9"/>
	<path class="st28" d="M31.3,25.1c0,0,5.9,3.6,7.1-2.6"/>
	<path class="st28" d="M37.3,29.2c0,0-2.7,0.2-3.2-3"/>
	<path class="st28" d="M43.1,28.8c-0.1,0-0.2,2.2-4.5,2.9"/>
	<path class="st28" d="M30.3,30.8c0,0,4.1,0,4.2,4.5"/>
	<path class="st28" d="M31.5,39.6c0,0,0-3.9,4.1-4.1"/>
	<path class="st28" d="M30.8,18.9c0,0-2,0.3-2.3,2"/>
	<path class="st54" d="M28.4,13.8c0,0-3.4-3.1-6.2,0.1c0,0-3.9,0.5-3.5,4.4c0,0-4.4,1.5-3.5,5.9c0,0-2.8,3.5-0.5,5.9
		c0,0-1.9,4.6,1.3,6.4c0,0,0,4.3,3.3,4.9c0,0,5.1,5.9,9.1,0.4V13.8z"/>
	<path class="st28" d="M20.2,14.8c0,0,3-1.4,4,1.4"/>
	<path class="st28" d="M17.2,19.1c0,0,5.6-2.2,6.3,3.9"/>
	<path class="st28" d="M25.5,25.1c0,0-5.9,3.6-7.1-2.6"/>
	<path class="st28" d="M19.5,29.2c0,0,2.7,0.2,3.2-3"/>
	<path class="st28" d="M13.8,28.8c0.1,0,0.2,2.2,4.5,2.9"/>
	<path class="st28" d="M26.6,30.8c0,0-4.1,0-4.2,4.5"/>
	<path class="st28" d="M25.4,39.6c0,0,0-3.9-4.1-4.1"/>
	<path class="st28" d="M26.2,21.8c0,0,2,0.3,2.3,2"/>
	<path class="st28" d="M25.3,35.2c0,0,2.5,0.6,3.1,2.6"/>
</g>
<g id="icon_51" class="st0">
	<circle class="st18" cx="28.5" cy="28.3" r="19.5"/>
	<circle class="st55" cx="28.3" cy="28.7" r="5.4"/>
	<path class="st56" d="M25.6,23.4L22.1,17c0,0,6.8-3.2,12-0.1l-3.4,6.5"/>
	<path class="st56" d="M34.1,28.6l7.3,0.1c0,0-0.5,7.5-5.7,10.5l-4-6.1"/>
	<path class="st56" d="M24.8,33.4l-4.2,6c0,0-5.9-4.7-5.4-10.7l7.3,0.2"/>
</g>
<g id="icon_52" class="st0">
	<path class="st18" d="M50,56.3H7c-3.7,0-6.8-3.1-6.8-6.8V7c0-3.7,3.1-6.8,6.8-6.8h42.8c3.7,0,6.8,3.1,6.8,6.8v42.4
		C56.8,53.3,53.7,56.3,50,56.3z"/>
	<path class="st24" d="M18.5,21.7h20.9l7.4-10.4c0,0-17.8-15.6-35.8,0.2L18.5,21.7z"/>
	<path class="st17" d="M28.3,28.7c0,0,2.9-4.3,8.4-2.9c5.7,1.6,6.3,5.9,6.3,5.9s2,11.7-14.1,20.1c0,0-16.6-5.9-15.4-18.8
		c0.4-5.1,4.3-7.6,6.3-7.8C22.4,25.2,25.8,25.4,28.3,28.7z"/>
	<circle class="st57" cx="28.5" cy="20.7" r="4.1"/>
	<line class="st19" x1="34.2" y1="10.7" x2="30.6" y2="16.8"/>
	<path class="st18" d="M28.1,44.9L28.1,44.9c-1,0-1.7-0.7-1.7-1.7v-8.6c0-1,0.7-1.7,1.7-1.7l0,0c1,0,1.7,0.7,1.7,1.7v8.6
		C30,44.1,29.1,44.9,28.1,44.9z"/>
	<path class="st18" d="M34.2,38.7L34.2,38.7c0,1-0.7,1.7-1.7,1.7h-8.6c-1,0-1.7-0.7-1.7-1.7l0,0c0-1,0.7-1.7,1.7-1.7h8.6
		C33.5,37,34.2,37.7,34.2,38.7z"/>
</g>
<g id="icon_53">
	<path class="st8" d="M53.3,16l-1.4,4.6c0,0-1,2.7-4.9,2.7s-6.3-1-6.6,1.7c-0.5,2.7-1.7,9-9.6,9.6c0,0-0.5,0.5,0.3,0.7
		s4.2-0.2,5.7-1s3.4,0.3,4.4,2.7s1.5,2.7,2,2.5c0.5,0,2.5-0.5,3,0s1.2,1.5-0.7,2.7c-1.9,1.4-3.7,0.8-4.9-0.5c-1.2-1.4-1.9-1.9-2.5-2
		c-0.7-0.2-2.4,0-2.5,1.5c-0.2,1.5-2.7,6.9-9,6.3c-6.1-0.7-9.3-3.4-10.5-7.9s0.8-9.3,1.4-10.6c0.7-2.4,0.5-3.4-0.3-4.7
		c-0.8-1.4-2.4-1-2.9-5.2C13.6,15,17,11,19.5,9.5c0,0,2.7-1.9,5.7-1.2s5.6,2,7.4,4.2c2.2,2.4,2,5.7,0.2,8.4
		c-0.3,0.5-0.5,0.8-0.2,1.4c0.3,0.5,0.8,3.2-1,3.7c-1.9,0.5-3.9,0.5-4.4,1.2s-0.2,1.2,0.5,1.7s1.9,0.7,2,0.7c0.2,0,0-0.7,0-1.2
		s1-1,1.9-0.2c0.8,0.8,1.5,1.7,1,2.9c-0.3,1.2-0.7,0.7,0.2,0.8c0.7,0.2,0.3-0.3,1.2-0.7c0.7-0.3,1.2-0.3,1.4-0.8
		c0.3-0.5,1.9-5.9,2.4-6.6s1-2.9,7.1-4.4c3-0.7,3.2-2.4,2.7-5.1c-0.5-2-1.5-5.7-2-7.4c-4.6-4-10.7-6.3-17.1-6.3
		C13.1,0.6,0.7,13.1,0.7,28.3C0.7,43.7,13.2,56,28.4,56s27.7-12.2,27.7-27.5C56.2,23.9,55.1,19.7,53.3,16z"/>
</g>
<g id="icon_54" class="st0">
	<path class="st18" d="M4.2,8.8c0,0,1.6-3.8,5.2-2.5s3.8,4.1,3.6,6.3s0.5,5.6,0.5,5.6s2,4,4.1,0.7c2.7-4,9.7-14.2,9.7-14.2
		s2.5-3.6,6.3-1.4c3.8,2,1.1,6.5,1.1,6.5l-5.4,10.8L41.7,9.1c0,0,3.8-2.5,6.3,0.9s-0.7,6.3-0.7,6.3L36.9,27.4l10.1-5
		c0,0,4.1-1.4,5.6,1.8s-0.2,5.2-1.1,5.9c-0.9,0.7-12.2,8.3-12.2,8.3l7.2-1.6c0,0,4.7-0.9,5.4,2.9c0.7,3.8-1.6,5-2.9,5.4
		c-1.2,0.4-22,8.1-22,8.1s-9.5,3.4-17.3-3.6c-6.8-6.1-5.8-17.1-5.8-17.1S3.6,9.9,4.2,8.8z"/>
	<circle class="st24" cx="14.6" cy="32.9" r="2.5"/>
	<circle class="st24" cx="28.3" cy="32.9" r="2.5"/>
	<path class="st22" d="M11.9,38.7c0,0,2.2,7.2,8.8,7.4s9.2-4.7,9.9-7.2"/>
</g>
<g id="icon_55" class="st0">
	<path class="st18" d="M38.8,43.9H18.2c-2.1,0-3.7-1.7-3.7-3.7V16.5c0-2.1,1.7-3.7,3.7-3.7h20.5c2.1,0,3.7,1.7,3.7,3.7v23.6
		C42.5,42.2,40.8,43.9,38.8,43.9z"/>
	<text transform="matrix(1 0 0 1 25.6909 22.1237)" class="st24 st58 st59">E</text>
	<text transform="matrix(1 0 0 1 22.3379 28.6048)" class="st24 st58 st60">F</text>
	<text transform="matrix(1 0 0 1 30.5732 28.6048)" class="st24 st58 st60">P</text>
	<text transform="matrix(1 0 0 1 32.6319 34.3171)" class="st24 st58 st61">Z</text>
	<text transform="matrix(1 0 0 1 26.3377 34.3171)" class="st24 st58 st61">O</text>
	<text transform="matrix(1 0 0 1 20.6907 34.3171)" class="st24 st58 st61">T</text>
	<text transform="matrix(1 0 0 1 18.9263 39.7287)" class="st24 st58 st62">L</text>
	<text transform="matrix(1 0 0 1 24.0439 39.7287)" class="st24 st58 st62">P</text>
	<text transform="matrix(1 0 0 1 28.8675 39.7287)" class="st24 st58 st62">E</text>
	<text transform="matrix(1 0 0 1 34.1616 39.7287)" class="st24 st58 st62">D</text>
</g>
<g id="icon_56" class="st0">
	<path class="st18" d="M12,52.3L0.3,39.6l27.6-25.4c3.6-3.2,9.1-3,12.3,0.6l0,0c3.2,3.6,3,9.1-0.6,12.3L12,52.3z"/>
	<rect x="26.6" y="24" transform="matrix(0.7362 -0.6768 0.6768 0.7362 -9.8669 25.7642)" class="st24" width="3" height="3"/>
	<rect x="26.6" y="24" transform="matrix(0.7362 -0.6768 0.6768 0.7362 -9.8669 25.7642)" class="st24" width="3" height="3"/>
	<rect x="21.8" y="28.3" transform="matrix(0.7362 -0.6768 0.6768 0.7362 -14.0592 23.6207)" class="st24" width="3" height="3"/>
	
		<rect x="17.3" y="25.6" transform="matrix(0.7362 -0.6768 0.6768 0.7362 -18.248 21.8353)" class="st24" width="3.2" height="17.4"/>
	<polyline class="st19" points="39.6,15.2 51.5,4.3 56.6,4.4 	"/>
</g>
<g id="icon_57" class="st0">
	<path class="st18" d="M21,51.1l0.1-2.5c0-0.4,0.6-0.7,0.9-0.4l2,1.3l2,1.3c0.4,0.3,0.3,0.9,0,1l-2.2,1L21.6,54
		c-0.4,0.3-0.9,0-0.9-0.6L21,51.1z"/>
	<path class="st50" d="M21.5,51.1c0,0-18.5-3.3-19.8-19.8c-0.4-14.1,9-21,9-21"/>
	<path class="st24" d="M33.9,14.7c0,0,4.3-1,6.3,0c2.5,1.2,4.3,4.2,3,9.2s-2.5,9.4-2.7,13.7c-0.4,4.3-3.5,7.2-5.5,7.5
		c-2,0.4-3.5-1.7-3-3.3c0.4-1.6,1-6.2,0.9-7.4c-0.1-2.2-1.3-4-3-4s-2.6,1-3,2c-0.4,1.2-1.2,5.5-0.6,7.5c0.4,2,0.1,5-1.7,5
		c-1.9,0.1-5.5-1.9-6.9-10.4s-2.2-10.3-2.5-11.4c-1-3.9,0-8.9,4.3-9.2s7.8,1.6,9.4,1.7C30,15.9,32.4,15,33.9,14.7z"/>
	<path class="st17" d="M26.1,18.9c0,0,2.6,1.4,3.6,1c1-0.6,3.5-1.7,6.2-0.4c2.7,1.4,2.7,3,2.7,3s0.9,3-0.6,5.3c-1.4,2.5-1,7.4-1,7.4
		s0.1,1.7-0.7,1.7c-0.7,0-1.3-1.6-1.3-1.9c0-0.3-0.9-6.3-4.9-7.1c-4-0.7-4.8,3-5.3,4.5c-0.3,1-0.6,3.8-0.6,3.8s-0.1,1.4-1,1.3
		c-0.7-0.1-1-1.6-1-5c0-3.5-1-3.8-1.6-5.8s-0.4-5.5,1.6-7.1C24.1,18,26.1,18.9,26.1,18.9z"/>
	<path class="st18" d="M34.5,5.5V8c0,0.4-0.4,0.7-0.9,0.6l-2.1-1.2l-2.2-1.2c-0.4-0.1-0.4-0.9,0-1l2-1.3l2-1.3
		c0.4-0.3,0.9,0,0.9,0.4L34.5,5.5z"/>
	<path class="st50" d="M33.9,5.5c0,0,18.6,2.2,21.1,18.5c1.4,14.1-7.5,21.6-7.5,21.6"/>
</g>
<g id="icon_58" class="st0">
	<path class="st24" d="M31.9,4.4c0,0,6.9-1.5,10.2,0c3.9,1.9,6.9,6.8,4.8,14.9c-2.1,8.1-3.9,15-4.4,22.2c-0.8,6.9-5.6,11.8-8.9,12.2
		c-3.3,0.8-5.6-2.7-5-5.4c0.8-2.5,1.5-10.2,1.4-12c-0.4-3.7-2.1-6.6-5-6.6s-4.2,1.5-5,3.3c-0.8,1.9-1.9,8.9-1,12.2
		c0.8,3.3,0.4,8.1-2.7,8.3S7.4,50.4,5.1,36.7S1.6,19.8,1.2,17.9c-1.7-6.4,0-14.5,7-14.9c6.9-0.6,12.7,2.5,15,2.7
		C25.5,6.3,29.4,4.7,31.9,4.4z"/>
	<path class="st17" d="M19.2,11.1c0,0,4.1,2.3,5.8,1.5c1.7-0.8,5.4-2.9,10-0.8c4.4,2.3,4.4,4.8,4.4,4.8s1.4,4.8-1,8.7
		c-2.3,3.9-1.7,11.9-1.7,11.9s0.2,2.7-1.2,2.7c-1.2,0-2.1-2.5-2.1-3.1S32,26.6,25.5,25.2c-6.6-1.4-7.7,5-8.5,7.1
		c-0.6,1.5-1,6.2-1,6.2s-0.4,2.3-1.5,2.1c-1.2-0.2-1.5-2.5-1.5-8.1c0-5.4-1.7-6.2-2.5-9.5S9.7,14.1,13,11.6
		C15.9,9.8,19.2,11.1,19.2,11.1z"/>
	<circle class="st18" cx="44.4" cy="37.5" r="12"/>
	<path class="st24" d="M45,44.3h-1.7c-1,0-1.7-0.8-1.7-1.7v-9.8c0-1,0.8-1.7,1.7-1.7H45c1,0,1.7,0.8,1.7,1.7v9.8
		C46.7,43.5,46,44.3,45,44.3z"/>
	<path class="st24" d="M37.7,38.5v-1.7c0-1,0.8-1.7,1.7-1.7h9.8c1,0,1.7,0.8,1.7,1.7v1.7c0,1-0.8,1.7-1.7,1.7h-9.8
		C38.5,40.2,37.7,39.5,37.7,38.5z"/>
</g>
<g id="icon_59" class="st0">
	<path class="st18" d="M23.5,0.1h14l-7.2,15.2c0,0,3.1,2.8,2.4,6.1c-0.6,3.1-2.1,5.1-7.2,4.5c-2.1-0.3-4.6-2.8-5.4-3
		c-0.6-0.1-2.2-0.7-3.9-0.6c-1.6,0.3-6.1-0.4-6.1-6.7c0-4.6,4.6-7,8.6-5.7L23.5,0.1z"/>
	<path class="st18" d="M19.4,56.5H33l-3-13c0,0,4.8-1.9,3.4-7.5s-7.6-4.2-8.6-3.7c-1,0.6-1.9,1.6-4.5,1c-2.5-0.6-5.7-0.6-7.3,1.9
		c-1.3,2.1-1.3,7.8,4,9.5L19.4,56.5z"/>
	<path class="st18" d="M46,30.1h-3.1c-0.9,0-1.6-0.7-1.6-1.6l0,0c0-0.9,0.7-1.6,1.6-1.6H46c0.9,0,1.6,0.7,1.6,1.6l0,0
		C47.6,29.3,46.9,30.1,46,30.1z"/>
	<path class="st18" d="M43.4,21.4l-2.2,2.2c-0.6,0.6-1.6,0.6-2.2,0l0,0c-0.6-0.6-0.6-1.6,0-2.2l2.2-2.2c0.6-0.6,1.6-0.6,2.2,0l0,0
		C44,19.8,44,20.8,43.4,21.4z"/>
	<path class="st18" d="M40.9,37.4L38.8,35c-0.6-0.6-0.6-1.6,0.1-2.2l0,0c0.6-0.6,1.6-0.6,2.2,0.1l2.1,2.4c0.6,0.6,0.6,1.6-0.1,2.2
		l0,0C42.5,38.1,41.5,38,40.9,37.4z"/>
</g>
<g id="icon_60" class="st0">
	<circle class="st18" cx="22.1" cy="12.4" r="6"/>
	<circle class="st18" cx="44.8" cy="38" r="6.8"/>
	<path class="st18" d="M0.4,49.8v2.8c0,0,0,0.8,0.9,0.8s35.6,0,35.6,0s-2.4-1.7-2.5-2.4L3,50.8C2.8,50.8,1.4,50.9,0.4,49.8z"/>
	<path class="st18" d="M34.9,49.2l2.5,2.4c0,0,0.8,1.6,3.3,1.6s14.2,0,14.2,0s1.7-0.8,1.7-3s-1.6-3.1-3.8-3.1s-11.5,0-11.5,0
		s-7.9-8.8-9.3-9H2.5c0,0-1.9,0-2,1.9c-0.2,1.7,0,7.1,0,7.1s0,2.4,1.6,2.4S34.9,49.2,34.9,49.2z"/>
	<path class="st18" d="M17.4,36c0,0,1.3-2.7,3-3.6c1.7-0.9,1.7-3.1,1.6-3.6l3,2.8l9.4,4.1c0,0,2.4,0.6,3-1.1
		c0.6-1.9,0.3-2.8-0.9-3.5c-1.3-0.6-8.7-3.3-8.7-3.3l-6.4-6.3c0,0-1.3-0.9-2.8-1.3c-1.4-0.3-3.9-0.6-3.9-0.6s-2-0.3-3,2
		c-1,2.4-5.8,13.6-5.8,13.6s-0.6,1.4,0.3,1.4s10.4,0,10.4,0S17.3,36.6,17.4,36z"/>
	<path class="st18" d="M14.8,10.3c0,0,0.8-3.6,4.6-5c0,0-0.8-2.5-4.2-2c-3.5,0.5-2.8,4.4-2.5,4.9C12.7,8.6,13.3,10,14.8,10.3z"/>
</g>
<g id="icon_61" class="st0">
	<g class="st1">
		<path id="SVGID_20_" class="st8" d="M27.5,0.4c0,0,9.5-1.4,15.2,2.3c5.7,3.6,9.3,7.7,10.2,13.6s-0.4,13.1-3,17.3
			c-2.7,4.5-4.5,7.2-4.8,7.9c-0.2,0.7-1.4,4.3-0.5,8.9c0.9,4.8,1.4,5.5,1.4,5.5l-26.1,0.5v-5.5c0,0-8.2,0.2-10.2-1.4
			c-2-1.6-2-3.4-1.4-4.6c0.4-1.1,0-1.3,0-1.4c0,0-1.1-0.5-1.1-1.6c0-0.7,0.7-0.9,0.7-0.9s-0.2-0.4-0.4-0.4c-0.2-0.2-1.1-0.4-1.1-1.3
			s0.5-4.8,0.5-4.8s-2.8-0.3-3.1-2.1c-0.2-1.8,1.3-4.1,2-5s3.8-4.6,3.8-4.6s-1.1-9.1,2-13.4C14.7,5.2,17.7,1.5,27.5,0.4z"/>
	</g>
	<g class="st1">
		<g>
			<defs>
				<path id="SVGID_21_" d="M27.5,0.4c0,0,9.5-1.4,15.2,2.3c5.7,3.6,9.3,7.7,10.2,13.6s-0.4,13.1-3,17.3c-2.7,4.5-4.5,7.2-4.8,7.9
					c-0.2,0.7-1.4,4.3-0.5,8.9c0.9,4.8,1.4,5.5,1.4,5.5l-26.1,0.5v-5.5c0,0-8.2,0.2-10.2-1.4c-2-1.6-2-3.4-1.4-4.6
					c0.4-1.1,0-1.3,0-1.4c0,0-1.1-0.5-1.1-1.6c0-0.7,0.7-0.9,0.7-0.9s-0.2-0.4-0.4-0.4c-0.2-0.2-1.1-0.4-1.1-1.3s0.5-4.8,0.5-4.8
					s-2.8-0.3-3.1-2.1c-0.2-1.8,1.3-4.1,2-5s3.8-4.6,3.8-4.6s-1.1-9.1,2-13.4C14.7,5.2,17.7,1.5,27.5,0.4z"/>
			</defs>
			<clipPath id="SVGID_22_">
				<use xlink:href="#SVGID_21_"  style="overflow:visible;"/>
			</clipPath>
			<path class="st63" d="M4.3,33.8c0,0,3-5.9,7.3-8.2c4.3-2.5,9.8-1.6,12.2-0.9s7,3.9,12.7,2c1.6-0.5,5.2-2.3,5.5-3
				c0,0,1.4-0.4,1.6,0.7c0.2,1.3-0.7,2.5-2.9,4.3c-2.1,1.8-3.4,8.9-6.8,27.7h-3c0,0,0.4-15.4-2.9-21.1c-3-5.5-8.4-12.9-22.3-1.1
				l-0.4,0.4L4.3,33.8z"/>
		</g>
	</g>
</g>
<g id="icon_62" class="st0">
	<circle class="st18" cx="28.6" cy="30.6" r="23.6"/>
	<circle class="st18" cx="8.3" cy="32.1" r="8.3"/>
	<circle class="st18" cx="48.6" cy="32.1" r="8.3"/>
	<rect x="34.1" y="3.6" class="st18" width="3.3" height="8"/>
	<rect x="26.8" y="2.4" class="st18" width="3.3" height="8"/>
	<rect x="19.6" y="3.8" class="st18" width="3.3" height="8"/>
	<path class="st64" d="M16.9,27.7h23c0,0,1.5,16.9-10.9,17C14.5,44.8,16.7,28.3,16.9,27.7z"/>
	<polyline class="st65" points="24.3,28.5 24.3,34.3 32.1,34.3 32.1,28.3 	"/>
</g>
<g id="icon_63" class="st0">
	<g class="st1">
		<g>
			<circle id="SVGID_19_" class="st8" cx="28.6" cy="31.7" r="23.1"/>
		</g>
		<g>
			<g>
				<g>
					<g>
						<g>
							<defs>
								<circle id="SVGID_23_" cx="28.6" cy="31.7" r="23.1"/>
							</defs>
							<clipPath id="SVGID_24_">
								<use xlink:href="#SVGID_23_"  style="overflow:visible;"/>
							</clipPath>
							<path class="st66" d="M33.8,8.4c0,0,5.7,10.2-1.1,13.5S20.9,21.3,20,15.1"/>
						</g>
					</g>
				</g>
			</g>
		</g>
	</g>
	<path class="st18" d="M7.8,36.8H4.4c-2.7,0-4.9-2.3-4.9-4.9l0,0c0-2.7,2.3-4.9,4.9-4.9h3.4c2.7,0,4.9,2.3,4.9,4.9l0,0
		C12.7,34.5,10.4,36.8,7.8,36.8z"/>
	<path class="st18" d="M52.5,36.8h-3.4c-2.7,0-4.9-2.3-4.9-4.9l0,0c0-2.7,2.3-4.9,4.9-4.9h3.4c2.7,0,4.9,2.3,4.9,4.9l0,0
		C57.5,34.5,55.2,36.8,52.5,36.8z"/>
	<path class="st67" d="M19.5,1.8c0,0,0,7.2,8,9.3c0,0-15.4,2.5-17.1-7.6"/>
	<path class="st49" d="M35.3,32.5c0,0,0.4-4.4,4-4.4s4.9,3.8,4.9,3.8"/>
	<path class="st49" d="M12.9,32.5c0,0,0.4-4.4,4-4.4s4.9,3.8,4.9,3.8"/>
	<path class="st49" d="M21.3,41.9c0,0,3,4.2,7.2,4c5.1-0.2,7-4,7-4"/>
</g>
<g id="icon_64" class="st0">
	<circle class="st68" cx="28" cy="41.6" r="13.4"/>
	<ellipse class="st69" cx="28.5" cy="30.5" rx="19.3" ry="7.2"/>
	<g class="st1">
		<path class="st8" d="M32,32c0,0-5.4-0.2-6.7-0.2c-2.2,0-3.7-2.2-3.7-5.4c0-1.7-1.7-4.9-2.4-5.9c-2.2-3.4-2.9-7.1-1.8-11.1
			C18.1,6,22.1,1.2,28.3,1h0.3c6,0,10.2,3.9,11.6,7.6c1.2,3.4,0.8,10.2-2.4,13.1c-2.7,2.4-3.4,6.7-3.4,7.2C34.2,31.2,32.8,32,32,32
			L32,32L32,32z"/>
		<path class="st70" d="M28.8,2.6c5.7,0,9.4,3.6,10.4,6.6c1.2,3,0.7,9.4-1.8,11.6c-2.5,2.4-3.5,6.2-3.9,8.1c-0.2,1.8-1.5,2-1.5,2
			s-5.4-0.2-6.7-0.2c-1.3,0-2.4-1.5-2.4-4s-2.5-6.6-2.5-6.6c-2.5-3.9-2.4-7.6-1.7-10.1c0.7-2.7,3.9-7.2,9.7-7.4c0.1,0,0.2,0,0.2,0
			 M28.8-0.1c-0.2,0-0.3,0-0.3,0C21.4,0.1,17,5.5,16.4,9.2c-1,4.4-0.3,8.4,2,12.1c0.8,1.3,2.2,4,2.2,5.2c0,4.5,2.5,6.6,4.9,6.6
			c1,0,5.2,0.2,6.7,0.2h0.2h0.1c1.2-0.2,3.4-1.2,3.7-4.2c0.2-1.5,1-4.7,3-6.4c3.7-3.2,4-10.8,2.7-14.4C40.2,4.3,35.5-0.1,28.8-0.1
			L28.8-0.1z"/>
	</g>
</g>
<g id="icon_65" class="st0">
	<path class="st17" d="M28.3,3.3c0,0,3.2-4.7,9.1-3.2c6.1,1.8,6.9,6.5,6.9,6.5s2.4,12.8-15.6,21.9c0,0-18.1-6.5-16.9-20.5
		c0.6-5.5,4.7-8.3,7.1-8.5C21.8-0.7,25.5-0.3,28.3,3.3z"/>
	<path class="st18" d="M42.2,57.1H14.7c-5.9,0-10.6-4.7-10.6-10.6l0,0c0-5.9,4.7-10.6,10.6-10.6h27.6c5.9,0,10.6,4.7,10.6,10.6l0,0
		C52.9,52.3,48.2,57.1,42.2,57.1z"/>
	<rect x="26.7" y="35.6" class="st24" width="3.5" height="21.5"/>
</g>
<g id="icon_66" class="st0">
	<path class="st18" d="M50.6,56.7H6.3c-1,0-1.6-0.8-1.6-1.6l0,0c0-1,0.8-1.6,1.6-1.6h44.3c1,0,1.6,0.8,1.6,1.6l0,0
		C52.2,55.9,51.6,56.7,50.6,56.7z"/>
	<path class="st18" d="M43.8,56.5H13c-2.7,0-4.9-2.3-4.9-4.9l0,0c0-2.7,2.3-4.9,4.9-4.9h30.6c2.7,0,4.9,2.3,4.9,4.9l0,0
		C48.7,54.3,46.5,56.5,43.8,56.5z"/>
	<path class="st18" d="M26.8,43.6H6.5c-1,0-1.8-0.8-1.8-1.8l0,0c0-1,0.8-1.8,1.8-1.8h20.3c1,0,1.8,0.8,1.8,1.8l0,0
		C28.6,42.8,27.8,43.6,26.8,43.6z"/>
	<rect x="14.9" y="42.6" class="st18" width="9.8" height="5.5"/>
	<path class="st18" d="M29.4,34.4L17.3,22.5L34,5.7c1.2-1.2,3.1-1.2,4.3,0l7.8,7.6c1.2,1.2,1.2,3.1,0,4.3L29.4,34.4z"/>
	
		<rect x="22.5" y="15.5" transform="matrix(0.7032 -0.711 0.711 0.7032 -12.2287 25.1123)" class="st18" width="2.9" height="23.4"/>
	<rect x="43.2" y="1.9" transform="matrix(0.7032 -0.711 0.711 0.7032 10.3458 35.0843)" class="st18" width="8" height="6.6"/>
	<path class="st18" d="M17.1,27.8l6.4,6.6c0,0-3.9,1.2-5.7-0.8C16.1,31.5,16.7,29.7,17.1,27.8z"/>
	<path class="st45" d="M42.4,27.2c0,0,5.1,6.8,2.1,15"/>
</g>
<g id="icon_67" class="st0">
	<path class="st18" d="M38.8,39.4V52l2.7,0.2c0,0,2.3-0.8,2.3-2.9s0-8,0-8s-0.8-2.1-2.5-2.1C39.4,39.4,38.8,39.4,38.8,39.4z"/>
	<path class="st18" d="M25.9,36.4l7.8-0.2c0,0,1.5-0.2,1.7,2.1s0.4,14.5,0.4,14.5s0.2,2.7-1.9,2.9S9.5,55.3,9.5,55.3s-1.4,0.7-2-4.4
		c-0.7-5-4.3-32.7-4.3-32.7S3,16.3,5.1,15.9c2.1-0.4,14.5-3.4,14.5-3.4s2.9-0.6,3.4,2.3C23.4,18.2,25.9,36.4,25.9,36.4z"/>
	<path class="st18" d="M4.3,12.5l15.5-3.6l-0.6-6.7c0,0,0-1.9-2.9-1.3S4.9,3,4.9,3S3.2,3.5,3.5,5.8C3.7,8.1,4.3,12.5,4.3,12.5z"/>
	<path class="st18" d="M52,45.9h-3.6c-0.8,0-1.7-0.8-1.7-1.7l0,0c0-0.8,0.8-1.7,1.7-1.7H52c0.8,0,1.7,0.8,1.7,1.7l0,0
		C53.7,45.3,52.8,45.9,52,45.9z"/>
	<path class="st18" d="M52.2,38.3l-3.4,1.3c-0.8,0.4-1.9,0-2.1-0.8l0,0c-0.4-0.8,0-1.9,0.8-2.1l3.4-1.3c0.8-0.4,1.9,0,2.1,0.8l0,0
		C53.5,37.1,53,37.9,52.2,38.3z"/>
	<path class="st18" d="M50.9,53.5l-3.3-1.3c-0.8-0.2-1.3-1.3-1.1-2.1l0,0c0.2-0.8,1.3-1.3,2.1-1.1l3.4,1.3c0.8,0.2,1.3,1.3,1.1,2.1
		l0,0C52.6,53.3,51.8,53.7,50.9,53.5z"/>
	<path class="st24" d="M3.9,22.6l0.4,3.2l10.1-2.3c0,0,1.3-0.6,0.8-2.1c-0.4-1.5-2.3-0.8-2.3-0.8L3.9,22.6z"/>
	<path class="st24" d="M4.7,28.7l0.4,3.2l10.3-2.3c0,0,1.3-0.6,0.8-2.1c-0.4-1.5-2.3-0.8-2.3-0.8L4.7,28.7z"/>
</g>
<g id="icon_68" class="st0">
	<path class="st18" d="M18.6,16.9c0,0,8.5-5.5,17.4-1.9s7.7,9.5,7.2,12.1s-2.6,4.9-3.1,9.5c-0.2,2,0.5,5.1,1.2,6.3s1.4,9.7-3.9,12.1
		c-6.5,2.9-11.1,0-14.2-5.8c-3.2-5.6-8-18.4-8.5-21.7C14.3,24.4,14.1,19.5,18.6,16.9z"/>
	<circle class="st18" cx="14.8" cy="10.9" r="4.9"/>
	<circle class="st18" cx="23.2" cy="6.2" r="4.9"/>
	<circle class="st18" cx="33.1" cy="5.1" r="4.9"/>
	<circle class="st18" cx="42.1" cy="8.4" r="4.9"/>
	<path class="st24" d="M28.8,21.9c0,0,1.5-2.2,4.4-1.5c2.9,0.9,3.2,3.2,3.2,3.2s1,6.1-7.5,10.4c0,0-8.7-3.1-8-9.9
		c0.2-2.7,2.2-3.9,3.4-4.1C25.7,20,27.6,20.2,28.8,21.9z"/>
</g>
<g id="icon_69" class="st0">
	<path class="st24" d="M35.2,3.3c0,0,6.3-1.3,9.1,0c3.6,1.7,6.3,5.9,4.2,13.3s-3.6,13.3-4,19.6c-0.6,6.3-5.1,10.3-7.8,10.7
		c-2.9,0.6-5.1-2.5-4.4-4.6c0.6-2.3,1.3-8.8,1.3-10.5c-0.2-3.2-1.9-5.7-4.4-5.7s-3.8,1.3-4.4,2.9c-0.6,1.7-1.7,7.8-0.8,10.7
		c0.6,2.9,0.2,7.2-2.5,7.4s-7.8-2.7-9.9-14.9s-3.1-15-3.8-16.5C6.3,10,7.8,3.1,14.1,2.4s11.2,2.3,13.3,2.5
		C29.7,4.9,33.1,3.7,35.2,3.3z"/>
	<path class="st17" d="M24,9.2c0,0,3.6,1.9,5.1,1.3c1.5-0.8,4.8-2.5,8.8-0.6s4,4.2,4,4.2s1.3,4.2-0.8,7.8s-1.5,10.5-1.5,10.5
		s0.2,2.5-1.1,2.5c-1.1,0-1.9-2.3-1.9-2.7s-1.3-9.1-6.9-10.1C24,21,23,26.5,22.1,28.4c-0.4,1.3-0.8,5.5-0.8,5.5s-0.2,1.9-1.3,1.9
		c-1.1-0.2-1.3-2.3-1.3-7.2s-1.5-5.5-2.3-8.4s-0.6-7.8,2.3-10.1C21.1,8.1,24,9.2,24,9.2z"/>
	<path class="st14" d="M4,32.5c0,0,2.9-0.4,5.1,6.5c2.1,7.6,8.4,11.4,10.3,11.8c1.9,0.4,7.8,1.9,8.6-3.4c1.1-5.3,0.6-3.4,0.6-3.4
		s0.2,5.7,2.9,6.5s7.8,1.1,11.2-2.5s5.9-10.1,6.1-11.8c0-1.7,0.8-4,4.4-4.2s3.4,4.2,3.4,5.5s0,14.5,0,14.5s0.2,2.1-2.5,2.1
		S1.9,54.2,1.9,54.2s-1.7-0.4-1.7-1.9s0-17.3,0-17.3S0.7,32.5,4,32.5z"/>
	<circle class="st34" cx="28" cy="18.2" r="1.7"/>
	<circle class="st34" cx="37.7" cy="26" r="1.7"/>
	<circle class="st34" cx="20.7" cy="23" r="1.7"/>
</g>
<g id="icon_70" class="st0">
	<path class="st18" d="M46.3,54.7H9.8c-1.9,0-3.5-1.6-3.5-3.5V26.4c0-1.9,1.6-3.5,3.5-3.5h36.5c1.9,0,3.5,1.6,3.5,3.5V51
		C50,53.1,48.4,54.7,46.3,54.7z"/>
	<path class="st18" d="M25.5,2.5c1.4-1.1,3.5-1.1,5,0l15.4,11.2l9.7,7.1c2.8,1.9,1.1,5.8-2.5,5.8H28H2.9c-3.5,0-5.3-3.9-2.5-5.8
		l9.7-7.1L25.5,2.5z"/>
	<path class="st24" d="M29.4,46h-3c-1.1,0-1.9-0.9-1.9-1.9V26.6c0-1.1,0.9-1.9,1.9-1.9h3c1.1,0,1.9,0.9,1.9,1.9v17.5
		C31.6,45.2,30.7,46,29.4,46z"/>
	<path class="st24" d="M38.8,33.6v3c0,1.1-0.9,1.9-1.9,1.9H19.2c-1.1,0-1.9-0.9-1.9-1.9v-3c0-1.1,0.9-1.9,1.9-1.9h17.7
		C37.9,31.5,38.8,32.4,38.8,33.6z"/>
</g>
<g id="icon_71" class="st0">
	<circle class="st18" cx="22.6" cy="6.4" r="5.6"/>
	<path class="st18" d="M24.4,28.9V17.3c0,0-0.8-2.5-2.5-2.9c-1.7-0.3-2.9-0.2-4.4,1.5c-1.7,1.7-6.8,6.6-6.8,6.6s-2.5,2.4-0.8,4.6
		c1.9,2.2,5.9,6.4,5.9,6.4s-4.1,13.4-4.4,14.1c-0.3,0.7-1.5,2.9-1.9,3.2c-0.3,0.3-1,2.5,1,4.1c1.9,1.5,4.2,1,5.3-0.3
		c1-1.4,5.4-9,6.9-17.5l9.3-0.2V43c0,0-0.2,1.9,0.8,1.7c1,0,6.3-0.2,6.3-0.2s0.7-0.2,0.5-2.4c-0.2-2.4,0-10.3,0-10.3
		s-0.5-2.7-3.2-2.9C33.4,28.9,24.4,28.9,24.4,28.9z"/>
	<path class="st18" d="M23.4,55.7l23.7-0.2c0,0,1.4-0.3,1.2-1.9c-0.2-1.5-0.5-9-10-9.5l-6.8,0.3c0,0-8.5,0.3-9.7,8.8
		C21.9,54.7,22.2,55.6,23.4,55.7z"/>
</g>
<g id="icon_72" class="st0">
	<g class="st1">
		<g>
			<g>
				<g>
					<g>
						<g>
							<defs>
								<path id="SVGID_25_" d="M8.6,17.5l0.5,17.4c0,0,1.2,9.5,9.3,16.2s9,5.8,9.5,5.8s4.9,0,11.4-7.6s8.4-12.7,8.4-16.5
									s0.8-15.5,0.8-15.5s2.1-2.6,2.6-3.7s3-7.2-3.5-11.3S19.1-0.5,17-0.3S8.6-0.5,5.8,7.1c-1.2,3.3-0.4,5.8,1.1,7.7
									C8.1,17,8.6,17.5,8.6,17.5z"/>
							</defs>
							<clipPath id="SVGID_27_">
								<use xlink:href="#SVGID_25_"  style="overflow:visible;"/>
							</clipPath>
							<path class="st71" d="M8.6,17.1l0.5,17.4c0,0,1.2,9.5,9.3,16.2s9,5.8,9.5,5.8s4.9,0,11.4-7.6s8.4-12.7,8.4-16.5
								S48.5,17,48.5,17s2.1-2.6,2.6-3.7c0.4-1.1,3-7.2-3.5-11.3S19.1-0.8,17-0.6S8.6-0.8,5.8,6.8c-1.2,3.3-0.4,5.8,1.1,7.7
								C8.1,16.4,8.6,17.1,8.6,17.1z"/>
						</g>
					</g>
				</g>
			</g>
		</g>
		<g>
			<g>
				<g>
					<g>
						<g>
							<defs>
								<path id="SVGID_28_" d="M8.6,17.5l0.5,17.4c0,0,1.2,9.5,9.3,16.2s9,5.8,9.5,5.8s4.9,0,11.4-7.6s8.4-12.7,8.4-16.5
									s0.8-15.5,0.8-15.5s2.1-2.6,2.6-3.7s3-7.2-3.5-11.3S19.1-0.5,17-0.3S8.6-0.5,5.8,7.1c-1.2,3.3-0.4,5.8,1.1,7.7
									C8.1,17,8.6,17.5,8.6,17.5z"/>
							</defs>
							<clipPath id="SVGID_29_">
								<use xlink:href="#SVGID_28_"  style="overflow:visible;"/>
							</clipPath>
							<path class="st72" d="M8.2,18.7c0,0,10.7-6.5,19.7-6.2c9.7,0.4,16,3,20.4,6.3"/>
						</g>
					</g>
				</g>
			</g>
		</g>
	</g>
	<path class="st18" d="M7,20.5L6.8,32.6c0,0-3.5,0-3.7-4s0-5.8,0-5.8S3.8,20.1,7,20.5z"/>
	<path class="st18" d="M49.9,20.6l0.2,12.1c0,0,3.5,0,3.7-4s0-5.8,0-5.8S53.1,20.3,49.9,20.6z"/>
	<line class="st32" x1="16.5" y1="20.3" x2="21.9" y2="20.3"/>
	<line class="st32" x1="34.6" y1="20.3" x2="39.9" y2="20.3"/>
	<polyline class="st32" points="26.3,30.1 26.5,38.8 30.6,38.6 	"/>
	<line class="st32" x1="24.8" y1="44.7" x2="31.4" y2="44.7"/>
	<line class="st32" x1="28.1" y1="48.4" x2="28.1" y2="53.2"/>
	<polyline class="st32" points="25.1,51.1 28.1,53.9 30.9,51.6 	"/>
	<path class="st32" d="M14.9,24.9c0,0,0.9,3.7,4.2,3.9c3.3,0,4.4-3.7,4.4-3.7"/>
	<path class="st32" d="M33.2,24.9c0,0,0.9,3.7,4.2,3.9c3.3,0,4.4-3.7,4.4-3.7"/>
	<path class="st32" d="M22.7,37.7c0,0-0.5,4.2-5.5,4.7"/>
	<polyline class="st32" points="17.7,39.5 16.8,42.5 19.1,44.6 	"/>
	<path class="st32" d="M22.1,31.9c0,0-3.3,5.6-9.8,2.6"/>
	<polyline class="st32" points="13.7,32.4 11.9,34.2 12.6,37.4 	"/>
	<path class="st32" d="M34.1,37.4c0,0,0.5,4.2,5.5,4.7"/>
	<polyline class="st32" points="39,39.1 39.7,42.1 37.6,44.4 	"/>
	<path class="st32" d="M34.4,31.7c0,0,3.3,5.6,9.8,2.6"/>
	<polyline class="st32" points="42.9,32.3 44.6,34.2 43.9,37.4 	"/>
	<line class="st32" x1="46.2" y1="10.4" x2="43.6" y2="15.4"/>
	<line class="st32" x1="37.2" y1="7.6" x2="35.7" y2="12.7"/>
	<line class="st32" x1="28.1" y1="6.8" x2="28.1" y2="12"/>
	<line class="st32" x1="19.3" y1="7.6" x2="20.9" y2="12.9"/>
	<line class="st32" x1="10.2" y1="11" x2="12.6" y2="15.5"/>
</g>
<g id="icon_73" class="st0">
	<path class="st18" d="M28.6-0.5l25.6,7.4c0,0,2.6,0,2.4,3.4s-0.8,34.5-28,46.9c0,0-27-10.4-28.2-47.3c0,0-0.2-2.2,2.6-3
		C5.8,5.9,28.6-0.5,28.6-0.5z"/>
	<path class="st24" d="M30.8,40.2H27c-1.6,0-2.8-1.2-2.8-2.8V17.3c0-1.6,1.2-2.8,2.8-2.8h3.8c1.6,0,2.8,1.2,2.8,2.8v20.2
		C33.4,39,32.2,40.2,30.8,40.2z"/>
	<path class="st24" d="M41.8,25.2V29c0,1.6-1.2,2.8-2.8,2.8H18.8c-1.6,0-2.8-1.2-2.8-2.8v-3.8c0-1.6,1.2-2.8,2.8-2.8H39
		C40.6,22.4,41.8,23.6,41.8,25.2z"/>
</g>
<g id="icon_74" class="st0">
	<path class="st18" d="M27.6-0.2c0,0,9.7-1.6,15.5,2.4c5.7,3.7,9.6,7.8,10.4,13.7s-0.4,13.3-3.2,17.8s-4.5,7.3-4.9,8
		c-0.2,0.7-1.6,4.3-0.5,9.2c0.9,4.9,1.6,5.6,1.6,5.6L19.7,57v-5.6c0,0-8.3,0.2-10.4-1.6c-2.1-1.7-2.1-3.5-1.6-4.7c0.3-1,0-1.4,0-1.6
		c0,0-1-0.5-1-1.7c0-0.7,0.7-0.9,0.7-0.9s-0.2-0.3-0.3-0.3c-0.2-0.2-1-0.3-1-1.4c0-0.9,0.5-4.9,0.5-4.9S3.6,34,3.3,32
		c-0.2-1.9,1.4-4.2,2.1-5c0.7-0.9,4-4.7,4-4.7s-1-9.4,2.1-13.6S17.5,1,27.6-0.2z"/>
	<path class="st32" d="M32.1,20.3c-0.5,0.2,0,4.9,4.5,3c2.8-1.2,3.5-6.4-0.3-8.3c-3.3-1.7-7.7-2.1-9.7,2.4
		c-2.3,4.7,0.3,8.9,2.8,10.4s10.4,3.5,13.9-3c3.5-6.6,1.7-13.2-3-15.3c-2.3-1-15-7-20,8.7"/>
</g>
<g id="icon_75" class="st0">
	<circle class="st18" cx="29.5" cy="18.3" r="18.1"/>
	<polygon class="st18" points="12.4,14.1 4.9,18.1 14.7,24 	"/>
	<path class="st18" d="M2.5,56l51.8,0.2c0,0,3,0.2,2.3-4c-0.8-4.4-3.2-12.4-15.8-12.6c-12.6,0-26.3,0-26.3,0S1.7,39.8,0.8,53.5
		C0.9,55.2,1.1,56,2.5,56z"/>
	<rect x="20.9" y="16.6" class="st24" width="3.4" height="3.6"/>
	<rect x="27.2" y="16.6" class="st24" width="3.4" height="3.6"/>
	<rect x="33.7" y="16.6" class="st24" width="3.4" height="3.6"/>
</g>
<g id="icon_77" class="st0">
	<path class="st18" d="M30.9,24.5h-4.3V3c0-1.3,0.9-2.2,2.2-2.2l0,0C30.1,0.8,31,1.7,31,3C30.9,3,30.9,24.5,30.9,24.5z"/>
	<path class="st18" d="M24.9,27.1c0,0,2.2-1.4,3.1-1.4c1.1,0,2-0.2,4.7,1.4l0.5-2.5l-2.9-1.1L27,23.3c0,0-2.2,1.1-2.7,1.3
		c-0.4,0.4-0.2,2.2-0.2,2.2L24.9,27.1z"/>
	<path class="st18" d="M37,8.3c0,0,5.8-2.2,12.6,7.4c6,8.5,9,17.2,6.5,31.4c-1.3,6.5-1.4,9-4.7,8.3S38,50.5,37.1,50
		s-5.1-2.5-4.7-9.2s0-24.4,0-24.4S33.1,8.8,37,8.3z"/>
	<line class="st49" x1="36.1" y1="27.2" x2="50.2" y2="34.6"/>
	<line class="st49" x1="40.3" y1="28.7" x2="46.4" y2="24.2"/>
	<line class="st49" x1="42.6" y1="23.6" x2="43.2" y2="26.2"/>
	<line class="st49" x1="48.8" y1="33.6" x2="51.1" y2="31.2"/>
	<polyline class="st49" points="44.4,32.5 44.6,37.5 47.5,40.4 	"/>
	<line class="st49" x1="41.9" y1="40.1" x2="44.6" y2="37.5"/>
	<path class="st18" d="M20.4,8.3c0,0-5.8-2.2-12.6,7.4c-6,8.5-9,17.2-6.5,31.4c1.3,6.5,1.4,9,4.7,8.3s13.4-4.9,14.3-5.4
		c0.9-0.7,5.1-2.5,4.7-9.2s0-24.4,0-24.4S24.4,9,20.4,8.3z"/>
	<line class="st49" x1="21.3" y1="27.4" x2="7.2" y2="34.8"/>
	<line class="st49" x1="17.2" y1="28.7" x2="11" y2="24.3"/>
	<line class="st49" x1="14.8" y1="23.8" x2="14.3" y2="26.3"/>
	<line class="st49" x1="8.7" y1="33.6" x2="6.3" y2="31.4"/>
	<polyline class="st49" points="13,32.7 12.8,37.5 9.9,40.6 	"/>
	<line class="st49" x1="15.5" y1="40.2" x2="12.8" y2="37.5"/>
</g>
<g id="icon_78" class="st0">
	<path class="st18" d="M17-0.4l23.5-0.2c0,0,3.5,17-11.3,17C16.3,16.4,17,8.3,17-0.4z"/>
	<polygon class="st18" points="20.2,40.5 37.6,40.5 40.4,54.2 43.9,54.2 43.9,57.2 13.5,57.2 13.5,53.7 17.4,53.7 	"/>
	<rect x="20.6" y="30.3" class="st18" width="16.8" height="6.5"/>
	<path class="st18" d="M23,18.8c0,0-3,0.9-2.6,7.6l-3.3,0.4l0.2,7.4c0,0-1.7-1.1-2.8-4.4l-3.3,1.1c0,0,2.6,5.7,3.9,6.9l1.9-1.5
		l-1.3,10c0,0-12-6.3-12.2-23.1C3.2,13.1,13.5,5,13.5,5s0.4,5.7,3,8.1c0,0-2.8-0.6-5.2,6.1l3.1,1.5c0,0,0.9-4.3,3.3-5.7
		C17.4,15,20.2,18.1,23,18.8z"/>
	<path class="st18" d="M34.6,18.8c0,0,3,0.9,2.6,7.6l3.3,0.4l-0.1,7.4c0,0,1.7-1.1,2.8-4.4l3.3,1.1c0,0-2.6,5.7-3.9,6.9l-1.9-1.6
		l1.5,10c0,0,12-6.3,12.2-23.1C54.6,13.1,44.2,5,44.2,5s-0.4,5.7-3,8.1c0,0,2.8-0.6,5.2,6.1l-3.1,1.5c0,0-0.9-4.3-3.3-5.7
		C40,15,37.4,18.1,34.6,18.8z"/>
</g>
<g id="icon_86" class="st0">
	<path class="st18" d="M3.9,52.5H2.1c-0.9,0-1.6-0.7-1.6-1.6V21.2c0-0.9,0.7-1.6,1.6-1.6h1.8c0.9,0,1.6,0.7,1.6,1.6v29.7
		C5.5,51.8,4.8,52.5,3.9,52.5z"/>
	<rect x="4.4" y="38.8" class="st18" width="52" height="5"/>
	<path class="st18" d="M54.6,52.5h-1.2c-1.1,0-1.8-0.9-1.8-1.8v-6.8c0-1.1,0.9-1.8,1.8-1.8h1.2c1.1,0,1.8,0.9,1.8,1.8v6.8
		C56.4,51.6,55.5,52.5,54.6,52.5z"/>
	<circle class="st18" cx="19.6" cy="19" r="5"/>
	<circle class="st18" cx="13.5" cy="30.6" r="5"/>
	<path class="st18" d="M18.8,39.3l8-16.2c0,0,1.1-2.7,4.3-1.4c3.2,1.2,19.6,7.7,19.6,7.7s5.3,2.1,5.5,6.8v6L18.8,39.3z"/>
	<path class="st17" d="M48.2,15.6c0,0,1.1-1.6,2.8-1.1c2,0.5,2.1,2.1,2.1,2.1s0.7,4.1-5,7.1c0,0-5.9-2.1-5.5-6.6
		c0.2-1.8,1.6-2.7,2.3-2.7C46.1,14.4,47.3,14.6,48.2,15.6z"/>
	<path class="st17" d="M44.8,5c0,0,0.7-1.2,2.1-0.7c1.4,0.4,1.6,1.6,1.6,1.6s0.5,3-3.7,5.3c0,0-4.5-1.6-4.1-5c0.2-1.4,1.1-2,1.8-2
		C43.2,4.1,44.1,4.1,44.8,5z"/>
	<path class="st17" d="M35.8,11.7c0,0,0.7-1.2,2.1-0.7c1.4,0.4,1.6,1.6,1.6,1.6s0.5,3-3.7,5.3c0,0-4.5-1.6-4.1-5
		c0.2-1.4,1.1-2,1.8-2C34.2,10.8,35,10.8,35.8,11.7z"/>
</g>
<g id="icon_88" class="st0">
	<path class="st18" d="M17.4,55.5L17.4,55.5c-7.6,0-14-6.4-14-14V15c0-7.6,6.4-14,14-14l0,0c7.6,0,14,6.4,14,14v26.5
		C31.4,49.3,25.1,55.5,17.4,55.5z"/>
	<rect x="3.4" y="27.1" class="st24" width="28" height="3.4"/>
	<polyline class="st73" points="37.6,22.2 44.6,22.2 38.4,28.8 45.4,28.8 	"/>
	<polyline class="st73" points="45.8,9.1 52.6,9.1 46.5,15.6 53.5,15.6 	"/>
</g>
<g id="icon_89" class="st0">
	<path class="st18" d="M6.9,9.3L12,5.1c1.1-0.9,2.7-0.7,3.5,0.3l10.9,12.8c0.9,1.1,0.7,2.6-0.4,3.5l-5.1,4.2
		c-1.1,0.9-2.6,0.7-3.5-0.4L6.6,12.8C5.7,11.6,5.9,10.2,6.9,9.3z"/>
	<path class="st18" d="M6.6,0.1L6.6,0.1c0.7-0.5,1.8-0.5,2.3,0.2l4,4.8c0.5,0.7,0.5,1.8-0.2,2.3l0,0c-0.7,0.5-1.8,0.5-2.3-0.2
		l-4-4.8C5.9,1.9,5.9,0.8,6.6,0.1z"/>
	<path class="st18" d="M3,3.1L3,3.1c0.7-0.5,1.8-0.5,2.3,0.2l4,4.8c0.5,0.7,0.5,1.8-0.2,2.3l0,0c-0.6,0.5-1.7,0.5-2.2-0.2l-4-4.8
		C2.3,4.9,2.3,3.8,3,3.1z"/>
	<path class="st18" d="M38.8,26c0,0-0.7,4-6,8.4s-8.4,5.6-11.4,4.4c-3-1.4-4.4-2.3-5.3-3.7c-0.9-1.4-1.9-3.2-2.1-4
		c-0.2-0.7-0.4-1.9,2.1-4s5.3-4.4,5.3-4.4l7.9-6.9c0,0,1.4-1.1,3.9,0.5s3,1.9,3.5,2.8c0.7,1.6,2.1,4.4,2.1,4.4S38.9,25,38.8,26z"/>
	<path class="st74" d="M43,29.4c0,0-1.2,15.5-18,14.8"/>
	<path class="st74" d="M49.7,30.4c0,0-3,21.3-24.8,20.2"/>
	<path class="st74" d="M55.3,30.2c0,0-1.6,26-31.2,26.6"/>
</g>
<g id="icon_90" class="st0">
	<circle class="st18" cx="11.9" cy="31.6" r="6.1"/>
	<path class="st18" d="M2.7,55.9h18.6c0,0,1.7,0.4,1.7-3.1c0.2-3.3,0.2-5.9,0.2-5.9s-0.7-6.3-9.2-6.3c-3.5,0-6.8,0.2-6.8,0.2
		s-6.3,0.4-6.3,7s0,7.2,0,7.2S1.1,55.9,2.7,55.9z"/>
	<circle class="st18" cx="45.7" cy="31.6" r="6.1"/>
	<path class="st18" d="M36.5,55.9h18.6c0,0,1.7,0.4,1.7-3.1c0.2-3.3,0.2-5.9,0.2-5.9s-0.7-6.3-9.2-6.3c-3.5,0-6.8,0.2-6.8,0.2
		s-6.3,0.4-6.3,7s0,7.2,0,7.2S34.8,55.9,36.5,55.9z"/>
	<ellipse class="st18" cx="28.7" cy="10.6" rx="14.2" ry="10"/>
	<path class="st18" d="M17.1,16.1l-1.5,4.1c0,0-0.6,2.2,0.2,2.4c0.9,0.2,1.8-0.2,2.9-1.1s3.7-2.6,3.7-2.6L17.1,16.1z"/>
	<path class="st18" d="M35,19.1l4.8,3.1c0,0,0.9,0.7,1.8,0.4c0.9-0.4,0.2-2.2,0.2-2.6s-1.5-4.4-1.5-4.4L35,19.1z"/>
	<path class="st24" d="M32.6,8h-8.1c-0.6,0-0.9-0.4-0.9-0.9l0,0c0-0.6,0.3-0.9,0.9-0.9h8.1c0.5,0,0.9,0.3,0.9,0.9l0,0
		C33.5,7.6,33.1,8,32.6,8z"/>
	<path class="st24" d="M33.9,11.5H23.2c-0.6,0-0.9-0.4-0.9-0.9l0,0c0-0.6,0.4-0.9,0.9-0.9h10.7c0.6,0,0.9,0.4,0.9,0.9l0,0
		C34.8,11.1,34.4,11.5,33.9,11.5z"/>
	<path class="st24" d="M32.6,14.6h-8.1c-0.6,0-0.9-0.4-0.9-0.9l0,0c0-0.6,0.4-0.9,0.9-0.9h8.1c0.6,0,0.9,0.4,0.9,0.9l0,0
		C33.5,14.3,33.1,14.6,32.6,14.6z"/>
</g>
<g id="icon_91" class="st0">
	<path class="st18" d="M14.7,56.7l10.8-0.2c0,0,1.8-3,5.4-2.8c1.8,0,2.4-0.2,2.6-1.8c0-1.8,0.2-3.4,0.2-3.4s-0.2-0.8-2.2-1
		c-2.2-0.2-2.8-1.4-3-1.8l-13.6-3.5c0,0-1.6,1.8-3.8,1.6S7.9,43,7.7,45c-0.2,2-0.6,4.6-0.6,4.6s-0.8,2,2.6,2.6s3.8,1.6,3.6,2.8
		S13.9,56.7,14.7,56.7z"/>
	<path class="st18" d="M15.5,39.2l13.7,3c0,0,1.2-0.8,2.4-0.4s3.8,0.6,4-0.4s0.8-3.8,0.8-3.8S36.2,36.2,35,36
		c-1.2-0.2-2.6-0.6-3-2.4l-13.1-6c0,0-1,1.6-2.8,1c-1.6-0.6-4-1.6-4.6,0.4c-0.6,1.8-1.4,4.8-1.4,4.8S9.9,36,11.9,36
		C13.5,36,15.3,37.2,15.5,39.2z"/>
	<path class="st18" d="M20.3,24.7l12.5,5.4c0,0,1.4,0,2.2,0.2c0.8,0,2.4,1,2.8,1.2s1.8-0.2,2.4-1.2c0.6-1,1.6-2.4,1.6-2.4
		s0.4-1.2-0.8-2.2s-2.4-1.2-3-3.4s-10.8-8.1-10.8-8.1s-2.2,1.2-4,0.2s-2.4-2.2-3.6-0.6c-1.1,1.5-3.1,4.3-3.1,4.3s-0.8,1.8,0.8,2.8
		C18.9,21.9,20.7,22.3,20.3,24.7z"/>
	<path class="st18" d="M28.8,11.2l10.9,8.1c0,0,2.4,0.2,3.6,1.4c1.2,1.2,2.2,1.4,3.4,0.4s3-3.2,3-3.2s0.6-1.2-0.6-2.6
		c-1.2-1.4-3-2.4-1.8-5c0.4-0.8,0-1.2-0.4-1.4s-6.8-6.2-6.8-6.2s-1.2-1.2-3.2-0.4c-1.9,0.9-4.1-2.1-4.1-2.1s-1-0.8-2.2,0.2
		s-4.2,4-4.2,4s-1,1.2,0.2,2.6s2.6,1.8,2.4,4C28.8,11.2,28.8,11.2,28.8,11.2z"/>
	<path class="st24" d="M23.3,50.9l-6.4-1c-1-0.2-1.8-1.2-1.6-2.2l0,0c0.2-1,1.2-1.8,2.2-1.6l6.4,1c1,0.2,1.8,1.2,1.6,2.2l0,0
		C25.5,50.3,24.5,51.1,23.3,50.9z"/>
	<path class="st24" d="M25.9,37.8L19.7,36c-1-0.4-1.6-1.4-1.4-2.4l0,0c0.4-1,1.4-1.6,2.4-1.4l6.2,1.8c1,0.4,1.6,1.4,1.4,2.4l0,0
		C28,37.6,27,38.2,25.9,37.8z"/>
	<path class="st24" d="M38.8,14.9L34,10.5c-0.8-0.8-0.8-2-0.2-2.8l0,0c0.8-0.8,2-0.8,2.8-0.2l4.8,4.4c0.8,0.8,0.8,2,0.2,2.8l0,0
		C40.8,15.7,39.6,15.7,38.8,14.9z"/>
	<path class="st24" d="M30.6,26.3L25,23.1c-1-0.6-1.2-1.8-0.8-2.8l0,0c0.6-1,1.8-1.2,2.8-0.8l5.6,3.2c1,0.6,1.2,1.8,0.8,2.8l0,0
		C32.8,26.5,31.6,26.9,30.6,26.3z"/>
</g>
<g id="icon_92" class="st0">
	<ellipse class="st18" cx="28.5" cy="28.3" rx="28" ry="28.4"/>
	<path class="st24" d="M10.5,11c0,0,5.5-4.5,10.6-2.4s7.3,7.3,4.7,13s-10.3,5.3-11.7,4.7C12.5,25.5,2.9,20.6,10.5,11z"/>
	<path class="st24" d="M7.8,31c0,0,8.3-7.5,15.8,2.2c4.9,6.5-2,13.2-3.5,13.6c-2,0.4-9.3,2-13-5.1C4,37,6.4,32,7.8,31z"/>
	<path class="st24" d="M33.4,24.7c0,0,15.4-0.2,16.3,0c1.2,0.2,3.2,1.8,2,5.7s-6.3,8.9-11.2,8.3c-5.1-0.6-10-6.5-9.8-11
		C30.8,25.5,32,24.7,33.4,24.7z"/>
	<path class="st24" d="M33.4,23.2c0,0,15.4,0.2,16.3,0c1-0.2,3.2-1.8,2-5.7c-1-3.7-6.3-8.9-11.2-8.3c-5.1,0.6-10,6.5-9.8,11
		C31,22.4,32.2,23.2,33.4,23.2z"/>
	<circle class="st24" cx="26.1" cy="5.3" r="2.2"/>
	<circle class="st24" cx="4.8" cy="25.7" r="2.2"/>
	<circle class="st24" cx="34" cy="45.4" r="2.2"/>
	<circle class="st24" cx="45.4" cy="41.3" r="2"/>
	<circle class="st24" cx="28.1" cy="51.1" r="2.2"/>
	<circle class="st18" cx="17.4" cy="16.1" r="3"/>
	<circle class="st18" cx="15.5" cy="36.6" r="3"/>
	<path class="st20" d="M37.5,23.6c0,0-0.6-6.9,3.5-7.5c4.1-0.6,4.5,4.1,4.5,7.3s0.6,7.1-1.6,8.5c-2.4,1.7-6.4,0.5-6.4-3.8
		C37.5,24,37.5,23.6,37.5,23.6z"/>
</g>
<g id="icon_93" class="st0">
	<g class="st1">
		<g>
			<circle id="SVGID_26_" class="st8" cx="28.5" cy="28.3" r="27.8"/>
		</g>
		<g>
			<g>
				<g>
					<g>
						<defs>
							<circle id="SVGID_30_" cx="28.5" cy="28.3" r="27.8"/>
						</defs>
						<clipPath id="SVGID_31_">
							<use xlink:href="#SVGID_30_"  style="overflow:visible;"/>
						</clipPath>
						<line class="st75" x1="46.2" y1="6.2" x2="9.8" y2="49.8"/>
					</g>
				</g>
			</g>
		</g>
	</g>
	<path class="st76" d="M18.4,36.7l1.5,6.2h17l1.5-5.7c0,0,5.7-4.6,5.8-9.5c0-5.8-2.2-11.9-8.4-15.2c-6.8-3.7-14.6-1.6-18.6,2.6
		C14.4,17.7,8.9,27.9,18.4,36.7z"/>
	<rect x="18.6" y="23.4" class="st24" width="3.3" height="6.9"/>
	<rect x="34.5" y="23.4" class="st24" width="3.3" height="6.9"/>
	<rect x="26.6" y="30.1" class="st24" width="3.3" height="3.3"/>
	<rect x="23.5" y="38.5" class="st24" width="3.1" height="4.9"/>
	<rect x="29.9" y="38.5" class="st24" width="3.1" height="4.9"/>
</g>
<g id="icon_94" class="st0">
	<path class="st18" d="M9.6,0.3h37.1c0,0,3.4-0.2,3.4,3.4c0,4.6,1.2,12.4,1.6,13.8c0.4,1.4,1.6,12.5,1.6,19.4s3.2,9.7,3.4,14
		c0.2,4.2,1.2,5.7-1.8,5.7s-53.4,0-53.4,0s-2.5-0.2-1.4-5.8c1.2-5.7,3-8.1,3.5-15.4C4,31.5,3.4,21.3,5,16.7C6.6,11.8,7,3.8,7,2.9
		C7.1,1.9,7.1,0.3,9.6,0.3z"/>
	<path class="st77" d="M29.2,5.8h-1.7c-0.9,0-1.6-0.7-1.6-1.6l0,0c0-0.9,0.7-1.6,1.6-1.6h1.8c0.9,0,1.6,0.7,1.6,1.6l0,0
		C30.8,5.1,30.1,5.8,29.2,5.8z"/>
	<rect x="26.9" y="45" class="st77" width="3.4" height="11.3"/>
	<path class="st78" d="M35.2,31.4l-2.6,2.8v7.6c0,0,0.2,3.9-3.5,3.9c-3.4,0-4.6-1.8-4.6-3.2s0-8.8,0-8.8L22,31.4"/>
</g>
<g id="icon_95" class="st0">
	<path class="st18" d="M14.8,1l12.5-0.4c0,0,2.8-0.6,2.2,3.7c-0.6,4.3-3.4,29.3-3.5,30.8s0,7.1,4.5,8.6c4.5,1.5,16.4,6.7,15.1,9.3
		c-1.3,2.6-3.9,3.2-6.5,2.4c-2.8-0.6-13.1-4.1-21.5-1.5c-4.1,1.3-6.5-2.6-6.3-4.9c0.2-2.1,2.8-5.6,3.2-7.3c0.2-1.7,0.6-4.3-0.4-9
		c-0.9-4.5-3.5-21.1-2.6-26.3C12.4,1.6,12.6,1,14.8,1z"/>
	<path class="st22" d="M21.5,7.2c0,0-5.2,4.7-4.5,14s3.9,9,3.7,18.3c-0.2,6.2-0.9,8.8-0.9,8.8"/>
	<path class="st22" d="M21.2,41.8c0,0,2.2,5.8,5,7.8"/>
	<path class="st22" d="M18.9,12.1c0,0,3.4,3.5,3.4,8s1.9,7.5,1.9,7.5"/>
	<path class="st22" d="M13.3,13.6c0,0,0.7,6.2,3.5,9"/>
	<path class="st79" d="M18.7,29.2c0,0-0.7,4.5-1.3,6.7"/>
	<path class="st80" d="M23.4,45.5c0,0,8.2,0.7,11.2,2.8"/>
	<path class="st79" d="M30.3,47.4c0,0-0.2,3.2,2.6,4.5"/>
	<path class="st79" d="M34,48.1c0,0,0.4,2.6,2.6,2.6"/>
</g>
<g id="icon_96" class="st0">
	<path class="st18" d="M9.4,0.4h37.2c0,0,3.6-0.4,2.5,3.3c-0.4,1-0.8,10.7,1.9,16.7c2.7,5.9,5.4,14.4,2.3,29.5
		c-1.1,5.7-1.5,6.1-4.6,6.3c-3.1,0-41.8,0-41.8,0s-2.3,0.6-3.1-3.1S0,32.2,3.9,22.6C5.2,19.1,6.5,13.2,6.7,9S6.5,1.7,6.5,1.7
		S6.7,0.4,9.4,0.4z"/>
	<path class="st32" d="M23.8,30.6c0,0-0.8,19.3,4,19.3s4.4-19,4.4-19"/>
	<path class="st32" d="M39.9,38.1c0,0-2.1,5.7-7.9,5.2"/>
	<rect x="26.5" y="49.2" class="st24" width="2.7" height="6.9"/>
	<circle class="st17" cx="24.6" cy="43.3" r="3.3"/>
	<circle class="st17" cx="31.8" cy="37.7" r="4.4"/>
	<circle class="st81" cx="31.6" cy="37.9" r="2.3"/>
</g>
<g id="icon_97" class="st0">
	<path class="st18" d="M5.8,50.7L5.8,50.7c-6.3-6.3-6.1-16.3,0-22.6L28.6,5.5c6.3-6.3,16.3-6.1,22.6,0l0,0c6.3,6.3,6.1,16.3,0,22.6
		L28.4,50.7C22.1,57,11.9,56.8,5.8,50.7z"/>
	
		<rect x="25.8" y="12.1" transform="matrix(0.7098 -0.7044 0.7044 0.7098 -11.5082 28.1877)" class="st24" width="5.3" height="31.9"/>
	<path class="st82" d="M25.7,42.1c0,0,1,13.5,12.9,13.7c12,0.2,13.5-11,13.3-13.7c0,0,0.6-1.5-1.5-1.5c-1.9,0-6.5,1.3-8,3.4
		l-5.7,2.9l-2.1-3.8c0,0-3-2.3-7.4-2.5C27.5,40.4,25.7,40,25.7,42.1z"/>
	<path class="st40" d="M39.4,35.7c0,0,9.7,8.6,0.4,19.2c0,0-1,1-1.7,0.2s-8.7-9.9-0.4-19.2C37.7,35.9,38.5,34.7,39.4,35.7z"/>
</g>
<g id="icon_98" class="st0">
	<circle class="st18" cx="28.2" cy="6.9" r="6.8"/>
	<path class="st18" d="M13.3,47.1l10-3.9L11.5,39c0,0-3.1-0.9-4.1,1.7c-1.1,3,1.5,4.4,1.8,4.6C9.8,45.7,13.3,47.1,13.3,47.1z"/>
	<path class="st18" d="M34.3,54.3l7.7-3.1c0,0,1.5,3.3-0.6,4.4C39.7,56.9,37.6,56.5,34.3,54.3z"/>
	<path class="st18" d="M48.1,45.1L18.3,56.2c-1.7,0.6-3.5-0.2-4.2-1.8v-0.2c-0.6-1.7,0.2-3.5,1.8-4.2l29.9-11.1
		c1.7-0.6,3.5,0.2,4.2,1.8v0.2C50.5,42.7,49.8,44.6,48.1,45.1z"/>
	<path class="st18" d="M21.2,25.9l0.2,12.7l7.2,3l7-3V25.7l3.9,7.4c0,0,1.1,2.4,2.8,2.4s12.4-0.2,12.4-0.2s2.6-0.2,2.4-3.5
		c0-3.5-3.3-3.3-3.3-3.3l-8.7,0.2l-5.7-11.8c0,0-0.9-2.8-4.6-2.8s-12.9,0.2-12.9,0.2s-2.8,0-4.2,3.3c-1.3,3.3-5.2,10.7-5.2,10.7h-10
		c0,0-2.2,0-2.4,3.3s2.4,3.7,3.3,3.7c0.7,0,11.1-0.2,11.1-0.2s2.2,0,3.5-2.6C19,30,21.2,25.9,21.2,25.9z"/>
</g>
</svg>
