<svg width="219" height="48" viewBox="0 0 219 48" fill="none" xmlns="http://www.w3.org/2000/svg">
<path fill-rule="evenodd" clip-rule="evenodd" d="M16.0004 32C16.0004 40.8365 23.1638 48 32.0004 48V32H48V16H32.0004V16H16.0004V16H16V32H16.0004Z" fill="#8AD7F5"/>
<path fill-rule="evenodd" clip-rule="evenodd" d="M16 31.9999V32H32V31.9999H32V15.9999H32V0H16V15.9999H0V31.9999H16Z" fill="#1341A3" fill-opacity="0.85"/>
<path d="M67.0625 22H61.3906V6H67.1094C68.7188 6 70.1042 6.32031 71.2656 6.96094C72.4271 7.59635 73.3203 8.51042 73.9453 9.70312C74.5755 10.8958 74.8906 12.3229 74.8906 13.9844C74.8906 15.651 74.5755 17.0833 73.9453 18.2812C73.3203 19.4792 72.4219 20.3984 71.25 21.0391C70.0833 21.6797 68.6875 22 67.0625 22ZM64.7734 19.1016H66.9219C67.9219 19.1016 68.763 18.9245 69.4453 18.5703C70.1328 18.2109 70.6484 17.6562 70.9922 16.9062C71.3411 16.151 71.5156 15.1771 71.5156 13.9844C71.5156 12.8021 71.3411 11.8359 70.9922 11.0859C70.6484 10.3359 70.1354 9.78385 69.4531 9.42969C68.7708 9.07552 67.9297 8.89844 66.9297 8.89844H64.7734V19.1016ZM77.334 22V10H80.6621V22H77.334ZM79.0059 8.45312C78.5111 8.45312 78.0866 8.28906 77.7324 7.96094C77.3835 7.6276 77.209 7.22917 77.209 6.76562C77.209 6.30729 77.3835 5.91406 77.7324 5.58594C78.0866 5.2526 78.5111 5.08594 79.0059 5.08594C79.5007 5.08594 79.9225 5.2526 80.2715 5.58594C80.6257 5.91406 80.8027 6.30729 80.8027 6.76562C80.8027 7.22917 80.6257 7.6276 80.2715 7.96094C79.9225 8.28906 79.5007 8.45312 79.0059 8.45312ZM88.7344 26.75C87.6563 26.75 86.7318 26.6016 85.9609 26.3047C85.1953 26.013 84.5859 25.6146 84.1328 25.1094C83.6797 24.6042 83.3854 24.0365 83.25 23.4062L86.3281 22.9922C86.4219 23.2318 86.5703 23.4557 86.7734 23.6641C86.9766 23.8724 87.2448 24.0391 87.5781 24.1641C87.9167 24.2943 88.3281 24.3594 88.8125 24.3594C89.5365 24.3594 90.1328 24.1823 90.6016 23.8281C91.0755 23.4792 91.3125 22.8932 91.3125 22.0703V19.875H91.1719C91.026 20.2083 90.8073 20.5234 90.5156 20.8203C90.224 21.1172 89.849 21.3594 89.3906 21.5469C88.9323 21.7344 88.3854 21.8281 87.75 21.8281C86.849 21.8281 86.0286 21.6198 85.2891 21.2031C84.5547 20.7812 83.9688 20.138 83.5313 19.2734C83.099 18.4036 82.8828 17.3047 82.8828 15.9766C82.8828 14.6172 83.1042 13.4818 83.5469 12.5703C83.9896 11.6589 84.5781 10.9766 85.3125 10.5234C86.0521 10.0703 86.862 9.84375 87.7422 9.84375C88.4141 9.84375 88.9766 9.95833 89.4297 10.1875C89.8828 10.4115 90.2474 10.6927 90.5234 11.0312C90.8047 11.3646 91.0208 11.6927 91.1719 12.0156H91.2969V10H94.6016V22.1172C94.6016 23.138 94.3516 23.9922 93.8516 24.6797C93.3516 25.3672 92.6589 25.8828 91.7734 26.2266C90.8932 26.5755 89.8802 26.75 88.7344 26.75ZM88.8047 19.3281C89.3411 19.3281 89.7943 19.1953 90.1641 18.9297C90.5391 18.6589 90.8255 18.2734 91.0234 17.7734C91.2266 17.2682 91.3281 16.6641 91.3281 15.9609C91.3281 15.2578 91.2292 14.6484 91.0313 14.1328C90.8333 13.612 90.5469 13.2083 90.1719 12.9219C89.7969 12.6354 89.3411 12.4922 88.8047 12.4922C88.2578 12.4922 87.7969 12.6406 87.4219 12.9375C87.0469 13.2292 86.763 13.6354 86.5703 14.1562C86.3776 14.6771 86.2813 15.2786 86.2813 15.9609C86.2813 16.6536 86.3776 17.2526 86.5703 17.7578C86.7682 18.2578 87.0521 18.6458 87.4219 18.9219C87.7969 19.1927 88.2578 19.3281 88.8047 19.3281ZM97.25 22V10H100.578V22H97.25ZM98.9219 8.45312C98.4271 8.45312 98.0026 8.28906 97.6484 7.96094C97.2995 7.6276 97.125 7.22917 97.125 6.76562C97.125 6.30729 97.2995 5.91406 97.6484 5.58594C98.0026 5.2526 98.4271 5.08594 98.9219 5.08594C99.4167 5.08594 99.8385 5.2526 100.188 5.58594C100.542 5.91406 100.719 6.30729 100.719 6.76562C100.719 7.22917 100.542 7.6276 100.188 7.96094C99.8385 8.28906 99.4167 8.45312 98.9219 8.45312ZM109.627 10V12.5H102.4V10H109.627ZM104.041 7.125H107.369V18.3125C107.369 18.6198 107.416 18.8594 107.51 19.0312C107.604 19.1979 107.734 19.3151 107.9 19.3828C108.072 19.4505 108.27 19.4844 108.494 19.4844C108.65 19.4844 108.807 19.4714 108.963 19.4453C109.119 19.4141 109.239 19.3906 109.322 19.375L109.846 21.8516C109.679 21.9036 109.445 21.9635 109.143 22.0313C108.84 22.1042 108.473 22.1484 108.041 22.1641C107.239 22.1953 106.536 22.0885 105.932 21.8437C105.333 21.599 104.867 21.2187 104.533 20.7031C104.2 20.1875 104.036 19.5365 104.041 18.75V7.125ZM115.217 22.2266C114.451 22.2266 113.769 22.0938 113.17 21.8281C112.571 21.5573 112.097 21.1589 111.748 20.6328C111.404 20.1016 111.232 19.4401 111.232 18.6484C111.232 17.9818 111.355 17.4219 111.6 16.9687C111.844 16.5156 112.178 16.151 112.6 15.875C113.021 15.599 113.501 15.3906 114.037 15.25C114.579 15.1094 115.146 15.0104 115.74 14.9531C116.438 14.8802 117.001 14.8125 117.428 14.75C117.855 14.6823 118.165 14.5833 118.357 14.4531C118.55 14.3229 118.646 14.1302 118.646 13.875V13.8281C118.646 13.3333 118.49 12.9505 118.178 12.6797C117.87 12.4089 117.433 12.2734 116.865 12.2734C116.266 12.2734 115.79 12.4062 115.436 12.6719C115.081 12.9323 114.847 13.2604 114.732 13.6562L111.654 13.4062C111.811 12.6771 112.118 12.0469 112.576 11.5156C113.035 10.9792 113.626 10.5677 114.35 10.2812C115.079 9.98958 115.923 9.84375 116.881 9.84375C117.548 9.84375 118.186 9.92187 118.795 10.0781C119.41 10.2344 119.954 10.4766 120.428 10.8047C120.907 11.1328 121.285 11.5547 121.561 12.0703C121.837 12.5807 121.975 13.1927 121.975 13.9062V22H118.818V20.3359H118.725C118.532 20.7109 118.274 21.0417 117.951 21.3281C117.628 21.6094 117.24 21.8307 116.787 21.9922C116.334 22.1484 115.811 22.2266 115.217 22.2266ZM116.17 19.9297C116.66 19.9297 117.092 19.8333 117.467 19.6406C117.842 19.4427 118.136 19.1771 118.35 18.8438C118.563 18.5104 118.67 18.1328 118.67 17.7109V16.4375C118.566 16.5052 118.423 16.5677 118.24 16.625C118.063 16.6771 117.863 16.7266 117.639 16.7734C117.415 16.8151 117.191 16.8542 116.967 16.8906C116.743 16.9219 116.54 16.9505 116.357 16.9766C115.967 17.0339 115.626 17.125 115.334 17.25C115.042 17.375 114.816 17.5443 114.654 17.7578C114.493 17.9661 114.412 18.2266 114.412 18.5391C114.412 18.9922 114.576 19.3385 114.904 19.5781C115.238 19.8125 115.66 19.9297 116.17 19.9297ZM127.885 6V22H124.557V6H127.885ZM135.705 22V6H139.088V12.6016H145.955V6H149.33V22H145.955V15.3906H139.088V22H135.705ZM157.525 22.2344C156.291 22.2344 155.229 21.9844 154.338 21.4844C153.452 20.9792 152.77 20.2656 152.291 19.3437C151.812 18.4167 151.572 17.3203 151.572 16.0547C151.572 14.8203 151.812 13.737 152.291 12.8047C152.77 11.8724 153.445 11.1458 154.314 10.625C155.189 10.1042 156.215 9.84375 157.393 9.84375C158.184 9.84375 158.921 9.97135 159.604 10.2266C160.291 10.4766 160.89 10.8542 161.4 11.3594C161.916 11.8646 162.317 12.5 162.604 13.2656C162.89 14.026 163.033 14.9167 163.033 15.9375V16.8516H152.9V14.7891H159.9C159.9 14.3099 159.796 13.8854 159.588 13.5156C159.38 13.1458 159.09 12.8568 158.721 12.6484C158.356 12.4349 157.932 12.3281 157.447 12.3281C156.942 12.3281 156.494 12.4453 156.104 12.6797C155.718 12.9089 155.416 13.2187 155.197 13.6094C154.979 13.9948 154.867 14.4245 154.861 14.8984V16.8594C154.861 17.4531 154.971 17.9661 155.189 18.3984C155.413 18.8307 155.729 19.1641 156.135 19.3984C156.541 19.6328 157.023 19.75 157.58 19.75C157.95 19.75 158.288 19.6979 158.596 19.5938C158.903 19.4896 159.166 19.3333 159.385 19.125C159.604 18.9167 159.77 18.6615 159.885 18.3594L162.963 18.5625C162.807 19.3021 162.486 19.9479 162.002 20.5C161.523 21.0469 160.903 21.474 160.143 21.7813C159.387 22.0833 158.515 22.2344 157.525 22.2344ZM168.627 22.2266C167.861 22.2266 167.179 22.0938 166.58 21.8281C165.981 21.5573 165.507 21.1589 165.158 20.6328C164.814 20.1016 164.643 19.4401 164.643 18.6484C164.643 17.9818 164.765 17.4219 165.01 16.9687C165.255 16.5156 165.588 16.151 166.01 15.875C166.432 15.599 166.911 15.3906 167.447 15.25C167.989 15.1094 168.557 15.0104 169.15 14.9531C169.848 14.8802 170.411 14.8125 170.838 14.75C171.265 14.6823 171.575 14.5833 171.768 14.4531C171.96 14.3229 172.057 14.1302 172.057 13.875V13.8281C172.057 13.3333 171.9 12.9505 171.588 12.6797C171.281 12.4089 170.843 12.2734 170.275 12.2734C169.676 12.2734 169.2 12.4062 168.846 12.6719C168.492 12.9323 168.257 13.2604 168.143 13.6562L165.064 13.4062C165.221 12.6771 165.528 12.0469 165.986 11.5156C166.445 10.9792 167.036 10.5677 167.76 10.2812C168.489 9.98958 169.333 9.84375 170.291 9.84375C170.958 9.84375 171.596 9.92187 172.205 10.0781C172.82 10.2344 173.364 10.4766 173.838 10.8047C174.317 11.1328 174.695 11.5547 174.971 12.0703C175.247 12.5807 175.385 13.1927 175.385 13.9062V22H172.229V20.3359H172.135C171.942 20.7109 171.684 21.0417 171.361 21.3281C171.038 21.6094 170.65 21.8307 170.197 21.9922C169.744 22.1484 169.221 22.2266 168.627 22.2266ZM169.58 19.9297C170.07 19.9297 170.502 19.8333 170.877 19.6406C171.252 19.4427 171.546 19.1771 171.76 18.8438C171.973 18.5104 172.08 18.1328 172.08 17.7109V16.4375C171.976 16.5052 171.833 16.5677 171.65 16.625C171.473 16.6771 171.273 16.7266 171.049 16.7734C170.825 16.8151 170.601 16.8542 170.377 16.8906C170.153 16.9219 169.95 16.9505 169.768 16.9766C169.377 17.0339 169.036 17.125 168.744 17.25C168.452 17.375 168.226 17.5443 168.064 17.7578C167.903 17.9661 167.822 18.2266 167.822 18.5391C167.822 18.9922 167.986 19.3385 168.314 19.5781C168.648 19.8125 169.07 19.9297 169.58 19.9297ZM181.295 6V22H177.967V6H181.295ZM190.344 10V12.5H183.117V10H190.344ZM184.758 7.125H188.086V18.3125C188.086 18.6198 188.133 18.8594 188.227 19.0312C188.32 19.1979 188.451 19.3151 188.617 19.3828C188.789 19.4505 188.987 19.4844 189.211 19.4844C189.367 19.4844 189.523 19.4714 189.68 19.4453C189.836 19.4141 189.956 19.3906 190.039 19.375L190.563 21.8516C190.396 21.9036 190.161 21.9635 189.859 22.0313C189.557 22.1042 189.19 22.1484 188.758 22.1641C187.956 22.1953 187.253 22.0885 186.648 21.8437C186.049 21.599 185.583 21.2187 185.25 20.7031C184.917 20.1875 184.753 19.5365 184.758 18.75V7.125ZM196.098 15.0625V22H192.77V6H196.004V12.1172H196.145C196.415 11.4089 196.853 10.8542 197.457 10.4531C198.061 10.0469 198.819 9.84375 199.73 9.84375C200.564 9.84375 201.29 10.026 201.91 10.3906C202.535 10.75 203.02 11.2682 203.363 11.9453C203.712 12.6172 203.884 13.4219 203.879 14.3594V22H200.551V14.9531C200.556 14.2135 200.368 13.638 199.988 13.2266C199.613 12.8151 199.087 12.6094 198.41 12.6094C197.957 12.6094 197.556 12.7057 197.207 12.8984C196.863 13.0911 196.592 13.3724 196.395 13.7422C196.202 14.1068 196.103 14.5469 196.098 15.0625Z" fill="#1341A3"/>
<path d="M60.7891 36H62.5625L64.9375 41.7969H65.0313L67.4063 36H69.1797V44H67.7891V38.5039H67.7148L65.5039 43.9766H64.4648L62.2539 38.4922H62.1797V44H60.7891V36ZM71.2578 44V36H76.4609V37.2148H72.707V39.3867H76.1914V40.6016H72.707V42.7852H76.4922V44H71.2578ZM81.1504 44H78.4395V36H81.2051C81.9993 36 82.6816 36.1602 83.252 36.4805C83.8249 36.7982 84.265 37.2552 84.5723 37.8516C84.8796 38.4479 85.0332 39.1615 85.0332 39.9922C85.0332 40.8255 84.8783 41.5417 84.5684 42.1406C84.2611 42.7396 83.8171 43.1992 83.2363 43.5195C82.6582 43.8398 81.9629 44 81.1504 44ZM79.8887 42.7461H81.0801C81.6374 42.7461 82.1022 42.6445 82.4746 42.4414C82.847 42.2357 83.127 41.9297 83.3145 41.5234C83.502 41.1146 83.5957 40.6042 83.5957 39.9922C83.5957 39.3802 83.502 38.8724 83.3145 38.4687C83.127 38.0625 82.8496 37.7591 82.4824 37.5586C82.1178 37.3555 81.6647 37.2539 81.123 37.2539H79.8887V42.7461ZM86.9102 44V36H89.9102C90.5247 36 91.0404 36.1146 91.457 36.3437C91.8763 36.5729 92.1927 36.888 92.4063 37.2891C92.6224 37.6875 92.7305 38.1406 92.7305 38.6484C92.7305 39.1615 92.6224 39.6172 92.4063 40.0156C92.1901 40.4141 91.8711 40.7279 91.4492 40.957C91.0273 41.1836 90.5078 41.2969 89.8906 41.2969H87.9023V40.1055H89.6953C90.0547 40.1055 90.349 40.043 90.5781 39.918C90.8073 39.793 90.9766 39.6211 91.0859 39.4023C91.1979 39.1836 91.2539 38.9323 91.2539 38.6484C91.2539 38.3646 91.1979 38.1146 91.0859 37.8984C90.9766 37.6823 90.806 37.5143 90.5742 37.3945C90.3451 37.2721 90.0495 37.2109 89.6875 37.2109H88.3594V44H86.9102ZM94.4893 44V36H95.9385V39.3867H99.6455V36H101.099V44H99.6455V40.6016H95.9385V44H94.4893ZM104.202 44H102.655L105.472 36H107.261L110.081 44H108.534L106.397 37.6406H106.335L104.202 44ZM104.253 40.8633H108.472V42.0273H104.253V40.8633ZM111.635 44V36H114.635C115.249 36 115.765 36.1068 116.182 36.3203C116.601 36.5339 116.917 36.8333 117.131 37.2187C117.347 37.6016 117.455 38.0482 117.455 38.5586C117.455 39.0716 117.346 39.5169 117.127 39.8945C116.911 40.2695 116.592 40.5599 116.17 40.7656C115.748 40.9687 115.23 41.0703 114.615 41.0703H112.479V39.8672H114.42C114.779 39.8672 115.074 39.8177 115.303 39.7187C115.532 39.6172 115.701 39.4701 115.811 39.2773C115.923 39.082 115.979 38.8424 115.979 38.5586C115.979 38.2747 115.923 38.0326 115.811 37.832C115.699 37.6289 115.528 37.4753 115.299 37.3711C115.07 37.2643 114.774 37.2109 114.412 37.2109H113.084V44H111.635ZM115.768 40.375L117.748 44H116.131L114.186 40.375H115.768ZM119.289 36H121.063L123.438 41.7969H123.531L125.906 36H127.68V44H126.289V38.5039H126.215L124.004 43.9766H122.965L120.754 38.4922H120.68V44H119.289V36ZM139.834 38.6992H138.373C138.331 38.4596 138.255 38.2474 138.143 38.0625C138.031 37.875 137.891 37.7161 137.725 37.5859C137.558 37.4557 137.368 37.3581 137.154 37.293C136.943 37.2253 136.715 37.1914 136.471 37.1914C136.036 37.1914 135.65 37.3008 135.314 37.5195C134.979 37.7357 134.715 38.0534 134.525 38.4727C134.335 38.8893 134.24 39.3984 134.24 40C134.24 40.612 134.335 41.1276 134.525 41.5469C134.718 41.9635 134.981 42.2786 135.314 42.4922C135.65 42.7031 136.035 42.8086 136.467 42.8086C136.706 42.8086 136.93 42.7773 137.139 42.7148C137.35 42.6497 137.538 42.5547 137.705 42.4297C137.874 42.3047 138.016 42.151 138.131 41.9687C138.248 41.7865 138.329 41.5781 138.373 41.3437L139.834 41.3516C139.779 41.7318 139.661 42.0885 139.479 42.4219C139.299 42.7552 139.063 43.0495 138.771 43.3047C138.48 43.5573 138.139 43.7552 137.748 43.8984C137.357 44.0391 136.924 44.1094 136.447 44.1094C135.744 44.1094 135.117 43.9466 134.564 43.6211C134.012 43.2956 133.577 42.8255 133.26 42.2109C132.942 41.5964 132.783 40.8594 132.783 40C132.783 39.138 132.943 38.401 133.264 37.7891C133.584 37.1745 134.02 36.7044 134.572 36.3789C135.124 36.0534 135.749 35.8906 136.447 35.8906C136.893 35.8906 137.307 35.9531 137.689 36.0781C138.072 36.2031 138.413 36.3867 138.713 36.6289C139.012 36.8685 139.258 37.1628 139.451 37.5117C139.646 37.8581 139.774 38.2539 139.834 38.6992ZM148.81 40C148.81 40.862 148.648 41.6003 148.325 42.2148C148.005 42.8268 147.567 43.2956 147.013 43.6211C146.461 43.9466 145.834 44.1094 145.134 44.1094C144.433 44.1094 143.806 43.9466 143.251 43.6211C142.699 43.293 142.261 42.8229 141.938 42.2109C141.618 41.5964 141.458 40.8594 141.458 40C141.458 39.138 141.618 38.401 141.938 37.7891C142.261 37.1745 142.699 36.7044 143.251 36.3789C143.806 36.0534 144.433 35.8906 145.134 35.8906C145.834 35.8906 146.461 36.0534 147.013 36.3789C147.567 36.7044 148.005 37.1745 148.325 37.7891C148.648 38.401 148.81 39.138 148.81 40ZM147.353 40C147.353 39.3932 147.257 38.8815 147.067 38.4648C146.88 38.0456 146.619 37.7292 146.286 37.5156C145.953 37.2995 145.569 37.1914 145.134 37.1914C144.699 37.1914 144.315 37.2995 143.981 37.5156C143.648 37.7292 143.386 38.0456 143.196 38.4648C143.009 38.8815 142.915 39.3932 142.915 40C142.915 40.6068 143.009 41.1198 143.196 41.5391C143.386 41.9557 143.648 42.2721 143.981 42.4883C144.315 42.7018 144.699 42.8086 145.134 42.8086C145.569 42.8086 145.953 42.7018 146.286 42.4883C146.619 42.2721 146.88 41.9557 147.067 41.5391C147.257 41.1198 147.353 40.6068 147.353 40ZM157.254 36V44H155.965L152.195 38.5508H152.129V44H150.68V36H151.977L155.742 41.4531H155.813V36H157.254ZM163.681 38.1992C163.644 37.8581 163.491 37.5924 163.22 37.4023C162.951 37.2122 162.603 37.1172 162.173 37.1172C161.871 37.1172 161.612 37.1628 161.396 37.2539C161.179 37.3451 161.014 37.4687 160.899 37.625C160.785 37.7812 160.726 37.9596 160.724 38.1602C160.724 38.3268 160.761 38.4714 160.837 38.5937C160.915 38.7161 161.021 38.8203 161.153 38.9062C161.286 38.9896 161.433 39.0599 161.595 39.1172C161.756 39.1745 161.919 39.2227 162.083 39.2617L162.833 39.4492C163.135 39.5195 163.425 39.6146 163.704 39.7344C163.985 39.8542 164.237 40.0052 164.458 40.1875C164.682 40.3698 164.859 40.5898 164.989 40.8477C165.119 41.1055 165.185 41.4076 165.185 41.7539C165.185 42.2227 165.065 42.6354 164.825 42.9922C164.586 43.3464 164.239 43.6237 163.786 43.8242C163.336 44.0221 162.79 44.1211 162.149 44.1211C161.527 44.1211 160.987 44.0247 160.528 43.832C160.073 43.6393 159.716 43.3581 159.458 42.9883C159.203 42.6185 159.065 42.168 159.044 41.6367H160.47C160.491 41.9154 160.576 42.1471 160.728 42.332C160.879 42.5169 161.075 42.6549 161.317 42.7461C161.562 42.8372 161.836 42.8828 162.138 42.8828C162.453 42.8828 162.729 42.8359 162.966 42.7422C163.205 42.6458 163.393 42.513 163.528 42.3437C163.664 42.1719 163.733 41.9714 163.735 41.7422C163.733 41.5339 163.672 41.362 163.552 41.2266C163.432 41.0885 163.264 40.974 163.048 40.8828C162.834 40.7891 162.584 40.7057 162.298 40.6328L161.388 40.3984C160.729 40.2292 160.208 39.9727 159.825 39.6289C159.445 39.2826 159.255 38.8229 159.255 38.25C159.255 37.7786 159.382 37.3659 159.638 37.0117C159.896 36.6576 160.246 36.3828 160.688 36.1875C161.131 35.9896 161.632 35.8906 162.192 35.8906C162.76 35.8906 163.257 35.9896 163.685 36.1875C164.114 36.3828 164.451 36.6549 164.696 37.0039C164.941 37.3503 165.067 37.7487 165.075 38.1992H163.681ZM172.02 36H173.469V41.2266C173.469 41.7995 173.333 42.3034 173.062 42.7383C172.794 43.1732 172.417 43.513 171.93 43.7578C171.443 44 170.874 44.1211 170.223 44.1211C169.569 44.1211 168.999 44 168.512 43.7578C168.025 43.513 167.647 43.1732 167.379 42.7383C167.111 42.3034 166.977 41.7995 166.977 41.2266V36H168.426V41.1055C168.426 41.4388 168.499 41.7357 168.645 41.9961C168.793 42.2565 169.001 42.4609 169.27 42.6094C169.538 42.7552 169.855 42.8281 170.223 42.8281C170.59 42.8281 170.908 42.7552 171.176 42.6094C171.447 42.4609 171.655 42.2565 171.801 41.9961C171.947 41.7357 172.02 41.4388 172.02 41.1055V36ZM175.544 44V36H176.993V42.7852H180.517V44H175.544ZM180.902 37.2148V36H187.285V37.2148H184.813V44H183.375V37.2148H180.902Z" fill="#333333"/>
</svg>
