<svg width="159" height="132" viewBox="0 0 159 132" fill="none" xmlns="http://www.w3.org/2000/svg">
<path fill-rule="evenodd" clip-rule="evenodd" d="M68.8333 42.6667C68.8333 54.4488 78.3845 64.0001 90.1666 64.0001V42.6668H111.5V21.3334H90.1666V21.3334H68.8333V42.6667Z" fill="#8AD7F5"/>
<path fill-rule="evenodd" clip-rule="evenodd" d="M90.1665 21.3335H90.1667V42.6668H47.5V21.3335H68.8332V0H90.1665V21.3335Z" fill="white" fill-opacity="0.85"/>
<path d="M8.02095 101H1.83345V83.5455H8.07209C9.82777 83.5455 11.3391 83.8949 12.6062 84.5938C13.8732 85.2869 14.8477 86.2841 15.5295 87.5852C16.217 88.8864 16.5607 90.4432 16.5607 92.2557C16.5607 94.0739 16.217 95.6364 15.5295 96.9432C14.8477 98.25 13.8675 99.2528 12.5891 99.9517C11.3164 100.651 9.79368 101 8.02095 101ZM5.52379 97.8381H7.86754C8.95845 97.8381 9.87607 97.6449 10.6204 97.2585C11.3704 96.8665 11.9329 96.2614 12.3079 95.4432C12.6886 94.6193 12.8789 93.5568 12.8789 92.2557C12.8789 90.9659 12.6886 89.9119 12.3079 89.0938C11.9329 88.2756 11.3732 87.6733 10.6289 87.2869C9.88459 86.9006 8.96697 86.7074 7.87607 86.7074H5.52379V97.8381ZM19.2262 101V87.9091H22.8569V101H19.2262ZM21.0501 86.2216C20.5103 86.2216 20.0472 86.0426 19.6609 85.6847C19.2802 85.321 19.0898 84.8864 19.0898 84.3807C19.0898 83.8807 19.2802 83.4517 19.6609 83.0938C20.0472 82.7301 20.5103 82.5483 21.0501 82.5483C21.5898 82.5483 22.0501 82.7301 22.4308 83.0938C22.8171 83.4517 23.0103 83.8807 23.0103 84.3807C23.0103 84.8864 22.8171 85.321 22.4308 85.6847C22.0501 86.0426 21.5898 86.2216 21.0501 86.2216ZM31.663 106.182C30.4869 106.182 29.4783 106.02 28.6374 105.696C27.8022 105.378 27.1374 104.943 26.6431 104.392C26.1488 103.841 25.8278 103.222 25.68 102.534L29.038 102.082C29.1403 102.344 29.3022 102.588 29.5238 102.815C29.7454 103.043 30.038 103.224 30.4016 103.361C30.771 103.503 31.2198 103.574 31.7482 103.574C32.538 103.574 33.1886 103.381 33.6999 102.994C34.217 102.614 34.4755 101.974 34.4755 101.077V98.6818H34.3221C34.163 99.0455 33.9244 99.3892 33.6062 99.7131C33.288 100.037 32.8789 100.301 32.3789 100.506C31.8789 100.71 31.2823 100.812 30.5891 100.812C29.6062 100.812 28.7113 100.585 27.9045 100.131C27.1033 99.6705 26.4641 98.9687 25.9869 98.0256C25.5153 97.0767 25.2795 95.8778 25.2795 94.429C25.2795 92.946 25.521 91.7074 26.0039 90.7131C26.4869 89.7187 27.1289 88.9744 27.93 88.4801C28.7369 87.9858 29.6204 87.7386 30.5806 87.7386C31.3136 87.7386 31.9272 87.8636 32.4215 88.1136C32.9158 88.358 33.3136 88.6648 33.6147 89.0341C33.9215 89.3977 34.1573 89.7557 34.3221 90.108H34.4585V87.9091H38.0636V101.128C38.0636 102.241 37.7908 103.173 37.2454 103.923C36.6999 104.673 35.9442 105.236 34.9783 105.611C34.0181 105.991 32.913 106.182 31.663 106.182ZM31.7397 98.0852C32.3249 98.0852 32.8192 97.9403 33.2227 97.6506C33.6317 97.3551 33.9442 96.9347 34.1602 96.3892C34.3817 95.8381 34.4925 95.179 34.4925 94.4119C34.4925 93.6449 34.3846 92.9801 34.1687 92.4176C33.9528 91.8494 33.6403 91.4091 33.2312 91.0966C32.8221 90.7841 32.3249 90.6278 31.7397 90.6278C31.1431 90.6278 30.6403 90.7898 30.2312 91.1136C29.8221 91.4318 29.5124 91.875 29.3022 92.4432C29.092 93.0114 28.9869 93.6676 28.9869 94.4119C28.9869 95.1676 29.092 95.821 29.3022 96.3722C29.5181 96.9176 29.8278 97.3409 30.2312 97.642C30.6403 97.9375 31.1431 98.0852 31.7397 98.0852ZM40.9528 101V87.9091H44.5835V101H40.9528ZM42.7766 86.2216C42.2369 86.2216 41.7738 86.0426 41.3874 85.6847C41.0067 85.321 40.8164 84.8864 40.8164 84.3807C40.8164 83.8807 41.0067 83.4517 41.3874 83.0938C41.7738 82.7301 42.2369 82.5483 42.7766 82.5483C43.3164 82.5483 43.7766 82.7301 44.1573 83.0938C44.5437 83.4517 44.7369 83.8807 44.7369 84.3807C44.7369 84.8864 44.5437 85.321 44.1573 85.6847C43.7766 86.0426 43.3164 86.2216 42.7766 86.2216ZM54.4549 87.9091V90.6364H46.5714V87.9091H54.4549ZM48.3612 84.7727H51.9918V96.9773C51.9918 97.3125 52.043 97.5739 52.1452 97.7614C52.2475 97.9432 52.3896 98.071 52.5714 98.1449C52.7589 98.2187 52.9748 98.2557 53.2191 98.2557C53.3896 98.2557 53.56 98.2415 53.7305 98.2131C53.9009 98.179 54.0316 98.1534 54.1225 98.1364L54.6935 100.838C54.5117 100.895 54.256 100.96 53.9265 101.034C53.5969 101.114 53.1964 101.162 52.7248 101.179C51.8498 101.213 51.0827 101.097 50.4237 100.83C49.7702 100.562 49.2617 100.148 48.8981 99.5852C48.5344 99.0227 48.3555 98.3125 48.3612 97.4545V84.7727ZM60.5529 101.247C59.7177 101.247 58.9734 101.102 58.32 100.812C57.6665 100.517 57.1495 100.082 56.7688 99.5085C56.3938 98.929 56.2063 98.2074 56.2063 97.3438C56.2063 96.6165 56.3398 96.0057 56.6069 95.5114C56.8739 95.017 57.2376 94.6193 57.6978 94.3182C58.158 94.017 58.6808 93.7898 59.266 93.6364C59.8569 93.483 60.4762 93.375 61.1239 93.3125C61.8853 93.233 62.4989 93.1591 62.9648 93.0909C63.4308 93.017 63.7688 92.9091 63.979 92.767C64.1893 92.625 64.2944 92.4148 64.2944 92.1364V92.0852C64.2944 91.5455 64.1239 91.1278 63.783 90.8324C63.4478 90.5369 62.9705 90.3892 62.3512 90.3892C61.6978 90.3892 61.1779 90.5341 60.7915 90.8239C60.4052 91.108 60.1495 91.4659 60.0245 91.8977L56.6665 91.625C56.837 90.8295 57.1722 90.142 57.6722 89.5625C58.1722 88.9773 58.8171 88.5284 59.6069 88.2159C60.4023 87.8977 61.3228 87.7386 62.3683 87.7386C63.0955 87.7386 63.7915 87.8239 64.4563 87.9943C65.1268 88.1648 65.7205 88.429 66.2376 88.7869C66.7603 89.1449 67.1722 89.6051 67.4734 90.1676C67.7745 90.7244 67.9251 91.392 67.9251 92.1705V101H64.4819V99.1847H64.3796C64.1694 99.5938 63.8881 99.9545 63.5359 100.267C63.1836 100.574 62.7603 100.815 62.266 100.991C61.7717 101.162 61.2006 101.247 60.5529 101.247ZM61.5927 98.7415C62.1268 98.7415 62.5984 98.6364 63.0075 98.4261C63.4165 98.2102 63.7376 97.9205 63.9705 97.5568C64.2035 97.1932 64.32 96.7812 64.32 96.321V94.9318C64.2063 95.0057 64.0501 95.0739 63.8512 95.1364C63.658 95.1932 63.4393 95.2472 63.195 95.2983C62.9506 95.3437 62.7063 95.3864 62.462 95.4261C62.2177 95.4602 61.9961 95.4915 61.7972 95.5199C61.3711 95.5824 60.9989 95.6818 60.6808 95.8182C60.3626 95.9545 60.1154 96.1392 59.9393 96.3722C59.7631 96.5994 59.6751 96.8835 59.6751 97.2244C59.6751 97.7188 59.854 98.0966 60.212 98.358C60.5756 98.6136 61.0359 98.7415 61.5927 98.7415ZM74.3725 83.5455V101H70.7418V83.5455H74.3725ZM82.9038 101V83.5455H86.5941V90.7472H94.0856V83.5455H97.7674V101H94.0856V93.7898H86.5941V101H82.9038ZM106.708 101.256C105.361 101.256 104.202 100.983 103.23 100.438C102.265 99.8864 101.52 99.108 100.998 98.1023C100.475 97.0909 100.213 95.8949 100.213 94.5142C100.213 93.1676 100.475 91.9858 100.998 90.9688C101.52 89.9517 102.256 89.1591 103.205 88.5909C104.159 88.0227 105.279 87.7386 106.563 87.7386C107.426 87.7386 108.23 87.8778 108.975 88.1562C109.725 88.429 110.378 88.8409 110.935 89.392C111.498 89.9432 111.935 90.6364 112.248 91.4716C112.56 92.3011 112.716 93.2727 112.716 94.3864V95.3835H101.662V93.1335H109.299C109.299 92.6108 109.185 92.1477 108.958 91.7443C108.73 91.3409 108.415 91.0256 108.012 90.7983C107.614 90.5653 107.151 90.4489 106.623 90.4489C106.071 90.4489 105.583 90.5767 105.157 90.8324C104.736 91.0824 104.407 91.4205 104.168 91.8466C103.929 92.267 103.807 92.7358 103.801 93.2528V95.392C103.801 96.0398 103.921 96.5994 104.159 97.071C104.404 97.5426 104.748 97.9062 105.191 98.1619C105.634 98.4176 106.159 98.5455 106.767 98.5455C107.171 98.5455 107.54 98.4886 107.875 98.375C108.211 98.2614 108.498 98.0909 108.736 97.8636C108.975 97.6364 109.157 97.358 109.282 97.0284L112.64 97.25C112.469 98.0568 112.12 98.7614 111.591 99.3636C111.069 99.9602 110.392 100.426 109.563 100.761C108.739 101.091 107.787 101.256 106.708 101.256ZM118.819 101.247C117.983 101.247 117.239 101.102 116.586 100.812C115.932 100.517 115.415 100.082 115.034 99.5085C114.659 98.929 114.472 98.2074 114.472 97.3438C114.472 96.6165 114.605 96.0057 114.873 95.5114C115.14 95.017 115.503 94.6193 115.963 94.3182C116.424 94.017 116.946 93.7898 117.532 93.6364C118.123 93.483 118.742 93.375 119.39 93.3125C120.151 93.233 120.765 93.1591 121.23 93.0909C121.696 93.017 122.034 92.9091 122.245 92.767C122.455 92.625 122.56 92.4148 122.56 92.1364V92.0852C122.56 91.5455 122.39 91.1278 122.049 90.8324C121.713 90.5369 121.236 90.3892 120.617 90.3892C119.963 90.3892 119.444 90.5341 119.057 90.8239C118.671 91.108 118.415 91.4659 118.29 91.8977L114.932 91.625C115.103 90.8295 115.438 90.142 115.938 89.5625C116.438 88.9773 117.083 88.5284 117.873 88.2159C118.668 87.8977 119.588 87.7386 120.634 87.7386C121.361 87.7386 122.057 87.8239 122.722 87.9943C123.392 88.1648 123.986 88.429 124.503 88.7869C125.026 89.1449 125.438 89.6051 125.739 90.1676C126.04 90.7244 126.191 91.392 126.191 92.1705V101H122.748V99.1847H122.645C122.435 99.5938 122.154 99.9545 121.801 100.267C121.449 100.574 121.026 100.815 120.532 100.991C120.037 101.162 119.466 101.247 118.819 101.247ZM119.858 98.7415C120.392 98.7415 120.864 98.6364 121.273 98.4261C121.682 98.2102 122.003 97.9205 122.236 97.5568C122.469 97.1932 122.586 96.7812 122.586 96.321V94.9318C122.472 95.0057 122.316 95.0739 122.117 95.1364C121.924 95.1932 121.705 95.2472 121.461 95.2983C121.216 95.3437 120.972 95.3864 120.728 95.4261C120.483 95.4602 120.262 95.4915 120.063 95.5199C119.637 95.5824 119.265 95.6818 118.946 95.8182C118.628 95.9545 118.381 96.1392 118.205 96.3722C118.029 96.5994 117.941 96.8835 117.941 97.2244C117.941 97.7188 118.12 98.0966 118.478 98.358C118.841 98.6136 119.301 98.7415 119.858 98.7415ZM132.638 83.5455V101H129.007V83.5455H132.638ZM142.51 87.9091V90.6364H134.626V87.9091H142.51ZM136.416 84.7727H140.047V96.9773C140.047 97.3125 140.098 97.5739 140.2 97.7614C140.302 97.9432 140.444 98.071 140.626 98.1449C140.814 98.2187 141.029 98.2557 141.274 98.2557C141.444 98.2557 141.615 98.2415 141.785 98.2131C141.956 98.179 142.086 98.1534 142.177 98.1364L142.748 100.838C142.566 100.895 142.311 100.96 141.981 101.034C141.652 101.114 141.251 101.162 140.779 101.179C139.904 101.213 139.137 101.097 138.478 100.83C137.825 100.562 137.316 100.148 136.953 99.5852C136.589 99.0227 136.41 98.3125 136.416 97.4545V84.7727ZM148.787 93.4318V101H145.156V83.5455H148.684V90.2188H148.838C149.133 89.446 149.61 88.8409 150.27 88.4034C150.929 87.9602 151.755 87.7386 152.75 87.7386C153.659 87.7386 154.451 87.9375 155.127 88.3352C155.809 88.7273 156.338 89.2926 156.713 90.0312C157.093 90.7642 157.281 91.642 157.275 92.6648V101H153.645V93.3125C153.65 92.5057 153.446 91.8778 153.031 91.429C152.622 90.9801 152.048 90.7557 151.309 90.7557C150.815 90.7557 150.377 90.8608 149.997 91.071C149.622 91.2812 149.326 91.5881 149.11 91.9915C148.9 92.3892 148.792 92.8693 148.787 93.4318Z" fill="#F6F6F6"/>
<path d="M11.7827 119.273H13.7173L16.3082 125.597H16.4105L19.0014 119.273H20.9361V128H19.419V122.004H19.3381L16.9261 127.974H15.7926L13.3807 121.991H13.2997V128H11.7827V119.273ZM23.0577 128V119.273H28.7338V120.598H24.6386V122.967H28.4398V124.293H24.6386V126.675H28.7679V128H23.0577ZM33.7041 128H30.7467V119.273H33.7638C34.6303 119.273 35.3746 119.447 35.9967 119.797C36.6217 120.143 37.1018 120.642 37.4371 121.293C37.7723 121.943 37.9399 122.722 37.9399 123.628C37.9399 124.537 37.7709 125.318 37.4328 125.972C37.0976 126.625 36.6132 127.126 35.9797 127.476C35.349 127.825 34.5905 128 33.7041 128ZM32.3277 126.632H33.6274C34.2354 126.632 34.7425 126.521 35.1487 126.3C35.555 126.075 35.8604 125.741 36.0649 125.298C36.2695 124.852 36.3717 124.295 36.3717 123.628C36.3717 122.96 36.2695 122.406 36.0649 121.966C35.8604 121.523 35.5578 121.192 35.1572 120.973C34.7595 120.751 34.2652 120.641 33.6743 120.641H32.3277V126.632ZM39.842 128V119.273H43.1148C43.7852 119.273 44.3477 119.398 44.8023 119.648C45.2597 119.898 45.6048 120.241 45.8378 120.679C46.0736 121.114 46.1915 121.608 46.1915 122.162C46.1915 122.722 46.0736 123.219 45.8378 123.653C45.602 124.088 45.254 124.43 44.7938 124.68C44.3335 124.928 43.7668 125.051 43.0935 125.051H40.9244V123.751H42.8804C43.2724 123.751 43.5935 123.683 43.8435 123.547C44.0935 123.411 44.2781 123.223 44.3974 122.984C44.5196 122.746 44.5807 122.472 44.5807 122.162C44.5807 121.852 44.5196 121.58 44.3974 121.344C44.2781 121.108 44.092 120.925 43.8392 120.794C43.5892 120.661 43.2668 120.594 42.8719 120.594H41.423V128H39.842ZM47.9647 128V119.273H49.5457V122.967H53.5897V119.273H55.1749V128H53.5897V124.293H49.5457V128H47.9647ZM58.4151 128H56.7276L59.8001 119.273H61.7518L64.8285 128H63.141L60.81 121.062H60.7418L58.4151 128ZM58.4705 124.578H63.0728V125.848H58.4705V124.578ZM66.378 128V119.273H69.6507C70.3212 119.273 70.8837 119.389 71.3382 119.622C71.7956 119.855 72.1408 120.182 72.3737 120.602C72.6095 121.02 72.7274 121.507 72.7274 122.064C72.7274 122.624 72.6081 123.109 72.3695 123.521C72.1337 123.93 71.7857 124.247 71.3254 124.472C70.8652 124.693 70.2999 124.804 69.6294 124.804H67.2984V123.491H69.4163C69.8084 123.491 70.1294 123.437 70.3794 123.33C70.6294 123.219 70.8141 123.058 70.9334 122.848C71.0555 122.635 71.1166 122.374 71.1166 122.064C71.1166 121.754 71.0555 121.49 70.9334 121.271C70.8112 121.05 70.6251 120.882 70.3751 120.768C70.1251 120.652 69.8027 120.594 69.4078 120.594H67.959V128H66.378ZM70.8865 124.045L73.047 128H71.2828L69.1607 124.045H70.8865ZM74.5827 119.273H76.5173L79.1082 125.597H79.2105L81.8014 119.273H83.7361V128H82.219V122.004H82.1381L79.7261 127.974H78.5926L76.1807 121.991H76.0997V128H74.5827V119.273ZM96.7044 122.217H95.1107C95.0652 121.956 94.9814 121.724 94.8592 121.523C94.7371 121.318 94.5851 121.145 94.4033 121.003C94.2214 120.861 94.0141 120.754 93.7811 120.683C93.551 120.609 93.3024 120.572 93.0354 120.572C92.5609 120.572 92.1405 120.692 91.774 120.93C91.4075 121.166 91.1206 121.513 90.9132 121.97C90.7058 122.425 90.6021 122.98 90.6021 123.636C90.6021 124.304 90.7058 124.866 90.9132 125.324C91.1234 125.778 91.4104 126.122 91.774 126.355C92.1405 126.585 92.5595 126.7 93.0311 126.7C93.2925 126.7 93.5368 126.666 93.7641 126.598C93.9942 126.527 94.2001 126.423 94.382 126.287C94.5666 126.151 94.7214 125.983 94.8464 125.784C94.9743 125.585 95.0624 125.358 95.1107 125.102L96.7044 125.111C96.6447 125.526 96.5155 125.915 96.3166 126.278C96.1206 126.642 95.8635 126.963 95.5453 127.241C95.2271 127.517 94.855 127.733 94.4288 127.889C94.0027 128.043 93.5297 128.119 93.0098 128.119C92.2428 128.119 91.5581 127.942 90.9558 127.587C90.3535 127.232 89.8791 126.719 89.5325 126.048C89.1859 125.378 89.0126 124.574 89.0126 123.636C89.0126 122.696 89.1874 121.892 89.5368 121.224C89.8862 120.554 90.3621 120.041 90.9643 119.686C91.5666 119.331 92.2484 119.153 93.0098 119.153C93.4956 119.153 93.9473 119.222 94.3649 119.358C94.7825 119.494 95.1547 119.695 95.4814 119.959C95.8081 120.22 96.0766 120.541 96.2868 120.922C96.4999 121.3 96.6391 121.732 96.7044 122.217ZM106.35 123.636C106.35 124.577 106.174 125.382 105.822 126.053C105.473 126.72 104.995 127.232 104.39 127.587C103.788 127.942 103.105 128.119 102.341 128.119C101.576 128.119 100.892 127.942 100.287 127.587C99.6843 127.229 99.207 126.716 98.8548 126.048C98.5053 125.378 98.3306 124.574 98.3306 123.636C98.3306 122.696 98.5053 121.892 98.8548 121.224C99.207 120.554 99.6843 120.041 100.287 119.686C100.892 119.331 101.576 119.153 102.341 119.153C103.105 119.153 103.788 119.331 104.39 119.686C104.995 120.041 105.473 120.554 105.822 121.224C106.174 121.892 106.35 122.696 106.35 123.636ZM104.761 123.636C104.761 122.974 104.657 122.416 104.45 121.962C104.245 121.504 103.961 121.159 103.598 120.926C103.234 120.69 102.815 120.572 102.341 120.572C101.866 120.572 101.447 120.69 101.083 120.926C100.72 121.159 100.434 121.504 100.227 121.962C100.022 122.416 99.9201 122.974 99.9201 123.636C99.9201 124.298 100.022 124.858 100.227 125.315C100.434 125.77 100.72 126.115 101.083 126.351C101.447 126.584 101.866 126.7 102.341 126.7C102.815 126.7 103.234 126.584 103.598 126.351C103.961 126.115 104.245 125.77 104.45 125.315C104.657 124.858 104.761 124.298 104.761 123.636ZM115.417 119.273V128H114.011L109.899 122.055H109.826V128H108.245V119.273H109.66L113.768 125.222H113.845V119.273H115.417ZM122.283 121.672C122.243 121.3 122.075 121.01 121.78 120.803C121.487 120.595 121.106 120.491 120.638 120.491C120.308 120.491 120.026 120.541 119.79 120.641C119.554 120.74 119.374 120.875 119.249 121.045C119.124 121.216 119.06 121.411 119.057 121.629C119.057 121.811 119.098 121.969 119.18 122.102C119.266 122.236 119.381 122.349 119.526 122.443C119.67 122.534 119.831 122.611 120.007 122.673C120.183 122.736 120.361 122.788 120.54 122.831L121.358 123.036C121.687 123.112 122.004 123.216 122.308 123.347C122.615 123.477 122.889 123.642 123.131 123.841C123.375 124.04 123.568 124.28 123.71 124.561C123.852 124.842 123.923 125.172 123.923 125.55C123.923 126.061 123.793 126.511 123.531 126.901C123.27 127.287 122.892 127.589 122.398 127.808C121.906 128.024 121.311 128.132 120.612 128.132C119.933 128.132 119.344 128.027 118.844 127.817C118.347 127.607 117.957 127.3 117.676 126.896C117.398 126.493 117.247 126.001 117.224 125.422H118.78C118.802 125.726 118.896 125.979 119.061 126.18C119.226 126.382 119.44 126.533 119.704 126.632C119.972 126.732 120.27 126.781 120.599 126.781C120.943 126.781 121.244 126.73 121.503 126.628C121.764 126.523 121.969 126.378 122.116 126.193C122.264 126.006 122.339 125.787 122.342 125.537C122.339 125.31 122.273 125.122 122.142 124.974C122.011 124.824 121.828 124.699 121.592 124.599C121.359 124.497 121.087 124.406 120.774 124.327L119.781 124.071C119.062 123.886 118.494 123.607 118.077 123.232C117.662 122.854 117.454 122.352 117.454 121.727C117.454 121.213 117.594 120.763 117.872 120.376C118.153 119.99 118.535 119.69 119.018 119.477C119.501 119.261 120.048 119.153 120.659 119.153C121.278 119.153 121.821 119.261 122.287 119.477C122.756 119.69 123.124 119.987 123.391 120.368C123.658 120.746 123.795 121.18 123.804 121.672H122.283ZM131.234 119.273H132.815V124.974C132.815 125.599 132.667 126.149 132.372 126.624C132.079 127.098 131.667 127.469 131.136 127.736C130.605 128 129.984 128.132 129.274 128.132C128.561 128.132 127.939 128 127.407 127.736C126.876 127.469 126.464 127.098 126.172 126.624C125.879 126.149 125.733 125.599 125.733 124.974V119.273H127.314V124.842C127.314 125.206 127.393 125.53 127.552 125.814C127.714 126.098 127.941 126.321 128.234 126.483C128.527 126.642 128.873 126.722 129.274 126.722C129.674 126.722 130.021 126.642 130.314 126.483C130.609 126.321 130.836 126.098 130.995 125.814C131.155 125.53 131.234 125.206 131.234 124.842V119.273ZM134.933 128V119.273H136.514V126.675H140.358V128H134.933ZM140.634 120.598V119.273H147.597V120.598H144.899V128H143.331V120.598H140.634Z" fill="#8AD7F5"/>
</svg>
